<mxfile host="www.draw.io" modified="2020-03-04T07:15:54.196Z" agent="Mozilla/5.0 (Windows NT 6.1; Win64; x64) AppleWebKit/537.36 (KHTML, like Gecko) Chrome/80.0.3987.122 Safari/537.36" etag="5i9OqduX804a1ImJlF5j" version="12.7.9" type="github" pages="4">
  <diagram id="ejO7ZNCvD3ukqZOSyBz4" name="BC27_Principal Approval">
    <mxGraphModel dx="1209" dy="957" grid="0" gridSize="10" guides="1" tooltips="1" connect="1" arrows="1" fold="1" page="1" pageScale="1" pageWidth="1169" pageHeight="827" math="0" shadow="1">
      <root>
        <mxCell id="A6Ks-Vfohcc06DCEBgYB-0" />
        <mxCell id="A6Ks-Vfohcc06DCEBgYB-1" parent="A6Ks-Vfohcc06DCEBgYB-0" />
        <mxCell id="bcFx4GBdsSPqpS9iQmqI-11" value="売主A" style="ellipse;whiteSpace=wrap;html=1;fontStyle=1;labelBackgroundColor=#FFFF99;" parent="A6Ks-Vfohcc06DCEBgYB-1" vertex="1">
          <mxGeometry x="220" y="380" width="200" height="187.17" as="geometry" />
        </mxCell>
        <mxCell id="bcFx4GBdsSPqpS9iQmqI-7" value="売主B" style="ellipse;whiteSpace=wrap;html=1;fontStyle=1;labelBackgroundColor=#FFFF99;" parent="A6Ks-Vfohcc06DCEBgYB-1" vertex="1">
          <mxGeometry x="450" y="370" width="200" height="187.17" as="geometry" />
        </mxCell>
        <mxCell id="A6Ks-Vfohcc06DCEBgYB-4" value="HAP" style="rounded=1;whiteSpace=wrap;html=1;fillColor=#ffe6cc;strokeColor=#d79b00;" parent="A6Ks-Vfohcc06DCEBgYB-1" vertex="1">
          <mxGeometry x="795" y="232" width="50" height="50" as="geometry" />
        </mxCell>
        <mxCell id="A6Ks-Vfohcc06DCEBgYB-5" value="50%&lt;br&gt;USD 11.6M" style="endArrow=classic;html=1;exitX=0.5;exitY=1;exitDx=0;exitDy=0;" parent="A6Ks-Vfohcc06DCEBgYB-1" source="A6Ks-Vfohcc06DCEBgYB-4" target="A6Ks-Vfohcc06DCEBgYB-6" edge="1">
          <mxGeometry width="50" height="50" relative="1" as="geometry">
            <mxPoint x="855" y="352" as="sourcePoint" />
            <mxPoint x="880" y="312" as="targetPoint" />
          </mxGeometry>
        </mxCell>
        <mxCell id="A6Ks-Vfohcc06DCEBgYB-6" value="VN-2" style="rounded=1;whiteSpace=wrap;html=1;" parent="A6Ks-Vfohcc06DCEBgYB-1" vertex="1">
          <mxGeometry x="855" y="372" width="50" height="50" as="geometry" />
        </mxCell>
        <mxCell id="SYITZh6_fyyIGgCwmZHc-0" value="その他" style="rounded=1;whiteSpace=wrap;html=1;" parent="A6Ks-Vfohcc06DCEBgYB-1" vertex="1">
          <mxGeometry x="935" y="232" width="50" height="50" as="geometry" />
        </mxCell>
        <mxCell id="SYITZh6_fyyIGgCwmZHc-1" value="50%&lt;br&gt;USD 11.6M" style="endArrow=classic;html=1;exitX=0.5;exitY=1;exitDx=0;exitDy=0;entryX=0.75;entryY=0;entryDx=0;entryDy=0;" parent="A6Ks-Vfohcc06DCEBgYB-1" source="SYITZh6_fyyIGgCwmZHc-0" target="A6Ks-Vfohcc06DCEBgYB-6" edge="1">
          <mxGeometry width="50" height="50" relative="1" as="geometry">
            <mxPoint x="890" y="292" as="sourcePoint" />
            <mxPoint x="890" y="352" as="targetPoint" />
          </mxGeometry>
        </mxCell>
        <mxCell id="bPnOsOk_GrwAUFt6FH5t-0" value="Hold Co" style="rounded=1;whiteSpace=wrap;html=1;" parent="A6Ks-Vfohcc06DCEBgYB-1" vertex="1">
          <mxGeometry x="707" y="532" width="50" height="50" as="geometry" />
        </mxCell>
        <mxCell id="bPnOsOk_GrwAUFt6FH5t-2" value="" style="shape=image;html=1;verticalAlign=top;verticalLabelPosition=bottom;labelBackgroundColor=#ffffff;imageAspect=0;aspect=fixed;image=https://cdn3.iconfinder.com/data/icons/flags-37/300/japan-national-world-128.png" parent="A6Ks-Vfohcc06DCEBgYB-1" vertex="1">
          <mxGeometry x="961" y="305" width="50" height="50" as="geometry" />
        </mxCell>
        <mxCell id="bPnOsOk_GrwAUFt6FH5t-4" value="" style="endArrow=none;dashed=1;html=1;" parent="A6Ks-Vfohcc06DCEBgYB-1" edge="1">
          <mxGeometry width="50" height="50" relative="1" as="geometry">
            <mxPoint x="760" y="353" as="sourcePoint" />
            <mxPoint x="1030.6666870117188" y="353" as="targetPoint" />
          </mxGeometry>
        </mxCell>
        <mxCell id="bPnOsOk_GrwAUFt6FH5t-7" value="" style="shape=image;html=1;verticalAlign=top;verticalLabelPosition=bottom;labelBackgroundColor=#ffffff;imageAspect=0;image=https://cdn2.iconfinder.com/data/icons/flags_gosquared/64/Singapore_flat.png;imageBackground=none;imageBorder=#000000;" parent="A6Ks-Vfohcc06DCEBgYB-1" vertex="1">
          <mxGeometry x="966" y="363" width="40" height="27" as="geometry" />
        </mxCell>
        <mxCell id="bPnOsOk_GrwAUFt6FH5t-9" value="" style="endArrow=none;dashed=1;html=1;" parent="A6Ks-Vfohcc06DCEBgYB-1" edge="1">
          <mxGeometry width="50" height="50" relative="1" as="geometry">
            <mxPoint x="760" y="292" as="sourcePoint" />
            <mxPoint x="1050.6666870117188" y="292" as="targetPoint" />
          </mxGeometry>
        </mxCell>
        <mxCell id="bPnOsOk_GrwAUFt6FH5t-10" value="USD 22.6M（80%）&lt;br&gt;普通株割合（49.99%）" style="endArrow=classic;html=1;entryX=0.5;entryY=0;entryDx=0;entryDy=0;exitX=0.5;exitY=1;exitDx=0;exitDy=0;" parent="A6Ks-Vfohcc06DCEBgYB-1" source="A6Ks-Vfohcc06DCEBgYB-6" target="bPnOsOk_GrwAUFt6FH5t-0" edge="1">
          <mxGeometry width="50" height="50" relative="1" as="geometry">
            <mxPoint x="995" y="442" as="sourcePoint" />
            <mxPoint x="938.75" y="507" as="targetPoint" />
          </mxGeometry>
        </mxCell>
        <mxCell id="sRbBSXOT0Q6TaIx9QvP1-0" value="PJ Co" style="rounded=1;whiteSpace=wrap;html=1;" parent="A6Ks-Vfohcc06DCEBgYB-1" vertex="1">
          <mxGeometry x="360" y="680" width="100" height="90" as="geometry" />
        </mxCell>
        <mxCell id="sRbBSXOT0Q6TaIx9QvP1-1" value="100%&lt;br&gt;USD 28.3M" style="endArrow=classic;html=1;exitX=0.25;exitY=1;exitDx=0;exitDy=0;entryX=1;entryY=0.5;entryDx=0;entryDy=0;" parent="A6Ks-Vfohcc06DCEBgYB-1" source="bPnOsOk_GrwAUFt6FH5t-0" target="sRbBSXOT0Q6TaIx9QvP1-0" edge="1">
          <mxGeometry width="50" height="50" relative="1" as="geometry">
            <mxPoint x="775" y="389" as="sourcePoint" />
            <mxPoint x="480" y="724" as="targetPoint" />
            <Array as="points">
              <mxPoint x="720" y="725" />
            </Array>
          </mxGeometry>
        </mxCell>
        <mxCell id="bcFx4GBdsSPqpS9iQmqI-0" value="" style="shape=image;html=1;verticalAlign=top;verticalLabelPosition=bottom;labelBackgroundColor=#ffffff;imageAspect=0;aspect=fixed;image=https://cdn1.iconfinder.com/data/icons/ensign-11/512/280_Ensign_Flag_Nation_vietnam-128.png" parent="A6Ks-Vfohcc06DCEBgYB-1" vertex="1">
          <mxGeometry x="966" y="448" width="40" height="40" as="geometry" />
        </mxCell>
        <mxCell id="bcFx4GBdsSPqpS9iQmqI-4" value="" style="edgeStyle=orthogonalEdgeStyle;rounded=0;orthogonalLoop=1;jettySize=auto;html=1;" parent="A6Ks-Vfohcc06DCEBgYB-1" source="bcFx4GBdsSPqpS9iQmqI-2" target="bcFx4GBdsSPqpS9iQmqI-3" edge="1">
          <mxGeometry relative="1" as="geometry" />
        </mxCell>
        <mxCell id="bcFx4GBdsSPqpS9iQmqI-6" value="" style="edgeStyle=orthogonalEdgeStyle;rounded=0;orthogonalLoop=1;jettySize=auto;html=1;" parent="A6Ks-Vfohcc06DCEBgYB-1" source="bcFx4GBdsSPqpS9iQmqI-2" target="bcFx4GBdsSPqpS9iQmqI-5" edge="1">
          <mxGeometry relative="1" as="geometry" />
        </mxCell>
        <mxCell id="bcFx4GBdsSPqpS9iQmqI-2" value="BC27&lt;br&gt;26 ha" style="shape=parallelogram;perimeter=parallelogramPerimeter;whiteSpace=wrap;html=1;" parent="A6Ks-Vfohcc06DCEBgYB-1" vertex="1">
          <mxGeometry x="370" y="260" width="120" height="60" as="geometry" />
        </mxCell>
        <mxCell id="bcFx4GBdsSPqpS9iQmqI-5" value="ばらばらで計：&lt;br&gt;8 ha" style="shape=parallelogram;perimeter=parallelogramPerimeter;whiteSpace=wrap;html=1;" parent="A6Ks-Vfohcc06DCEBgYB-1" vertex="1">
          <mxGeometry x="470" y="390" width="120" height="60" as="geometry" />
        </mxCell>
        <mxCell id="bcFx4GBdsSPqpS9iQmqI-3" value="ばらばらで計：&lt;br&gt;18 ha" style="shape=parallelogram;perimeter=parallelogramPerimeter;whiteSpace=wrap;html=1;" parent="A6Ks-Vfohcc06DCEBgYB-1" vertex="1">
          <mxGeometry x="250" y="390" width="120" height="60" as="geometry" />
        </mxCell>
        <mxCell id="bcFx4GBdsSPqpS9iQmqI-8" value="" style="shape=umlActor;verticalLabelPosition=bottom;labelBackgroundColor=#ffffff;verticalAlign=top;html=1;outlineConnect=0;" parent="A6Ks-Vfohcc06DCEBgYB-1" vertex="1">
          <mxGeometry x="560" y="490" width="20" height="30" as="geometry" />
        </mxCell>
        <mxCell id="bcFx4GBdsSPqpS9iQmqI-9" value="Ms. Mai &amp;amp; Nominees" style="shape=umlActor;verticalLabelPosition=bottom;labelBackgroundColor=#ffffff;verticalAlign=top;html=1;outlineConnect=0;" parent="A6Ks-Vfohcc06DCEBgYB-1" vertex="1">
          <mxGeometry x="540" y="480" width="20" height="40" as="geometry" />
        </mxCell>
        <mxCell id="nsRcYXiihCskzCQZcaVa-0" value="AN GIA" style="rounded=1;whiteSpace=wrap;html=1;labelBackgroundColor=none;fillColor=#f8cecc;strokeColor=#b85450;" parent="A6Ks-Vfohcc06DCEBgYB-1" vertex="1">
          <mxGeometry x="940" y="532" width="50" height="50" as="geometry" />
        </mxCell>
        <mxCell id="nsRcYXiihCskzCQZcaVa-1" value="USD 5.7M(20%)&lt;br&gt;普通株割合（50.01%）" style="endArrow=classic;html=1;exitX=0;exitY=0.5;exitDx=0;exitDy=0;entryX=1;entryY=0.5;entryDx=0;entryDy=0;" parent="A6Ks-Vfohcc06DCEBgYB-1" source="nsRcYXiihCskzCQZcaVa-0" target="bPnOsOk_GrwAUFt6FH5t-0" edge="1">
          <mxGeometry width="50" height="50" relative="1" as="geometry">
            <mxPoint x="927.5" y="477" as="sourcePoint" />
            <mxPoint x="885" y="592" as="targetPoint" />
          </mxGeometry>
        </mxCell>
        <mxCell id="ZHPk-c0xX-8uXCCwVkc5-1" value="契約_B" style="shape=flexArrow;endArrow=classic;startArrow=classic;html=1;fontColor=#000000;entryX=0.5;entryY=1;entryDx=0;entryDy=0;exitX=1;exitY=0;exitDx=0;exitDy=0;fontSize=17;" parent="A6Ks-Vfohcc06DCEBgYB-1" source="sRbBSXOT0Q6TaIx9QvP1-0" target="bcFx4GBdsSPqpS9iQmqI-7" edge="1">
          <mxGeometry width="50" height="50" relative="1" as="geometry">
            <mxPoint x="355.23685261400715" y="574.1407652620255" as="sourcePoint" />
            <mxPoint x="390" y="700" as="targetPoint" />
          </mxGeometry>
        </mxCell>
        <mxCell id="ZHPk-c0xX-8uXCCwVkc5-2" value="契約_A" style="shape=flexArrow;endArrow=classic;startArrow=classic;html=1;fontColor=#CC0066;entryX=0.45;entryY=1;entryDx=0;entryDy=0;entryPerimeter=0;fontSize=17;exitX=0;exitY=0;exitDx=0;exitDy=0;" parent="A6Ks-Vfohcc06DCEBgYB-1" source="sRbBSXOT0Q6TaIx9QvP1-0" target="bcFx4GBdsSPqpS9iQmqI-11" edge="1">
          <mxGeometry width="50" height="50" relative="1" as="geometry">
            <mxPoint x="362" y="677" as="sourcePoint" />
            <mxPoint x="560" y="567.1699999999998" as="targetPoint" />
          </mxGeometry>
        </mxCell>
        <mxCell id="ZHPk-c0xX-8uXCCwVkc5-3" value="NBB" style="rounded=1;whiteSpace=wrap;html=1;" parent="A6Ks-Vfohcc06DCEBgYB-1" vertex="1">
          <mxGeometry x="295" y="490" width="50" height="50" as="geometry" />
        </mxCell>
        <mxCell id="BudsHOE_EnJIHsYw3JiM-0" value="合計68地主" style="text;html=1;strokeColor=none;fillColor=none;align=center;verticalAlign=middle;whiteSpace=wrap;rounded=0;fontSize=14;" parent="A6Ks-Vfohcc06DCEBgYB-1" vertex="1">
          <mxGeometry x="376" y="241" width="103" height="20" as="geometry" />
        </mxCell>
        <mxCell id="BudsHOE_EnJIHsYw3JiM-6" value="" style="endArrow=none;dashed=1;html=1;" parent="A6Ks-Vfohcc06DCEBgYB-1" edge="1">
          <mxGeometry width="50" height="50" relative="1" as="geometry">
            <mxPoint x="757" y="430" as="sourcePoint" />
            <mxPoint x="1027.6666870117188" y="430" as="targetPoint" />
          </mxGeometry>
        </mxCell>
        <mxCell id="696SP7W1Lh6qheaLeqSp-1" value="" style="shape=image;verticalLabelPosition=bottom;labelBackgroundColor=#ffffff;verticalAlign=top;aspect=fixed;imageAspect=0;image=data:image/png,iVBORw0KGgoAAAANSUhEUgAAATMAAAA5CAYAAABatMyMAAAR6klEQVR4Ae1dy3HjOhBUKC8OxbBBvBMj2OvLgVfHsVU6OQVHoKq9bhh4NQB60BgMQFKWbckLV+3yB/TMNGaaAE3Jp9PpFOa/ycHMgZkDz5wDIQTRsVM4/fPv/Dc5mDkwc+A5c+B0Ei2bYjaFfN7IZg48eQ5sidnyGkJ4fXlOpZ532DluMwf+nhzYJWYyd3t9CSJs15f/GnJ6gnd++ROnfeH3r3BGUv18S+fCW1hwbm4bTucs4clnCTOnPz+nXTH78Stcs+Qc2dRC9xIuIYTLi2AV4YrCR8ezaGfRzhyYOXCXHHDFjO4qSXxCuPxMhJ9f3sL64984S0szriRaQQUKx1ie4vhPWH8mkaxELwun4OtMrqegg+Uu/NSunbajdq59xfkvrL8Vvezk6xWu9tmZpMTBXQb1nzw+xcs8o34JF/It+fwnjudRu1W8YodwGWtvu1v6HMV+T7zs39zfmdekI5/CWU/M3MKOxSGzrFzYMYEhVmX2dcL137/CKs/cstA1yUfFVpaiwKMi45lip2giWT9+hcvvvLQN1F9JfQnr61uedfJ12DTLaG9JrOe4fx7cn28q+kcGT3kZxaYxbCVSiQU3IPFFx5NsvLu4b+Z7K4Z/w+kDsN8d7+4x2BHfxLr/MrQnZihGFFoqDBGxP+HyKoKBYkbxsJiV4pZ2199vYYkigD5lsFFkZbYGvLot/CiiVzDgqxTA+hP9jTDFgv4VFhXGgq/YVOjA1Gt47jcSs2jf8WuYuMVfiD5sH9/S7NGJRfi5eueH/g3iuZHvXXF9JPat8c5+9xege3I6EjMIDU+gsH95TQ/yr5gJodjVuVRYUaQgAK9v8TlaEcIyYxiKmQpQWe66BZHFRAVIl75SkP+F9eUl3vHT88AsZoRdfKAChu8Qb3us8abZxJqX465/3Bb7P3+F9UcRNPaB+U/PHhP7POOq7KhvGzzxTA1xOUvTrh34fgvf5GOMpsmbzP0t2IMYCpflJlZxh5jm9rEFazQ+rph5BS5J+PstXPDcKN7hpQhNcthkjRkrszPZoSWq/HKAnpOVIi6FnUoX/zszPxtYLoAT+aAFGUUjCU4lZl5bxrXX9djELX1gn/sP9/8L62v6Ta8KcFXcNNOS8xiXqk0R3mMFC2wj6jKusFPdDIodFQHEq5yQiLp857GF/2IH+5anw9g0tm4MJl5rbx4/r4hh7Fwxw0XaLq9vukRTgYjXkST8EDiJXBKwEGT2VvXJxSIChgJsxYzEQosrhO1lphQd+ZSLZXnJr4coVsb3CpHiboRR25N/aI8CxPHWltsrLgkCxRH5U999YQeXPPNV4Wl8AUc2Dr6Z+HYUU/0HVhkfn2/C7okY/DyMzWJLdlSQ4aONl/vNfR1bjMMzbX0x42TAzGjPthUI6aVLJCeBUYBDMRNC3WI3yacFUJavqbBfwor341QQsq963D5jiwOrdm1sTlFgNrIzAXQ2ZqnV51oowCxw6mtHZNRXFkRvLKU/sEscaSzKTQvP8DBGcFPH6ha+/6n9qW5yzNtN2Bj3NoZygyvxPnXhMldzP80qfTEzIhHJQvLjYT4XTN0+Jn9+yTaKGS0nbfKioMt5JLtJOrdQa7v1Mg844gEVvwpCwYcP3usFzTWnP4oCr63geLwlgc3JWEQDvoHznWKmAmWFueCUGHEu20Jc7hLN8IziIcE5VSI15jvyouOJWI2NW7CHMZh4EcPcPv/yEmO4S8yQJPR8TIs82MIREUkJijZFqFLCpvPSBoJDya9FwUmOdmUZ4wqFeTUC9ksB8wyP8ZHoJhYtOPavtK1whSNn5un6GR9Us30UMsUZZ2fFVuRQx4H9Qd+81Tb1zablAtjJDxVSicGN29iRBDrKt7xnqBzV9huejmL/wKws50gTw4Y9FMTcPq+49cRMkxtrC03COqnrdm9hlY8w5WUSCsiKWZny17OmGguGaavLr9oHKQTYiq3hay7sZB/JTHiyS5iefV1SVUnuYMFm1a71s46dxZOEzLiYYqJfvjQ3kNZOxUfG43GoYhXfSQSD/ta55ocFp8JH7Hv4Ft8pPvYJ+Ddj//5TsE0MTbyb49RyCv/m9kG56YnZ4w6YX/S+6Dwo6bOQnvfuP8fuccfu+cRsCtTj3mjm2Myx+cIcmGL2heTPu/zj3uXn2Dzf2LCY0aOMuTsZmAxMBp6KAfm2bPmJX5v9VJ5PZycDk4HJADEwxYzImLuTgcnA8zIwxezuY3cN6/kUziu/gHAPI5ewnE5hkW+8/Oyf6xrOru13xNrFfGdwEfcc7k7/O92qux/g7d48PTpeTdSho76YXZbyp+fOa3l/J8KnwZDOp+aavEgkyd9JqExm7NtroyGM7VzX88BHBQlhGAu1C8meLxjki/Nn+Uqf1O6+YpaETDgrdtjvD9yn8Wpt3xjrEPMdsShuJ/feAb2v651zROM5Nu6Xhf9cXuLisizhciNeN/Z743UN7bvgi5k4qZmbC0mPRRvKzCMKCl0rwuElVJ38sa8nhtn3oZ1wCcugr4a/EYu2ixqcxJHD4euy7/mM5Bn1szjHj79wZiZc311IPwJz40Z6nPSbetw3R47wlNrWEwwILOrxCN6e8O+Nt8em38YVs+vlUs3E6sER50GMgNrj3jnnfJwxLfk7zqyDFtccX5Zds5RxLGTzuoZlvcQl4lCUxOdGRMW3IvCEesfdZGPo2x2t1VAfYfsjMB9DzOIN/W45spenLFqN3TSS13XJS++9eHUG9I/ujde3tHXFFbOmkxQwqqgp5kQiLqe+EiALXkGMs5hMuOzX/Uq7NiHYDu42Mp3uiSFh8S7HouevYV1kKc029GK908SfZ2uYueSpdx0X+0uip23pet2RbCNp0lYGjpey8YZDy98IcwgfQsBLFDxGgG3jp+KTm7yr102/2KaDqf2pTyeXtGmeOQon6d85rBd51JGOmQu53qPY5VCMDOMoXuje0RwZ4m/xlK1mDM4J9afaGeMd52CMV5n+4AMZW/kZvprBolPP0qRrSrqaRAnQFzO0HyVVRJXnYdVdxrOTlrynrq0YW/Ufx4ILlwW+Jhu9ZI/tJVG1aFA8WVBzQtWxGUwk7lqKTf2P1+ALvMM2JY2Kd/QjtzX94g2j8tFvB+S0RVLmI3nuokTANuMg9o44EBd+fB5miV1iQE6lAuvdtOq8SG2BU8dURKmOPB55HEr+bcbhYB3JkU38MU9qPdvUIdMLdmeAdxMHAzxr+oOPt8VMAiSG7iJmyxKWsxQDkq6Ncp+d1C+2JR9btHzGxBLPVstVIzwekCRNJbJlZpaKzy8gK4BuW3fJDicMrnsTyW3VR9tHjjucm0SuZ8YejoiYPQ9fsbXX2b53LQuj9SXPvCBuQI/bWMQkdFXfgY0KxDlQDuWah9PhMTY/mCNDfM92ewNJIt6ebyPbhxf77eLgAF7rzF3PbIiZFDclipiuApQTngBIgN5gS9tyPs0gDD7C22VHG+/4ZYATSwynzDBYcNzCceNPPpRYzODG4urE6CZxLyENbva99jO1iXFEwbV97DH4k20aR+DVNwjbD8fYMg7v2+t8zPvSh45l7Kv8qX1jC81N791ilvwoHBrfonHylZ3BfpO76UI3Rzj2Bt/assfZaOSslztwTLa2vz0ubfZxYPvbY7b9sfvir/y4y8yy/CInmuIU54tApZbeOTx74LaddgKyyw78uoRlY2bmxoLuuk1FM4QaJqrEZgYzxtFLMtO2STR1zElC9jXtV0vQw2IGziHuLMA9P+159lf27XU+5n3TtuGMY61tpBkJ+Rr7IscGNmoYFfOWQ+Nb7GdxDdjRHLmVp8pszgGzatAmugKxvvNxL48Ehdvxce+8Wv60na6YSZJURa1kbLyaEV2XAJFQHEsKHHf/OMsbPMBvnptUDhXcLaEaxVJQZK9fNGjXzATkQr4rpmdMdnBNguT2iQPb1h7DauxUvx4RbeYi5n34I0ndiMIGfq8Qdicy++v4XOFYX/jYFGaMgwSLzeQY9fmeI2bItyR8nRtLl0P5tRD75sXFDuXHDpbLYY6M8EfXart4Jmgfg8T81NoZ4N3EwQDPuPfRh66Ypekw7tDYcjKhQPHbLnITycW/SaLLSni8zoJnEjj26dgZ2qhxtmOpnBu8mkG+VA/XMz8xWbiNExv6uW1TUsSpvXsjKM/mUhseD+6L8eKt+MJt2DfEz76XvsuFz1sctNvC6/WT/vYasLb8hd90MxF+z+f8W8yEAwETzs7rGm8IOvsiCMw8EreIS/DwfHfkK4CYK8IYjjv3sVwwhr0GnmAbW+Yt91chG9my+GR7yAHa2f49/+Dn/bcydvLjLjPvb24iPi4Dl7DazwDJTUML4XE9n55NBoSBKWYzDyIDcQZrhKtZnk+uJgMPzMAUswcenM91rV2e4FnT5/oxrU0GbmNgitltvM1ek4HJwIMxMMXswQZkujMZmAzcxsAUs9t4m70mA5OBB2NgitmDDch0ZzIwGbiNgSlmt/E2e00GJgMPxsAUs3sPSH6h17zlcG8rNd5X2Kw9+LyjGOveFzLTS6Lzt7KfNzxfaakvZvj4RXyr+jG/NjsSlwu5/mCypZTefLYfM+GmG1j8NrkQZ/+dl6X+Di3G/qh99bnzMZ2PsvsVuBrrFLOvoP/RbfpiJkmjU4v8/pEeb3w2U0XQS7j6ThnFYSAuW5/NTOLi2alp38KR1nuwpI3SEAuLPlJ0WfL3byW+tF3tyv2O6LOy+CjOh9u8n/e3I0Xet8f8dgOz57My4IrZ+KumpVg5meyxUOGdc87bD7ZWLFoMczzsy0Cmn+fbTqzrupav+LZiFvBxILH30bOkdFMo4vUZNpnTL9yfYvaF5D+2aVfMGpel2FE5sl/NpmxhSW8rIAUxfmwm95d9wJYWeW9oJ9tcyre+3oYjtg5gsZONmOEihCXhxqVo5Rydr24KmB2W5WvVDfDRbmmTxsKxqR+4zhxTP8ZNM9KCF6/lttWHzLkTfMnbOKa67Hb+CpBj27VrcMthii9yGe3wzbTPJ77UYOB6MTH3np6BXWLGohOT0BGz+iFrX8wgHmJ4lGRDO3kmJd90Kj+pMDjBy7gMcaTZAayCGo2Gs/v1RSi87E8s5OKbcAmukt95qeq0q28abB3ihXM9m6adilTu59lUURKB82OA1bgVDBrIMnsd2PbsVjnFFpJY1Zzt5TOJNLnHwHP/mzGwLWZNsu75bn5J5JJwNWfyx0PwtSq9NlmgqgQvSd0KlCkcMti2LTjSrL3exyJY6TgUs1JAhGeKGM+6UKgVfjMz5auEGU/3jnvnGYv21abXrzNWMSb+ewHA8zA6NzC1i760zTcb/dvHzCHvxy7JZuHT+kC4c/fbMbAhZlL49JBbwm8SL4lDKd7YqCNm0rYURVqeGHxQPLDTClAtUICI2wGOXD+ExcCxkDzfbQHRcSzMEj9mqaX4xEBqLwNzdGZWxgA2sYXj9rg+X2zadvYY/fIWgiY+qxO2jz2WvulcsWtwvfFhAdvk07PZ2phnvgcDQzFzv8G1KWJJGC5QIcY7h6UZt+20E4iRnZjELCSeoOYBGuFEV+W5206sDBk3DS4u2gKi49iHZyfsd9pXXxoRBr5sCTOe7h33zgOrZ3OrH/qbbY4vifMIo2fX4EHMeHyijZxDQz4Fy/rQ4s8z34eBrpjJjEVvsjEvyh/dbZ77VA1jY0fgcL48M8LzKl1CGF77dnIxwO6w8DdeJcm/ANAZxQaWushFpSdLjHCtLqjsN5bPESMLqRVo+HGVr222P7ZIe8fpPGZ+cRbKzyq7NmUJzaJr8cmf6xpWGkCxwWLm2u7adWLNgqXjU/E+4DO6OPCbQpi734MBV8zS8q/8hisuA/juCAHwlkJIvvwguRR1Jqy6zrM0k5ixeT7n2eEliucbBGMTRxqkpG/jzD6bjeUHBYtlY8KR2BgXsXrnrA/EfRVHcUR9GH6l8Tksy1lf7m2/Npp9IZt57PpfaV38wG8MU8y8zMxL+IxV2+7Y7cSabnrZP/0t7RaflDvNyoH8n7vfhgHJQfmZX5v9bYZ0BjIZ+DsZmGL2d477jHoy8O0YmGL27YZ0BjQZ+DsZqMRMDua/ycHMgZkDz5oDIuPpydnfKegz6snAZOAbMfA/99UuWffXkWsAAAAASUVORK5CYII=;" vertex="1" parent="A6Ks-Vfohcc06DCEBgYB-1">
          <mxGeometry x="443.0041493443082" y="32.002724434988906" width="307" height="57" as="geometry" />
        </mxCell>
        <mxCell id="696SP7W1Lh6qheaLeqSp-2" value="" style="shape=image;verticalLabelPosition=bottom;labelBackgroundColor=#ffffff;verticalAlign=top;aspect=fixed;imageAspect=0;image=data:image/png,iVBORw0KGgoAAAANSUhEUgAAAjgAAADhCAYAAADF2884AAAgAElEQVR4Ae1dy5ErOa4tU8YO2fCMmJUseNvng7Ztx0TUalwYCypitm1GviCJQwIg+JFKqpJ0T0fcTiY/+ByAAJJSKT8+Pj4O/iMG9AH6AH2APkAfoA+8iw8cx5Fqm4/j4x//5D9iQB+gD9AH6AP0AfrA6/vAx0eqb1jgsLhjcUsfoA/QB+gD9IE38gEWOG9kTD5xvP4TB21IG9IH6AP0gfv4wKrAOf87n/Acx3//dZxuAf1//5MJfP31f01g6buZ5i1ycE3Dn1gQC/oAfYA+QB94dx/YLnCkzpldTBGTgfvr+Pzv38fX8Z/j8te/jrOAWYqmv4/L//7fbUXTuxtF6Xf662+B/O/j8j+PO226js//HZf/ili3Fr5KRx4JP86uxJbY0gfoA3+sD4QFzv/86/iaVTL//uuoRcr//HV85rn/qQXMxz/+ygVN6U+JGQkxtf86Pv/9n+Pz338tq+eWdBODaxI8+BUlfOFl6R6HHbdrKwxVXj2udVb9de5qY6k1lZGVp8l6jf6er+YT07mOj6K3XeDAT5Sirvn17//M/S7P/89xXvkn5rGIWu6xPzbw0TfoG/SB9/eBsMBRhq8fUdVklJJ6SnB/H1//TW0kLp3s/3nUhJkSID6SqjQGDZMsVRKV6bYQ8Ulc37u123Shy6E+kvN9mrbWWfXvFDg6SUM+3bdDQ9lpnqiUbFcVihpT3Vb0IPtSlobjvh2Fp8Ll83+1HK69O28pq6PL+e8fCGlj2pg+8H4+MCpwaoEyqEVSd0lUKdmh2LGJwRRHOWHLR1YuKYKXSXxRUeTWjZO6SsBZfnVqoZIgVAPfJq8uXP55fChZvv76q308c+h5iudGcdJ4Kdn+oQrD4zhSMgc27QSrFQqQP1+nPJVsgwLH8tHzDZfjyHwm40MbNbmB99h+2o921+3O07TZ3rMBcSJO9AH6wAv6wKjAgTFbItaJ7u/j69/40nFKdnGBk2ic/vpX+bgqf1n57/zxVPrI6qS+T4LkqhNf5fvffx0XfNFZkj5kG1/7BAza4KW1yWO68OmSdEuex3//c3zi+ye3FjhTXtaJmrypEGpyQB9bfKkvcpunEY2HLaiAoeWj5x+5qGnjqfDqx7Uc8SlLk11jn9sd3sBA8RnOSXN354Eur7A7r/QF+gB94G19ICxwdALW2Sh9d0bfq3ZNuEis6tRDTcvfpflCgSCnDkiejUZLhrlP05qeVMBRVcID85wgg36cRE15NHnSSUqV/x4FzkIfYNNOcKCjXJWtGn5uji4Arj7BkVMqwyc4xTLjUaGlMSynU+m7WtqffGG01F18bXfe225i7Dle3++InTalTekDt/tAWOAkQPMpS/srp3qikgsGfYLjk6n6SOfff9WPWFLyLYmonCAgKbV+fOS1+lhGfywU8M7OoAqZsChLf9WFv04Svr9c4AAP1GPpqrFpBY7STU9GoRZuBr3myhMcnJyYAkYVOOF4VOCMbKWLHG1b1Q8eoW6780b82c/Cjz5AH6APvKUPDAucKJkgyZlTB5Vg9IkG5pokPE+u5QRCJ2OzuN74J/3eMIpG/Yuvurz7yCXz1fJ2CVXp+OiPqJQcXYHzv/qv26KTlVFhofC49gQHWBi5VgXOv8zJTEXe+A0CykA2VXAWv8B8d92dF/kz+25/MiJ2xI4+QB94dh+ICxyV0Gt22mmoAkYlnrSyfDk3/q4OTi98oWEKGZVg1z8QqJJmSqpOlkQXPItspTBop1T6JEGdSMkpSZun9FUfA00TsjhETKOXq8n593H5q/xoYpK5YqNwGfNVePxIgTMqtFxxkrHQsjXcGz5K12Az7c7ri+BIFvYRJ/oAfYA+8DY+EBc4kYFR9KjfIQmfyMvac/6tm/ZRUEq+SNY1ObtkbwuPluwK2DoR6sIiklXNzTJC9lQaFLqQRRc4H6pYqEVU1KcLJmBQ+1ayibwRXd0XfUSlT3DyyYrWq33E1zunwuO3CpyKT/nSMmTUBUor0NbyXu8TkZ+wD3bglb5AH6APvJ0PbBU4NfGqomOQsApA5Yf+LqqoacmrOJFObKnIKIWHStgoHPRT+5Sndk6VIIVO5Sf3YYHTnSgUydL/vfz+VKjM3Cxuqk5K38aqtnRR2L6DM1kTYTbRCYx6Pgq/mz6iGp3gjGW3Ra+ep3yu4gZb787DfF7fLoB1PkEb08b0AfqA+MCowNEFQE6ESHQ+oOiio56OlD8NT69mAJ2uQPjHP+XXkBP1WRKjs9JZ6QP0AfoAfYA+QB+40gdGBc7zAqmf2nEGYa9RMfVz+jy7fFc6iC9oec8vFtIH6AP0AfrAK/jA6xU4TNA/V6wRa2JNH6AP0AfoAy/qAyxwXtRwr1A9U0Y+5dEH6AP0AfrAb/mAKXA+Po4P/iMG9AH6AH2APkAfoA+8gQ+kL7B8pMKG/xEBIkAEiAARIAJE4B0QQF3DAucdrEkdiAARIAJEgAgQgYwACxw6AhEgAkSACBABIvB2CLDAeTuTUiEiQASIABEgAkSABQ59gAgQASJABIgAEXg7BFjgvJ1JqRAROI6vy+n4OF2Orx0wPs/7c9OLXs/pry3P8Rvjd/hxDhEgAkTgBxCYFjglkLU/HT9/BhKl4Kj+lOx0GYfUUWD0fJaBecnz67icmtxJvlB2pY6Xwcz/uhwnpaPWd4f2cfTygEbh83mcM/1F0ljoPdVB6TqW53T05lOydwkTcrt1Wc6FLh2mer7w7Pj5fn9vlEypWHCdyTeiEfWDHnzL0fXs9X2nL2ikq+g+nfNxnC+bfpjpxLLFe7Doanxey+7aMQ03ibdEgAgQgV9GIOXZ9F/3V1RdEJPkaoKg75MA3Rc5OjGsEhnm6nkKpSXPYL2s6eUqdLd0VSKUpiRAA0g3STqiZIkn4VR8BTJ7Ugu9r9Mhkkf6kGzBX5LlKReMPmlC7o/jQ+OQZR3YL9EVXfSaIj/oR/Klhb7f30NoXHfkG9Fw/Sg+lJ75lGSjeM7SyHq1HEIuriLHcGE/nrHs5issvI0Tslec+HS+ttCAw0SACBCB30AgLnDCQsUFfDwdu0Dqg19JAinZyXodXEM+Emw/kOw0LBKkZzx9ISDLvVyVaiiD17XOro2mV+2aNAb0hPfH+bw4wVnofbUOsTxFJ4t7TXyCqy0Si1znczrFU+umBU7gBxk5rWMs360Fzly+HV4jmUf9gSuIjZzrBhNt18rP+nGxiTptbXMm8mb5lA21GPDTdMp4/gw+ogJdOZUanbzVU9BJ8av5sk0EiAAR+AYCcYETEkQQk+AUJjwUJ9FHQm595iFJzTwFS18XJNuTv02yjue0wInkipSNZFXzrk5WQs/rhMSxKnCuxjrJOtMhkmfcV/CO7IJkWtZWu8wKnKqzysAK2tKMZFE6VRxH80BwR74RDdU/kbkUzht+BZ/JxWD7eGpa8GDNCKpofIb91CeAFbDDVeGQusQX68dquUt9zAYe3kbqwSZjVsfBh1ciQASIwH0R2C9wEOQRmCTQdQFa+muyq/JKoFSBLg/VgNmCfr9WiGzxlESs+UB2U0hVwfoG5kNXM8MFfDM2uonXtOQYyKxJbemtF+TPHMr3hmY61Cdqwd4bM+PQnuqLvO0e33HJy7KMuvgdPKWLLkMbZzXgK80nkqPWf1WnGNeGhEraQ/k2eE1kLqcj+wWOPunC2vg7Zyvd4vFMs+LTkCgt6BrZpox1dhHdtWsUPxAaslfMOr0mGvdi8Z4IEAEi8AAENgscJGAVyHUQ04INk8EguKKY0AkstaMgvc2zyZuTYqI1Wqtlz+22Vgf1Ou2mgA3dVZIWfQsP8IwST3tq7uQZYg16yl5VgdQQeQzGkLHJYBJZWtbxK3yKXGV9TnR5XqNjWHc0wBfYpHWRfJHco3nguCPfiIbq72QGfXd62Lq3WyhyTIGQVq/8bDCebWbsqkURnXTxr4bzWudkRT5d1OK7Y2JfwcYsU7JBPzOueLJJBIgAEXgUAhsFTkuWJggPgv44oAXBNaQx4JcQCOfvJZkoUPegTnjL5JL0R4VDT7H0qGQZTgHf3aJAqKYvhnanUqD1cTR7tb5c8H2cjvylYZ8IDb5+DQoQXXyWOTV55fXn4xPXSFdJfvoLxpjWCqoRXr7f34MSrjvyjWio/qXM1/oD5Gs+7fFY+dloPPd7u1Z2ohMLnIoIG0SACLwvAvMCRxKePlZvUEgCrNmtjLQk1WaWVh9ch0WHSbSazrU8sVYlK3T561RXTIYO9okWo+Prir/oNUg8+CgoToKqKNrSIUk5kEfjLm1nXvmCKRK6KyCE7umUCi8llwEGGPpxjcFAvk7u0Tww3JFvREP3S7vTadQP/usrHghaMZrWgO7Iz8bjmd5NBU6haeVoBZj2A7PH1WlN1Vb7jozr9XUeG0SACBCBByIwLHDwhOiTqpalK1CiYFcXICirxIaEbKIf5iG4y70E7TVPOz+xRxJpbOycHV2LGjoJV8U2GpZfv2BNd6X3vg6JeySP9MlfQ2V6UaI0NvMFREuI4wJHzWkGqYVTWRfJF8k9mgeEd+Qb0XD9Ru9CH5grNcC4u8IHTQGBk6GucFr5w2Q8y6n2mJFEdOr4pUkaK6278IIvfF2OsytgCw7gqdcmuv5ePuICPSMfb4gAESAC90MgLnAQzP33YvI9Co8iBAJ3+ehDfyySxhGI1ccbmmYKcjXI6zkIlolGHyDnPNWaysvKbGheoSu+FxF+P6jAMfh/r4OdOMDJJYGh3tfokBmLPBWfhn1J1kUek4yrwJA12ai0bYIHbW3Durg1vN2zroleWjfCy/f7+0a+tHbkG9EI+r3M+k/jPevovluvP+5TCzDP2b/OmI57ncs99md3BY9ME/vE6Q5+yV9Ol+MzfzSq7Svz4U+g2QS2P7zZjdeJbBABIkAE7oZAXODcjTwJEQEi8NMI5BMVW3UuRcjFMwuPJU6cQASIwOsgwALn27aaPyHHpyDfZkoCT4fAM/lBkgWnMTtAlROYK2uiHcKcQwSIABH4NQRY4Pwa9GRMBB6IQPrYcvdE5pq5DxSZpIkAESAC90SABc490SQtIkAEiAARIAJE4CkQYIHzFGagEESACBABIkAEiMA9EWCBc080SYsIEAEiQASIABF4CgRY4DyFGSgEESACRIAIEAEicE8EWODcE03SIgJEgAgQASJABJ4CARY4T2EGCkEEiAARIAJEgAjcEwEWOPdEk7SIwJMjYF+r8OTCUjwiQASIwDcQmBY4eNdOmpT+hT8E5l4TMPthu1Fw9XyWv9+x5Ol+On4kuwLOy2B01T9Vj5+jV1czV9FszV4eiyl+JE7//H1bXVsLvac6VCKpMZIn+nE4Nbf7XRXI7dZlORe6dJjq+cKz4+f7/b1RUr0qZCbfiEbUD33xagtH17PX952+oJGuovt0zsdxvlyOk/I7+BCuaz+U90CBn5aPbSJABIjAmyGQYmP67wMN6NcVI5JcTRD1fRKg+yJHJ4ZVIsNcPQ9StRc1Vjk6nsF6kbOXq9Dd0lWJUJqSAKsg3QTVESVLJJtUOAYyq9W5ucD6Oh0ieaTPJ7+M7+k4nVIi9gkdcn8c5qWsWdaB/ZIyooteU+QH/Ui+tND3+/sOtOOMgkDbycg3ouH6UXwoOng3mOryArR7Wb81t61qOg8XipzDcUNMXmo6sY2dzjsiQASIwMsigLrGFjhd0ZD0cwEfL9J0gdUn2pIEUkCV9TqBhnzw9m8kO42tJNQZT18IyHIvV6UayuB1rbNro+lVuyaNAT3h/XE+SyIeJZ6F3lfrEMtTdLK45750kiK42iKxyHU+n23xYwoID0vgB3mK1jGWr/fB0Tzw3JFvREP3S1v7bmYx6gd/dRUbOddVE+Lmys9W4/UFsanQO38GBQ50kBOl0akZCsUOg1hu9hIBIkAEfhuBuMAJpUIglCQcJjwUJ9HHWW595iFJzXyEJH1doG1P/jbJOp7TAieSK1I2klXNuzpZCT2v026BczXWSdaZDpE8476Cd2QXKSA+y9pql1mBU3X+VID6ZiSL0qniOJoHejvyjWio/onMpXDe8Cv4TC4G28dT04IHa0ZQrcbhA8BL/Kh+JJa3lPqIzM/HvSpqsr6gB5h5JQJEgAg8IQL7BQ6CPILboJDAxw812VWlJWGoYJmHatBtQb9fK0S2eEoi1nwguymkqmB9A/Ohq5mhEp/pn93Ea1pyDGTW5Lb01gtSfSPf15jpUJ/KBXufbTONdqJT5G33h5zi5WVZRl38Dk6jRJehjbMa8JXmE8lR67+qU4xrQwIFDorjSL4NXhOZywnKfoGjP+bD2vg7ZyvdVuPQ2cpWbCg4iI8YW2hfi8YbuGwRASJABJ4agc0CBwlYBUsdCLWKw2SAROISHxKxTmCpXZOYIr7Ns8mbk2KiNVqryJdmW+vzfR6/KehDd5WkRd/CAzwdNpBtJPsQa9BT9gKtosRxSd+pMRhDxiaDSYZpXcev8Ck6lPU5WeZ5jY5h3dEAX2CT1kmfkS9R8f3+3nBKAueP/ubyjWio/k7mxgdFSugrbdqwhfWmyEizV362Gs8kTvajw2zChLPYRvQysiu6kM2MDzXhABEgAkTguRDYKHBasjRBeBD0x0FREgaCa8IhpDHgN5zvPqIa4Fvk0qcP0cQJb5neTl2i9aM+lSzDKeC7WxQUIjHWoPVxNHu1vnIKIl8a9gWEsYdfgwJEF0ZlTk2Aef35+MQ10lUSqP6CMaa1gmqEl+/396CE6458IxqqfynzqJCEHJOrYO7xWPnZajxxjHy+Ydz2X7VfWZT/Uiv5TuxfE104RASIABF4IgTmBQ6Cb/fXM0kDSYAmOuIvg6JELQlDFThRAM7YCN+WoIHYtTyxTiUrdPnrVFdMhg6rQgnzcV3xF70UNlhZrpt6b+mQKA7k0bhL25lXvqSKhF7kanMK3dMpnRxEPqB4d+Mag4F8ndyjeUBvR74RDd0v7U7mUT/4r68oIqyvg+7Iz1bjwjewoSlw1GlNlVSvkfFm3zqLDSJABIjA0yMwLHDwhOifLLVGXYESBcy6AEFZJT4JppYH5iG4y72cNqx52vmJPZJIC9R2zo6uRQ2dhKtiGw3Lr1+wprvSe1+HxD2SR/qkmM30/AlPWmps5gsINd4VA0prQ6P0V/nzuki+SO7RPPDakW9Ew/VPZG5+Bb79FT5oChmcDHVYrfxhNq7llnmw49flOLvis+COPanXRnjLAwzo9WqyhwgQASLwNAjEBQ6Cuf9eTL5H4VF0QOAuH33oj0XSOAKx+nhD00yBsgZ5PQcBN9HwQbcVLDFPtabysjIbmlfoiu9F2O+uFBzm/+91sPMHOLlEMsT6Gh0yY5Gn4tOwL8m6yGOScRUYsiYblbZN8KCtbVgXt4a3e9Y10UvrRnj5fn/fyJfWjnwjGkG/lzk82fQyqPtuvf64L5jn7F9ngE447uTG3GTr0+X4vPjTNZkPX+horsarVGwQASJABJ4KgbjAeSoRKQwRIAJEgAgQASJABK5DgAXOdXgFs3Gi0U5BcLKUrvEpSECGXS+OAP3gxQ1I8YkAEXgzBFjgvJlBqQ4RIAJEgAgQASKQ30GVYbCvaiAyRIAIEAEiQASIABF4YQR4gvPCxqPoRIAIEAEiQASIQIwAC5wYF/YSASJABIgAESACL4wAC5wXNh5FJwJEgAgQASJABGIEWODEuLCXCBABIkAEiAAReGEEWOC8sPEoOhEgAkSACBABIhAjwAInxoW9ROAtEbCvZnhLFakUESACRCAjMC1w2vuByo/Y2Z/kFwTdawJmP2w3Cq6ez/JVCDOe+qfp8fPz6rqjQwLFvh/rel2tf7mfu+/kwY/ELV5vMNNbMRzh3KaM5PGvtEgr1NzuZ/wht1uX5Vzo0tlJzxeeHT/f7++bhqW1I9+IRtQPevhRR6e3Z6/vO31BI11F9+mcj+N8ueQ3fWf/VD6E+9C3tQz5VWGKnxvjLREgAkTgnRAYFjhdkpTkaoKo75MA3Rc5OjGsEhnm6nkK8m2eag2StBG+jOP9TmYIiUZ33sQXMkTJEm9eT2/mXuicyGzxB51VEovkkT4k2yp6Sqqn43RKNH1CV/w6rAb2U7roIrL4G+hH8qWFvt/fQ2hcd+Qb0XD9gU+EvgPW/irrNUx+SnwvcgwXrsYt1W5f22HeEQEiQATeBoG4wAkLFRfw8SJNF3h9AC1JICU7Wa8TaMgHL9NEstNYS8Ja8NQrUrvJ4EeO4+vrq+/snnRv49sIe+xkpCbN83HOT+SjomDNv+kY4NwEAePjkgoWd0JSaFjcc1+aJwWWLV6LXOfz2RY/ee5Il5F8WscBXvChKvdoHhTekW9EQ/dLW/tuZjHqB391vbHAaXZVtFRzNV5fECunkn5/1qIRJ0IVWzCBjqnAXRXOWMMrESACROD3EYgLnFAuBDpJXGHCQzGRTiU8Ebc+D0tS+9Dzpa8LtO0UwybZGc9c3eRj/V4eL5+6r4WHKHG1ropWboruXqfKZ1HgXMU/wnlHnkjG0lfwjuwiBcSnngc7DQqcqnPnIErISJY07Pv9vSKRmzvyjWio/onMpWDQ/utlkHuhUYpBFAuLdVgzgmo17vESP6ofiXWFvNI5iy33qrDL+no/HqjMbiJABIjAbyKwX+AgyCO4SbDsCodBMq7JSQXLrHgNui3o+wKmAnQrT8hcCUUNSeDyJGtkuJqvp+8TRxlvyRG8B0XBVfz7pOSlabZomOenc2/MbPN2olPkbfeHnOLlZVlGXfzOdTH4dgJCBydfd8oQ49rIocBxRZeWFUUAaPtr8h3BP5K5nKAsCpUkEPaP+pgPa/1JWpF/pdtqHDpb2YoNxTYik9FL+1o03sBliwgQASLw1AhsFjhIwCpY6kCoVRwmAyQtl/hq4HfJLCpKruV5a4CGTJDhWr4aj9yG7k7HenIFfB02oHMVf/Aa0NLyQD/dpwpQkwzTnM62qoCQQiEnyzxvwL+jAXmBTVonfUa+JIDv9/dZEfW/HflGNFR/J3NjgSLF14ZtxryF9abISEtWvrsazyRO9qNDf2IjehnZFV3IZsbn6nCUCBABIvA0CGwUOEi+H4cJwoOgPw6KkjBUAu0TZsJlwC8Ppe96ODlqIFfFl8DbTkiux9usvVpXz08lSz+U76HzblFQiMRYBzgrTPNJDb407AsIoydkQuGhrnVdmVMTYF5/Pj5xjXRF8VgXtUmtoBrh5fv9faNVWjvyjWio/qXMve95SYb3grn+wnWaa/wvWLwaT0uKf+gTN9AVPxPexhQscAK02UUEiMArIjAvcBB81bF6U1ISoImOLoC2ySncli+2qgInCsB5ifA1BVUZKF/G3eIJfjbAG5EmNyWBYO21unrCKln6oXwv9BU2dto1/KH3oFjKhAfyaNyj5Ncl3iJXM0ehezqlk4MR/5F8GoOBfPChWmCN5gG9HflGNHS/tDudRv3gv76iSLW+DrrwP09nNS7zAxu2IjJXQPn7aYa3XiPFTrOvl4P3RIAIEIHnRWBY4OAJ0T9ZalW6AkU9/el5pY2grBKfBFPLA/MQ3OVekto+T50wvTSN5uVcTiZMEIdcNZEGT8NTXcf8Bn+ztfgrqmv4Az+FsxenKxTSBKwruGf7K/0rCWCTAfMFRK6A1n9tY2gUytXfchHR7GPx8v3+vkopjR35RjRc/0Rm4zteBLkPCxnxob4YnPluIjgb13LLPNjx63KcXfFpCh74AOZ39/IAU8cHyrKbCBABIvAECMQFDoK5/8JlvkfhUaRH4C4fffiPjxCI1ccbmmYKlDXI6zk6OeuAvcNTUAXdMBg7mpG+Qdaa6zqzpuPXTR3g5GQf8x+sB9aOTitmNOa60Cv0zJN9lRm8ko1K20IlunanHZVAacA+RsZEL9Ed4eX7/b3jsSXfiEbQ72UOTza9DOq+W9//qX6ejXmd3YTWdNzJjbkJ59Pl+Lz40zWZb+ygZIYthuN6LttEgAgQgedBIC5wnkc+SkIEiAARIAJEgAgQgasRYIFzNWR+AU40+tOQBG58CuJp8P71EaAfvL4NqQERIALvhAALnHeyJnUhAkSACBABIkAEMgIscOgIRIAIEAEiQASIwNshwALn7UxKhYgAESACRIAIEAEWOPQBIkAEiAARIAJE4O0QYIHzdialQkSACBABIkAEiAALHPoAESACRIAIEAEi8HYIsMB5O5NSISJABIgAESACRIAFDn2ACBABIkAEiAAReDsEWOC8nUmpEBGQd5eNXvXgAUqvKtmdW1+4ql+n4gnynggQASLw+whMC5z2AkT9niIntHuP0+yXe+2L/Rodz2cZbGc89bt38P4cdbXvTRIZHL0Ein0BaDxvpmvTLrXc+346efAruIuk4eQc8R/h3GQayWPfM1bmq7ldEoTcbl2Wc6FLZyc9X3h2/Hy/v28altaOfCMaUT/o4Vernd6evb7v9AWNdBXdp3M+jvPlkt/+nf1T+RDuq29nOrFssW8UXet6LXfQjmkEE9lFBIgAEfhFBIYFThfEJLmaIOj7JED3iVcnhlUiw1w9TyG0zVOtQYFhhC/jeIGlGUKi0Z038YUMUbKUNzN/fBznz4XOicwWf9BRSRMimGskj/Qh2WK+JMvTKdH0SVPx67Aa2E/poovI4m+gH8mXFvp+fw+hcd2Rb0TD9Qc+EfoOWPurrNcw+SnxvcgxXNiPZyy7+QoLb+OEbHoJZ1dQxhJ1sSGexl4iQASIwK8iEBc4EoxtoeICvrypWSeppIkPfiUJpGQn63VwDflIsO2SaaZ+nIPTFc/TI9pk8CPH8fX11Xd2ekhycEljxbcR9tjJSE2a56KXxqYtTtIs9W46BjgbWukmlqfQQJFRFuW+lPikwLI+UeQ6n8+2+MlzRwXOSD6tYyxfL/doHhTekW9EQ/dLu7PPqB/81fXGAqfZVdFSzX5cdP5sk9qcibxZPmv7SgF+Knuv93vQlVOprlBy4x2OlRMbRMj/wtkAACAASURBVIAIEIG7IRAXOCF5BClJXGHCQ3GSTiU8Ebc+D0tSy6cYmC99XZBspxg2yc545kfTfKzfywN+wRUBHYuu1tXTFN29TpXPosC5in+E8448kYylr+Ad2QXJVM+DnQYFTtW5cxAlZCRLGvb9/l6RyM0d+UY0VP9E5pLsI393sgiNUgxKIWD83s1Pt1gzgioav6m4TMyAlZdD4ZCnpWLWnhDagsfNh81UUZPn+73g2fKeCBABIvBNBPYLHAR5BCZJuqgBqhyDZFyTkwp0eY3ML0GzBH5fwHjaV/OEzJVQ1JAELt9tMDJcraun74N+GW/JEbwHRcFV/IWXx9mIhDkt0Wb8PbDZ5u2pvsjb7k1SzDLq4neui8HXyJZuBvKJbdpHKTGujZxK2kP5NngJ/pHM5XRkv8DRH/NhbdOnSV4xGPpurHumuVoT+kah1+kY+J4paCQumHV6TTSu1WSbCBABIvAgBDYLHCRgFch1ENPCDZMBEolLfCickLxwjYL0tTxvDa6QCTJcy1fjkdvQ3RUU9Qke+DpsQOcq/uA1oKXlgX66TyU/k8jSnM62qoCQoiQnujxvwL+jAXmBTVonfUa+JIDv9/dZEfW/HflGNFR/J3NjgSLF14ZtxryF9aZASEtWvjsYzzbrcIMMopOyMUbSNa91ihT5dFHrPoYWbMwyJRv0M+OaKdtEgAgQgQchsFHgIPl+HCYID4L+OKAFwTWkMeCXAAjnjz+iKglaFWVXgGjWXsm3Z6OSZT9YPx6of03j51zFP8AZ3+FB8fhxOvKXhn0iNHyaHfTpWm7XdbqAgH3Ox2emMyhwUDwGGa9g/qgCZyTfyDaqfynzbT6WzSyYx99lG9M1/qn8JfdX+6iB3Ix8o83Ja51dWOA0fNgiAkTgtRCYFzgIvnf5wm8fXKPgmeEziVYDKknXBeGWGPVc8LNPn3rGrF1oYu01fCOqKllGw7UAGRQFGL9K7xGtJMBAHo27tB1L+RI5Eq8rcHCKczq1P33u9IVdvHyCcT5dGMjXyT2aB6Y78o1o6H5pdycfo37wX1/xQGAeHqBnuO8STfCFfzY+md5NBU6haeVAUQh7Fz5mv6nTmiqF9h0Z935U57JBBIgAEXgQAsMCpwSxwe/BiDBdgRIFuyo4grJKbBII7dMr5iF4y70E7X2eOmFWISD5cUl/9ny6HJdz+WjEBGDIpRLFPl/PK91bHfoZM1nL7H3+wE/h3DGM5MG6gnu2v9K/kgA2GTBfQLSEODyNSoQMjUK5+ttDCxzFuxYrERZJJtc/kdn4TgXKNor93CkoToaqLFiz8ofJeJZzZHvYOBrXttS6Cy/4wtflOLsC1hQ8HrfuXj7iAj2ozCsRIAJE4M4IxAUOgnn9SAPfj0hXFB5FEgTu/NHFhwvgOHkI6ZQC46sGec1DB2AdbHd4CkKgGwZSRzPSN8hac11nlnH8uqlIWBoDwUfNHfMfrAfuHQYiD8bVtahd6HVP81kW8Eo2Km0LFWhrGyol0IR9wDvLmOildSO8fL+/B3Fcd+Qb0Qj6vcxuL4Dr8Nqt722c12JeZzehPB33Opd77M/uCh6ZJva20x38kq1Ol+Mz/WaOKcpkvrGlRmE1rueyTQSIABG4DwJxgXMf2qRCBIjALyCQT1Rs1bmUIhfPKHaWszmBCBABIvD8CLDA+baN5k/I8SnIt5mSwNMh8Ex+kGTBacwOUOWE5cqaaIcw5xABIkAEfg0BFji/Bj0ZE4EHIpA+dt09kblm7gNFJmkiQASIwD0RYIFzTzRJiwgQASJABIgAEXgKBFjgPIUZKAQRIAJEgAgQASJwTwRY4NwTTdIiAkSACBABIkAEngIBFjhPYQYKQQSIABEgAkSACNwTARY490STtIgAESACRIAIEIGnQIAFzlOYgUIQASJABIgAESAC90SABc490byZlvyGyt1+iMT9Eu3NcnHheyLwSP+4hva9/d5ay75CIo2JbPKLzF92Ou+IABF4MwSmBU57P1B5hUCYf91rDmY/bNcHnIKm57P8/Y4Nno+gCduP9MB4f1WBFT9nL9eC6b0D/TVJppf2R3tWtnTjyWHtu8tm0jbce99tY0t/G7JQNIxdF6+pGNK704B+tUKWy8vzHf8QXzWvatByX0P73n6v5ZB3Xik5y6tOrvkBREuPd0SACLwWAsMCp0vikmhMovB9Elj7IgdBMRVKOthGwRBz9TwF6pLnI2iCP2TzemB8dI1kQgBOb2q+d6CP+Y2k+7X+hS3x7i3jc0jepnOkgeAQFUWJzul0nNLY7g/idWxAX/sq+n4pkQqmuggse/le8mAPaJ07YDY77u33lq2PYf7ezuYdESAC74ZAXOCEhYpPmnFw8kGkJKkUDBH4VWAM+RzH+Elrg+cjaKbD7fqCwUCPpVd47GSByPpxPh9nScIFP39i1uvtcbYieH4766FX4W0L0UYdRUc+SeleB+BoTAuHXqbERev19RV/iKDnNMmiVpHndD4fJ1NYF3ueLpeCe5WzyJQK9Myj9ke0Ux/0VT6duy+2cIKd82lKwlcXGz0O+/p5uQby4KW3tSiUedBvKp/nIfI6PNssTdvhmfWPdS86e79vVA/Rodqmo5U3acHd7CUde+Db3ylqtUxsEwEi8MwIxAVOKLELnvKk6E9rkABrLK203Prcj2CZTjEwUfoQfNGdrls8H0FTCxHpocejtg76ahyJBQXOB3Dw80WnBpIpBBRFaV67vtcpTPDuxKUVfYWtTcxeBiflli3dmnRbMasOE0xCV5HhdPk8Lidgm4nIvfe1cp9OdnIBF/kgSOdrjxuGCxan4/JZip1mOr/mWtuCQ3DdxkbZRtaM5fN8RN5rCpzTSfZ3jHfCuvBXcnm2KNL83CqHWyv+pQt1658dA3YQASLwZgjsFzgIngj6LtlVXAaJa/i0WwNRe7ryRZOn3YKxjHiej6BZhfAJqg5MGi74VrHxxOoDvz3JwNNr/7GDOzmoEnh+iyQqth3iLnTHxWsrPAwNsUNnr0RvNOZtmXkjqRa8DI+qc9QoOKT5WXYIkvVN2HncGx9Mjai2vrEvzLCyiXZhm8Zs3Qqxi5Z5/7BzrHx2rPpiLSz8uKbt8R34NWKKO8GzlHucjA8F/uT18PeWPu+IABF4NwQ2C5wg8AcBJYMzDLKDZIDCqR7fS6Gjgl4FfZfnI2hWIQZ61PGogTWtiMsnBPVptA/eNhivxj1PnWTS2Hz9LBkbyoI/ZDcftUS2mRVO0fws6jmfngyLGNg28g8jbLopOGRaeV0pCFuxI7hUWv6+I+g6YNe+0DSYQmbj41gzt41jOL8VTBt2kA9+B57OP6byeZYi7zUFjqoWb/frHiec5tUC1nz054up/t5rxnsiQATeC4GNAgcB7eNogbM9gZu+/CBfjvdVTBPEEGwRZEc0BvwSlS6AF9ImmYRzvknT2DzQw4xHNy6hdFP64H17IkjEPb85fYNfJ5vvaFii0Mm2jgoWSZzeRzLF0E74rhM+svC8y33BZj6nzCw4FP6lff7ENc0QXXyB0ztvLAhwDpJ9kbF9RKW/yHy7bT32ai8lCVGoBPJbnso/sKZisCoEIIPjXRFStIGvksfKIbSG45Vos5WaC32TfYsP6+/39HpY3po220SACLwjAvMCR5KQeVKvKPTBKQ2Ng4gEPpUMoqCUyQ+SX01IOsg5no+gWVXOjV4POx7d6aAfjfdYWhxX456m57dYL0nOweqJ9vdIjmmhtE0xExU9lUovUxqyetfJplHm2GRmJtSbggNkyr6R/3IKyVlkqMk9lqmS6xoDXwAup8vxmb+cbmW1OvY87XjHdNIxkAeFRt17zT/W8nl2Im+l5ccb7S/wVY5ldbtG934uHngy+cDXLK893/La8J4IEIHXRWBY4JTgMP/Nka6YiJJcxSYIviigVACspw/1uFkHTDzhq4TheT6CZtUhNQI90FcTpVnQ1gzH++Btg7PFIBUT5/xFWCTqFb/VejeOQsPJW2RS2LukMpXZi5gPHNJpn6LnbAkfNO4B+zrZAvIVdxQ4KMLad5kE90rL26HHxfKRcZPshQb0QrEjSpQ9kz4ygu0cj6VtrQTdHfBRoAHHkOdSPs8B+kF+P6718Xj6ImM1HtCqH+t67IUWbBngaP3Ty817IkAE3g2BuMBBkDTfGcDn+Coh1SSFMfcxFp7gQjryp5oIsGaODp46yBX4W5IofGsCg3XuThNBvemJj2fy9XQ+zqfZn572OkDUcl0F+lxxlL/sSTjVkwGNk6YY8NM2DdcjYYiOSBSaLAofZSuL/R4NTXJpSy03+KrkrWn17SJPk7Hg3Ja7pAh/rRMCHA0Tpy/k89gpHZIs3YOBGl/b1ggQ33j/z/IkXeEvTi/FP5TPcBHMoCuuVWdNW+ZWPO9Q4Jw/5ZQv+amNRbWATTIFPs4CxxiSN0Tg7RGIC5y3V5sKEgEi8FoI9MXSa8lPaYkAEfhpBFjg/DTi5HcnBAYnCXKi0E5t7sSOZH4ZARY4v2wAsicCL4cAC5yXMxkFJgJ/IgIscP5Eq1NnIvAdBFjgfAc9riUCRIAIEAEiQASeEgEWOE9pFgpFBIgAESACRIAIfAcBFjjfQY9riQARIAJEgAgQgadEgAXOU5qFQhEBIkAEiAARIALfQYAFznfQ41oiQASIABEgAkTgKRFggfOUZqFQRIAIEAEiQASIwHcQYIHzHfS4lggQgRdA4N5/Yq5/rfkF1Fci9r/mrH6Nu/4atVrAJhF4YQSmBU57h035+X71i+tNZfUz74nY7AfW+s1VyHg++s3LjZFq7fD0P1fvf9ZdkcvNGc2Oln1lQ4iLoa+CCH7aPl/xU/M+YI7mA1/8yB3WC7OsA36O3wggNyO6jg7erSU/ef9lSN3KO7/X4zgZ/b2sHgcw1v26jXF93ZFvRGPUD5qwu8dL81ftqd+I7tM58sb0nTmKbW126zTeI12lf2p7TQfcPD1g5rDqfNSvG9FDv78qeY1v6bfNiyzrjeqJD+5HMg+mX9nt4+HdxK6vWmn2614bcqWsnE4EnhmBYYHTFSNSAJjN5vskoPZFDoJdShBtc9UXV5onB8zV8xSEOzz9nPrOLBdsQdbPH+qBBekqQc4Aosd1OwqICMxJTz/u7zWt1AZG7mWoWY8BbplERFfLIXyy/qfjlN6v1RWGN/IWjNuLLvFeIm2TSL4kk+7XbZHXXHbkG9EI+lEkKDvj/Vmqy0hQb2Ttcl5dgIbIMV24mLPEO9A1sd+yfeRjnt6OHTLD4xK+x83TAzb+Gs9DkVAgFFmmeHq6s/uY52zF7thW3N0lFszz9P19sIRdROBlEYgLHAnMtlDxmzoOGn7DlGSgkrgucEI+wRvDK7w7PEXOMJh9HV/2OKIVC26+16OKII2mlx+J7j12ZU57evLj/t7TLDicz2dbgNxU4PR4Z7lS0SlJ0vrBLbxFH237rJK350hv3a/bHpd0vyPfiIbvl/tO7lG/k+fGAmfHt+ZzRvJpvL2uRfYd29uHFOjs6e3YIa3160b00O+vg/WCfSmom95lX5eTuLbl2zioz/e/5rmzVubXE6aoQERxiVNaSKJ5oQ/Xwjvtz6aXfmBoNFOgT1g0vbxMs5cFgx+vROC1EIgLnFAHbAjZnGHyQ7LUx8Mg5tbnbgkOH3q+9JlTHaGxw3NQNEGK7rpD0y+6OnFFQUr36XZi5u+9AAWj82eZVwuQrMsgeGYSEV3fp2lGtriBt0k2Xhd972XBmO7XbYzr6458IxqufyI3EkpLkloGacNPciGKj7e0r0/WfAZj6ALd0ZyJ3CAR+1jRv/jT2PZXFThLH3WYVwFH/XWCNAbzDAaiS40zfo2MK2O2QsDzS/d6/WqtzFVFcqYdxbeIFXip9W3aQK86V8uZP586cqFTx3GKOosZjRtbRODVENgvcBAwsDGlMFAxoeg+KBhqUFCbKy+Q+WXjlSRQE7ZHc4cn5lwui+97CHHM98lC+ntZXNDwMob3CHItyWV9K3ie5mp+CWx5eZZTF52zYLWiiye+9hRYAn27ryckCa9d3kMsPVgD+fDkm33PY+Vp7GCzwwf6+Sfqwq+coOwVK/pjPqyLv2e20i3x3pizhXdAJ+/xZuuR7a8rcIDjyEc3beHNXO8DPTJLfUojhQBiVx3HXpHxuh9XiV/zXKyVuNnHkarAvOHjrpnd8y57UvxS/ECppU5wCqF5IWeY8YYIvBwCmwWObKT6BISgFQT4YXBFIENQEaywgZHEcFXBqKIabNg8pnlKOynWNjZ4t+B9Fc06GQVAnPT0NNvWAREjkCnh4cf9PdbgWuxR9CtzcwDNujt8sSRfI7rSJ4VnF/A0tpnGDbw7GuCJgg8yR/Ilprpft41ycrMj34iG6+/kbvxQqDQfa2OrFtZ2SW8nGe7M6eQWvbC3sq2drl3Sb3u8yYk4AHtpTT29HTuk9X4daI76MY6rzKu6waf0/he5lbGsn6/GwQtXLdt8LWytWIPIxlVom1iml/W8y3eoSnwqvG3Ms3qvCjnNi20i8HoIbBQ4bZO1QBcFv6L8eEMjEKng2AXiRGPALw+l75z0xYXhiYLJR5RRYghlGH/UVgKEDp47RtcBUc2vvD/dFy0H8+vSglFVMdM5H5+41nm+MaBb5bgc5yBRJMzbicMNvEc26ZLqQD6TBEdzoOuOfCMarn8p97V+IDIK3voL12lkx7f6OW2/ZDul4mUpd9qDTle17wqdVih42199glOUK39g0PmolwN2HPVjHNedeYJR3TDAGrFoNQ5euGqe87UmNmH51rXZ1cRds7bnzQLHAMSbPxyBFMvSfx9oGDwQiLu/pEmzgs1VgzQCh6YmQUF9RBU9YeQVNeH6bwTv8BQ+Kphpmr77Oj2gg30q0lrGbR0Q1Yyq5zcLHElWp9PJ/ZWa4pWbCzny+j5p26RabNBwLDTnvIGb9wuxZ/WJgXwmGY/mQNcd+UY0fL/cV/nAY9SP8fkVSc8mLtCc+dbOnMQb82Z4yxyclIovNrsWHSLb31TgDH3UyVGhG/XXCdLYmdfHjaIX8FmNz3gu1kqx6XH1FM39NO7qmT1vfkSl8WH7T0cAdU1X4CCw+adMDVhXoMhmtoEbKyQQ6WSBjWx2P+Yh0NsAtsXTP8HiHsEcCUDut2hmNSSgaB2g3vRqdShTtZ5+3N974kUOAxuwnMoW0W1y5D8LrxgpnqCdGd7I29AotKuPVZkj+dJc3a/bSsba3JFvRCPon8ht8K/8WyMsZOCLVWfM3/GtnTlCbyJ3KVCsrtkWm7a/rcDJTz/dl1ytbYFFulr59Iht78wT3JTBbIHjaHxdjvP0YUHP1+0ktl/rxvEQGGGNsXRiqmQd6wt/wEOJ8Kq+JePg1cnmT7IsJ94RgVdHIC5wEBzDjytQeBTVEcQTofTPFjdtA2LcXNPGqwFfHYnXDZp49AFizrOZpCVQBACM3UgTsiJggNzyisCjdSztEse8POP5Bd+Cq42BWIOn0kgozInkKDSt/UADdky0b+Vdgr/5ob+MY6IHmT0O4K/7dRvj+roj34jGoB92r/vB7gHNvWt3a/XHfWo25s18a2eOIomPK+qeM3hrXQtmu7av9IBHpqvpJSF27JDm+XVQYNSPcVx35hVZdNFgCxxdfBX7fF5mp6GOp46Xp8vRr5X5Bi/Ir66aDubWK3xO8256tViHeUIXPpPoBLJ1OChx2CQCr45AilXpv+4E59UVo/xEgAgQgfdGoBU4760ntSMCtyHAAuc23NQqCTL1ScuejsRPxWo5my+MAG3/eOMR4zHGLHDG2HCECOSTmwwDT3DoDUSACBCBl0KABc5LmYvC/jgCPMH5ccjJkAgQASJABIgAEXg0AixwHo0w6RMBIkAEiAARIAI/jgALnB+HnAyJABEgAkSACBCBRyPAAufRCJM+ESACRIAIEAEi8OMIsMD5ccjJkAgQASJABIgAEXg0AixwHo0w6RMBIkAEiAARIAI/jgALnB+HHAzv/See+hdOwYPXn0Lgul+Endnq3n7xUwiQDxF4bgT6Pap+YXr2C+LPrRalmyAwLXDaz3/r1wo4au7nxWc/bNc7WKHl+bS3FzteuN3g+QiajX3CA68XQK++qo3jfgCwvV7h3olsljS1bE/Q3rBfknLkL70GAd4N6H76A3r2ZU3MZ7a6t188QNmbSDYb9aZpY/3eFzzqPnKvIsBLf32Cyj4226M3KXH/RbO9oF+zUPVvPyTa4yjizWhCg462xxUTy9XH0473Ds8q3jh+ej69P1i5rrnze7R7B+E1xDj3JRAYFjjeGcxbaqGaOHV1dtk0fZGjg5QOOlGgx1w9DwzbO2PGPB9BE/wh23iDlpmRDEjYeC+W0KqKgMet15jnrdQetm7LZ3ZxTlLKXJPgor6HaZQJd/vlZnb39oubBbltYU2cfv+Kf6ZE7X0+rTmdjvyeMm1H0FLz8R661jWwdfYzL8NtKrV3et2JHsTY2guYjKvg2ADAQLnu0PRz8mvi0ru34iKn822/3t9fnQeS6FH8EttOHyat+rM7r4e/n63l2GsiEBc4oYN6B4wDsXeaEpBSYECAU0Ei5JNeyDvabBs8H0GzBoCBHp3tPVYyQWQrAb7pUjArT2YtbrVxkPfYor9cNc+dtbAHngiVXSxhsQfm+SDo6OgE5ejUYqQpmWdovab+0tFrBW9fVOvJG3jANvVJ2eup6WWHKAlZErbWocyc4aJt5eiiYDt/yglWwt3LMqPt6WE/RfZb4VLGE7bNR70sQqPi5l+4C3mKzKfz+Ti5hJVsfrpcjnOiUf0HOnq/9P3Cv64Tfjnp+rVp7A46DX0lkCXPHcvhi73ej4Bfubb9YfvLnfCf7K9aSLg5Qv34+nJ0RVe7v8QGGfMdnvDBhIO3n/AL+WCd97m0ZsOO2k51P2kZsCe03zn9efvSCMQFTqiSc0yp2q3jwyFxSqEJufV5SDbHh54vfT5gpflbPB9Bc6WHHk9tHQDUGDZcDi5eTr9GxlUgmgc/vX61trdFpj3BHGL4AGtl0jIovdHcsh8m9zJixFyFZnJk74tt3gIPsQt0rPZzibjRc3pWGVoim+Pi1jfCNXAnfSCPpYWTQPCa0Wp7BrSs/Ra4IImcTiKLzK9+0tvIy9pUK3NPl8/jcmq6Aevzp6Nt9kqjklqFB2i4dZiabQKM0JlX50IqnRgVTPz6hU4LX/H6Z7wrXkqOq/aCrOt4K3pZtXN6a3K3D4rNBS+hMd4rjmZ4qzC6Wg+11tAWOyi/RxHTil69wM/3dOUe2C/3qKbN9rsgsF/gIOA4h0HgrIAMHB6BrPvuSnW8Vk0PN5/MXfJ8BM2qoN9IdUA13OaSkVVgtsFRNrBS1o4rdrmpeS7WXhHkTHDsWF7yKYax18hGae1oTPoNHRSJwyIDwsAezX+SU9uguMADpNR1inWgh5kf4WvWaFspprkpsmKfpT69dknb0pvaT50WYZXRA+NKlnBc+WjhFz1xF52TjfMcrMn6pELE6R36RJHS6uTWNUUG35Pr59+uU2Fm1mtbiQ9bvxYBzTwI3Wzdr5n5zBU0wfdS9m7eK/n0LSoGlVy6KT6Y9xjofeoJG3pE+1poNZn6Yq1xETvCj9KAlkW3ZZGxU56eYsYVejfmbL0IApsFjjiTrq4DB8o6S/9wg3qHwmZRR9x9ghI0d3k+gmY1KBLqbGNgjku6Gj8EdLVB7QbsN7AdrwJJQwfA+VqbIDwddy+Yt6CjkldkD8G+t78LQJpN6DPAcIazIhLaHLLO8chUwvUx7yiJG9sscdG2UjrkZi8rvgOSMV3SdvRkfmi/b/tgbyODgxGlzM06ZKwLtq3YEb1RTIU+UQha/3XrwDOvj+zX42tl3tBp6iuafmrDByGYXCM7pqGR3sIz3FcgvUNT5iR/aKEHOg9kBf18Ff2wfoenWQ9egW1CXP3DCohpnKVPYbTcoyxwAORbX5Ofp/8mbxNvDm0212Aj2uCjsQscO6Qx4JdIhfPdx2LhnG/S1GpsnSyIrgjWZj1u+g1qA+1qHHRw1Tzna8c2Ai1/bfghUebgKFi3QNm+m2J8BeRC2zj7Ye4WznWyazR5ixxzPFBA6FMfawtLfhk8l7hoW1na9Vheg6oCN/aAHob8IeaZfMPD2O/bBU6zN+j23xeCfkXnImNpnz9xTXNERuwZJDujaKFVbIME7daBXbZBkETBR9HtbA3e9aFLJX6MQc4gUVZ6SQY1D6Ll61V7IYW+8rCkxDbktmlCfk9I+sc+lDg0P6rzrtRjdZJf6RaFyveygo/dqixaD6XDco8GdusBZc+rIzAvcMR546Alzq4dbOo0EtTVCU7khMWv48+SQ6d2PB9B0xq518OOpzuZMwpuRcmyeRV+NTBujXuummdvG0NbAoFi7YmN73WAVAGlLhCfiWn3cqV1RrZKaAfnOrlrFD/AEXfPV/OMfEaPd8QDHc38JS7aVp56L6spapa0PT13r+2HhKWMZfRYjWdaKvk7Vva26IwEljHPfzmFIkT0rntmZH/f7++Fa7YRaGtJenyNzgudtnylxk34n+aPdi9HGjGyYCriyeg0qM7boSl4KZvn5YFPV7KpUXXy9t7hqSnF9opw1XLBbxqlgK/WQbdlkcfW3zfabL0LAsMCpxg/+JNOpXnnlFHwrfMDx8amMZsN87CR5F4C35LnI2hWHVID8kXBExOtzOi1136D2g3naHxdjvMp/XXZiK+er9vlKduudeMIrDW5NEmLTLBFC3Qw2VTmRqa2lvZrM/OXUcf6lomdfLlb9KtYOX09libptxOlMW+xHfDy9IDniD98COurzqkhtGsyc7IvaRtikjBH9nO0Oz0WPgrc6kkHPpJV/Ko4hVdNVFgLR4LeGpNgLxd74/SmEC8+pftEr0q7CtHwVWPGhyHXSCeMy3rwtr7ibaj5t/b+XgC9aO9bG27RdDrgBLCcNll6SVpg7v/iC5ps8cRkiBRZ6QAAHflJREFU+H7dGzIQ2LrF2uRPXi5gArvLeKUr4/CnzrehV4RpFZaNF0cgLnDgbN0mTwHMBq+2wUtwqwEsA9OcsB1hIwjKZ6vYbIaXdjrv2DoBRTyjY/M07zs0N/QwjtDLbIY1NqNAm+ZoO5wux2f+83mth6bqeC7XIiCIPRAINElp1wAnNrI23qcD0mOfuRbnKmD+6xHjY16fFR5qPOnXBW0Ij6v229A2M1ycrUAzXxMG5+NT03d7rgX+te0Syan9lN4pwVkfE3sMfdTpqPewx18SW/OdQruRFl5+ncEh6WvjD6DzOo6ScS0gG2N3arKhk8Js5CtZHq8LhFXX8V4wk/rfCKrDvS9t0XR+0eBw9JSuZn9lWzdbzHmKbbV/6DZw6myt47aTCwVx/fPvwDc0vc63sS9G8bQCzMYLIxAXOC+sEEUnAkTgZxAYJfFSbLxm4riXTolOK+Z+xh5/Fpe++P6z9Ke2OwiwwNlBiXOIABHoEMBTe3v6T1PkSdt2dmufteM+OqXk2043nlXX15aLBc5r2+9npGeB8zM4kwsReEsEymmNfFQmHzu8+snFt3TCRzovWuC9jpOywHkdW/2epCxwfg97ciYCRIAIEAEiQAQehAALnAcBS7JEgAgQASJABIjA7yHAAuf3sCdnIkAEiAARIAJE4EEIsMB5ELAkSwSIABEgAkSACPweAixwfg97ciYCRIAIEAEiQAQehAALnAcBS7JEgAgQASJABIjA7yHAAuf3sCdnIkAEiAARIAJE4EEIsMB5ELBrsvf+HQf/U+ZrCf6cGffG+reQe309ym/MPPZXjn+Cx295wDPzfTXcn1Pex+/xXm/JHel3rPDajGd2tCtkmxY4BYj2I17hb1fhh602fuSrB7ZI6vksQd7g+QiawHWkB8brr7nq961Iu2F4b0d+oQJnYT9vu4ZZQ7hr6ffOZKx1Er031h33H+p4fT3We8dCmX9Z+Mqgey0Py5F3tyLwarg/p7yP3+Ne7/Lr3e/5y9vDAseDgBc/mmQjiar2SZLpf8lUjNYlnigpY65OUGrLLXk+gib4Qzb9EjiM6WskA17uhrff3tuRY55aqqdoL+y35XdeERRMzRHlTeTYtPfG2gvwU/dPqkctLgd7VsHT2VeNRc08/9UKnCvwiHT+9b4b5b/WtnfX80q5f13eEIDH73Gvt78PxXrRzrjAEUexhYpPoLEhPFilOkyBT9brt3qHfPC2cCQnjewGz0fQzC8oP8kbyQM9tIi57bGSCdiAORE3XQpm5aSs5mj1tlyQ99iiv1w1z0Ybc/q10AMndOPkhPfzJGfp3+bs6EyTUS9Xkq/KFtpO6wVt9BX8nfx3w1pk1npl2o2ftp99a31Zm/ZRmxP5NfRZzW/4NXoomDOSxznZqDlRwxYs6j4Uu2u9xOfW8ooc2R8KHRsrKrO0mcubsEWuamtM0ePGv2BX+Ofk5ZWaRn27NOzTMAPLToZvY7KJh8h5unxKAZ50K3LqPabMl3bHD9h0U34AiOur4L4lb5mk9xVsg+Xja8Gv7hvsKY2P8W1Q8j6efKHZW8tifQLr09XxjvhoOcz+8Pz/sI+oNIztYxcJHPLU7AMbNmpvEICJwNOMkxJnmy8GhpNoIbZ4yvq70tRCRHro8dSWOV4HOFpW1svp18h4AyZIVpqvXr9a2+uQN5OXN5F3Jy6tYC28bbLQMmjZpL1lP7+ul9XMMJjqES3L97C2OkoBLlhZ3DTPJEvhezqdxL9FjgjnLPpq/vf0yBKdW1Lt/XTFP1Ho7eHxyark/zk8xP41cYjtmot72m59I6xabo7noRIGFnl57b2jt7Shl1kV7GCIK3y1voiz2bPE0Z4WfGhWtP6Y/NAjXx1Oz4z7lrxit7o3nX5Gd3/T9k1+CEw0dn1bPfBnO55O9YGg7IuVHM2HzPxK163v7DTxV6/mC97HJziRIticcAABqgUnWST9vvCJAmNeUQHfeFLb5fkImhUTcZjqQHVANZxTyUgJRCjmxDGBZ64ldPKRcQWwDWSKXW5qnou1YsveRp4mTtMgsxuP6IxslJaOxqQ/lMf7nRMBNMO1de43sTZyF5wzP5FNmaieWJS+Fd8qoDRW8zfHlUDGZ5b2WtFPYsocxaMUvcHJlMGtqGjk8ep3e0D7dDA5i3M+7AOSD9i9vEaGb2PS0x/iAV+u2Il+Kpb0a3v6vya/NsHStk8m90re5V7Wyvu26Goeqv0c55eR3+UlQmuYFzzdHmfExOxmK727Pefpv/b9ZoETGDAArtinBJw+4fSbOc/Hps9Ha63ICb9ovMvzETSrnQd61PHUwBylj+hXY1uQKEzgWo4bho1n3hi902vaJYgOihZPVjDPTyb++DOyx3Dj3lLgBH43kK/3Nz1xjkeUtDVedjzRkmTeYdPsXeRZ8dUypvZq/jfHl/Za0U8ywrfbSazFqunUJ2sX5DM59RFWjQGgLbxUsG/US2vNY6HTtzHZxwMf1zVf7fXr9Xki+RX4vZzets8l91Le5V5WyndN0dX7aZiHim8XeaIYvMBtxLsllvqQlfxsqTcLHAH8w30GLg7RNmtBfmy4PhCg0rQ0BvwS+R2e4Zxv0jROFehhxtNNH7i6Kd9OZp6i5jnfJGMbeZq4b/ih0Bk9HfRBHDQ27VenN57WP+qE0kAQ0Rs8jxQ8Svccj3VhoYJ38i8EMvG1jnUVccW3TpTGav43xyN5TUG6oi9iAvNakASnN2kXXNL31uyYKYZAB3h2wVb7tMeq3C95rPbZPTCBHgs8+r3R69frs7DJT8qvTNDLqfZInvdcci/ljXBU+s6bva6wdY0VzreLPCxw5rh+f3R+giNG90GqsA2M6oxoxZPNPD2OlRXCt09sa56RI2eq36C50sOOp7s+cPVzel1M8F8F5o6g5rmgLQF5nJg74q0DwTwtlrax0zRQ9HIlwlbv3JE/doj9rolSWr1flX7NS7dl1HwXZTWuZVKFfqS/EW+D7lXzV/QW45G8xl6L9UnWTMMWLUYFfWNolwFt62iv6vGtfbTgsSxev4vJNXh0vPSeLfj0mCxs0tFsvrpV3F8j/xW2fSrck9wrP4lw1PpO272Neju6OCf8+hjc07J7wgvSzze6rvTO0OivRnj6r30/LHAKqPYvMryqnRGnThIkIgFff4GuBrX65GeDwJLnI2gaxQM9zHi6sTJ3w7mjd0zryI7G1+U4n/CXXBFFPV+3S1Kya904nFw9SYNDkUklNLdhpjKDiLqu7Lfjd4pcaQY2t3LfA2uhUf0ysRYch0X7iq/XZDV/Ne7sGvjM3F4r+ihw2kdxONGLi1GhB7/y8ki8wP4vvmGDrZXX45XuFzxgo5EM8P1qQ4ch6KtMZGSCDvX0BtioPQOxu/joeUWnXm6Ox/Ch8jtsoUe+urFOrt+U2wgqN5vyVj/wtnDrDQsZUz6Ch7+xbzt8YEd8yVjRMv7m/Rn+Wb//I3SrHk7uzk6u8DJ6vf5NXOAgYXSbNm1eu3FbUCob2zzNK/BbIEQAkD9JCwMEPoNPAPeOMOc5CsLfoSlOEuIR/WldL3PvKv2msI6cPV5OMgqPz3zkr/XQVB1PbcPT5ejXYiOIPZAANElpF7ma3ayN9+mA9NB+WuYOa+t3oFWvnR9pnO6Ddcahw8npb/bHBt+qQGqs5q/Gd3zGyWv02aCP/djZJ9oHbi9Gfqhsnvyq+IaytbarCvoGNj1nwSN9ZHDdXlhh4vDUuBhsGxZt/8haNa/TP7tF+V5jjqE/Kr/8RY+S7yVxh9ArP+l8W/kh9maIRe8jmeXKtz2/TLunZfOC95k2v8VpLXfzu5H/WPoA6z2ucYHzHrpRCyJwVwRSIGjJ6a6kX4ZYDoZBkH/nIDkzzqvjsZT/8/yUPr+Ue2a0W8eeEotW4Nyq1juvY4HzztalbndEIAUS92R0R+qvQgqnb/YwRZ4qbeerqPQtOV8dj7n8l+Ny0ieh34Lqrovncn/elVchlnz8GbFggTMzNgucGTocIwIJARw1/4EJPHKAclrTPrJMQeRPPtl6dTxeVf5XlTvaU7f3scCZYccCZ4YOx4gAESACRIAIEIGXRIAFzkuajUITASJABIgAESACMwRY4MzQ4RgRIAJEgAgQASLwkgiwwHlJs1FoIkAEiAARIAJEYIYAC5wZOhwjAkSACBABIkAEXhIBFjgvaTYKTQSIABEgAkSACMwQYIEzQ4djRIAIvAEC9/5TWv9rsq8DUfnTav17LqJL+gXm4AccX0czSkoEegSmBY7/nYHwZ0DwGyHyE+Wz38PoN1cRyPNZbrQdnvpnubNsix9pm9HsaNnfAAlxMVirIKJ/yr3+cJwPmKP5+L0RCdh1vTDLOujgZYRIv9l9XE5W9uQA/vUbZl4X9G7l7X4yPPP1snocIL/u122M6+uOfCMao37QBHYLX4I4U78R3adz5G3DO3PAU1+7dRrvka7Sn+wztL2mA4aeHjBzWHU+6teN6KHfX5W8Zm/pNzWLLOuN6okP7kcyD6bf2D2KlzeSy8s8zfKDec5G32HAtUTgiRAYFjh+I+DHzkyMkKKg9klA7YscBLuUIHRwjAIF5up5CrEdnn5Ozq3pRZWDjeznD/VQcqBYqMrrMd+O9ERgTnr6cX/v6QEj9zLUrMcAt0wioqvlED5Z/9NxysWQx+xG3oIxXj6XOBUf0/Qj+dJM3a/bIq+57Mg3ohH0o0hQdo5/RdUIUW5krVoaTIq6RI7pwsWcJd6BrkmULdtHPubp7dghMyxFd1dMeXoRTuP1xbdQ5IgsUzxH9KP+XdmitTt9CjsTL3fWzuf4uO7v56s5SgReC4G4wJHAbAsVv6njoOE3TEkGKonrDRvy8W9x1YDu8BQ5w2D2dXx9aXqpvUPTr4GMUaDv59oE3cbb05PH1t+3NaVVZD6f00v4VIFwU4EDXRqdLFdKOJIkrR/cwlv00bbPinjsR3rrft32uKT7HflGNHy/3Hdyj/qdPDcWOG3POHrqdj5nJJ/G2+taiO/Y3j6kQChPb8cOaa1fN6KHfn8drBfsS0Hd9EbhkwJfCxFtHNR9HEN/uWqeO2tlfj1hGseNZlesGc+Fr6f92fRq+zjLChwS7/OnzNPxGKeS0Ymd1Zp3RODVEIgLnFALt+HC5IdkqYMHiLn1uVuCQxRsuie69pP5NuE6noOiCVJ016v1wFNupGNHXTpEd6OT7tPttMTfe7oFt/NnmVfxuKnA8bw0TbGPkfsG3giyLaN4hSY4eTy8vJ7UjnwjGq5/IjcSylQlWV8K0ZZIttbMXqcDuqM5E7kbWk7XPFD6ij+NbX9VgbP00UgOb/Mmdd8arDcYiC41zvg1Mq4Mc78CR3ipIjnTNnuq16rGALWunzXQq65xekqs0/ab69lzZA8ReCUE9gscBAxsTNksKiYUvQcFw3DD1k3XEkBN2B7JHZ6Yc7kcp/rE5D8aU4Qx3ycL6e9lcUFDkRo3EeSajgn49nGNp7maXwJbxj7LKU95uh0Ks6KL4q09BZYA2O7x1HgV7yGWXsiBfLBj9j2Plaexg80On3FBnTiWJ+1FkYs9o07ZsK7/fkumOvi4Ruu40n8ud6MU0MnyNluPbK8T5Jjejh2UzrCxvyLeNEauFeiRISh7rcQnKQQULZvYZVwFMzvuWJoHkMVa8YE+jnia/h4+uj7BaXGk2b7tT+ujXi9/76XgPRF4ZQQ2CxzZxPUJyG0kjcAwmQ02bE0CLvmrYFTJC20Vh8qQ5intpFibB94teF9Fs05GAYAv++qBWTsKwpBJHRdXnaP5mn6xR9GvzM0BNOs+C4gRXS0HvhejaGhsswg38O5ogCdsDn6RfImp7tdtjQnaO/KNaLj+Tm7w2Cxw2nTTQpHTJb2dZLgzp5Nb9KrFQ+Rz+7a/usAR+8U+6jCvSI366wRpeN3gU3r/S/xqAUF9VJPIrMYHPPN+na+FrRVrT2xwD72wN6JpPe/yHaoSnwpvG/N8QePvIy7sIwKvisBGgSObyL8xuAuiBYLxhg42bEhjwC+RD+e7ZIOCyUeUUWLYoamsWwKCDp5qcNgcBOvK+9M9uQ/mV/oFo6pipnM+PnGt83xjQLfKcTnONQm2RJFPm2rxdQPvkU2ySRMfBPGBfDcXOPAZj80On1bMmidkgfQ2P6iLj4xpNWDp36HZz2n7JdNMWG7h7THwdJT9ne2bvbR/xfSqivBNXOtSvw4Do36M47ozT3SrwvhibjUOXrhqnvO143gIWqOr8Kh7I5rX82aBE+HEvj8VgXmBI4nPfJG1IhVsri5h1cntKVxt2OgJI6+oCdd/I3iHpwQGFcw0Td8dPb2l+SWRIPFCDwQd+1SE0fFVB0Q1q+r5zQIHT8in9JdiXmbFzxQKqh9y5PV98WaTarFBw7HodpryBm5eNrFnlXmAk5F7NAf67Mg3ouH75b7KBx6jfozPr0h69gQHNGe+tTMn8ca8Gd4yB8WL+ECza9Ehsn3sY44evuxdP/ot472f+HXAbtSPcVx35vVxw+7v1Th44ap5LtZKselxBaXxVXh0vqdX9LzxEJj5BTa1eo/inObBNhF4XQSGBQ4CW/T0CnW7AmV0SpIXBBtWNqDlgXkI9DqY4LQGY+0p2yQL/wSLewRzJAC539dDAso06AAdfbU6lBGtpx/395pWahc5TNAEllPZIrpNjvxn4RUjxRO0S9TMpzxX8zY0Cu3qY1XmSL40V/frtpKxNnewGdEI+idyGwwq/9YICxn4YtUZ83d8a2eO0JvIXQoUq2u2xabtbytwcJqmT+ySrFYOoDHubzNKa7RezxPclMFsonc0vi7Headgz3it1rpxPDxFWGuRgUvnJ5oe/AEPJTJW18g4eAV6WRyMALwhAi+PQFzgIDiGH1eo4iLXF+nUoB1nm0IDn22rcT03f9GyBvxGwwZQvaEL3kgcoGV5Npu0BIoAgLEbaUJWBAyQW14ReLSOpV1irpdnPL/oWgKXitctUdTgFgk1pnv+LDRjLBFI04nArbyzs9gvfmccEz2cNHgcoIPu122M6+uOfCMag37Yvfqx3QOae9fu1g7+HBfzZr61M0cLgPmQ2+CtdS2Y7doe+65eM11NLwmxY4c0z6+DAqN+jOO6M6/Ioh+kusSuY97pcnxeZqehjudyrcw3doD8+ipyYp6/djg3vVqsc76pfSDQq8NBi8M2EXhxBFKMSv99oPHi+lB8IkAEiMAfgkArcP4QhakmEbgKAdQ1LHCugk1Pnj91xU/Fej3br4sAbf942xHjMcYscMbYcIQI5JObDAMLHHoDESACROClEGCB81LmorA/jgBPcH4ccjIkAkSACBABIkAEHo0AC5xHI0z6RIAIEAEiQASIwI8jwALnxyEnQyJABIgAESACRODRCLDAeTTCpE8EiAARIAJEgAj8OAIscH4ccjIkAkSACBABIkAEHo0AC5xHI0z6RIAIEAEiQASIwI8jwALnxyEnQyJABH4Tgf7Xe9UvDc9+Sfo3hSZvIkAErkZgWuC0n//WrxVwPPTPlPs3jndTEx38LH8b9HzyKxzacN/a4al/ojz/5Ln7CXNPdUazo2VfuWBfmeAJp3sVQM3Pr0Mm99Pvw/kfh35VQ/cS1KxDj2+TaCUHZqp5XcDHD69Bdlmz5B28qqHzBY+Dk6f7qXqM6+uOfDt8Ipqwu9NdT9Xtqd+InaZz5BUjO3M031G7o6N9ZYFJ8tuhL2g6YO7p7dglrfXrRvTQf/3VFzjdu+iuJ8kVRIAIPCECwwLHBwHzllooIkVBTfASQPtf70Vw8wVOFMwwNwqa7YV9U55erpxb07tlBonJzx/qAcXTVWSvgugx3470lL6c5P24v/f0gNHHod+vU2w0wC2TiOhqOYRP1v905JdvdpjdyFsw1vIWH9M2ieRLMul+3fa4pPsd+UY0gn4UBcrOeBea6ooESW+Gze/eWs7rVosc04U7cxThJf6B7mn5li9EPufp7dglMzwup6iY8vSUblc2fWzz91eS43QiQASeFIG4wJHAbAsVH2AkYLkg7INFSQYpAMp6/dQe8gneGF7B2+EpfJxchcTX8fVViUljh6ZfAxmjwN7PtQm6jbcnR4+tv29rSqvIfD6fbdGWk9hMpphuk6NQz/fpaV2SovWDW3gLX237zMpjH8tn8RvNAUY78o1o+H657+Qe9UMGud5Y4LQ94+ip2505bfpIXo2/172s3vGF6FTW2izR2rFLmhfLMe4vdJOPltiTHqJ00YwiTU7fzp8yT8cknMxFhVVDkS0iQAReC4G4wAl1cEEyTH5I/P7t3YmgW595SID90POlrzsOb6c3NuE6noOiKVQpdV6tRwuYYQ0VMoqCtu7T7UTA33uikiw+y7yKx00FjuelaUa2uIG32ESf3niNyr2XBbN0v25jXF935BvRcP0TuZFMpz6AAicXoi2Jbq351Dq5NujO5uglEz3aNKd7Hih9xb/GvnBVgbP02UiOJMyoX+SqMUTm1aLUrZP9rmX2D2UNE7aIABF4ZQT2CxwESRQeEii6YD0oGGqAqoFHYKsBpyWAmrA9sjs8MedSPh5ICpZ/g5MNzPfJQvp7WVzA9DKG9wi6kEWuFTxPczUfSRwFmuiWZR7omeVa0UXx1p6AS/Bv9/VJPOGl+em2x2CIpZ84kA82zL7nsfI0drDZ4QP98L0ny6ecoOjC3I7nO+wZdaKAdf33WdKKlW67c5wsW/gHvLP8zfYjX9DFQuPs6e3YRekHm/sr4k9lJAVO3UvNbrlLdLfDaf+1fcICp4LJBhF4KwQ2CxwJIvUpyQURDckwmCKptMCSl9Uk4JJ/F8g2eQr/pFgLauDdgnUVOQiAeWykh8jbFz6VYtDwwT5NgUwJDz/u7z1JlSxkbZYny+zwNUsjulqOVLPY4N+fcN3Au8MSPGFzyBzJp7C6tsAZYrPDp/lbZGsUKs3HDNDTG6zt6O741s4cz30L/x6TXV/QxUJj7ent+o1fB4qjfolN2hAKo4K13fdeL38PjrwSASLw2ghsFDgSQPxfSHVBswCB4K3jjYyULw+qJ6c+eaaZA355KH3npH+iNjwluHUfh6igV+SR/1+pRwmGungy1AY3g+BceX+6L1YO5lfqOlkgEZ+Pz0wPxUKdrBoDulWOy3H2T8y4rwXnDbxHNsmi64JqIJ8pAEdzoOaOfCMarn8p97V+IDIK3t5Hd3xrPaftn7RXcvGx1CMqsj0dFKP6eyqYE/mcwxLfwcFJKXwVV5jP2Lp2tgeC6ocYExl0wFF7nQUOcOKVCPx5CMwLHARidcTeIAoCS5ew2mx7YlH6o+CTR4Rv94SL4kcHs46nBFY3B8WU764FlRuIn+qEdoiH1tW3fbCX8arnNwscnFSc0l+KRckG8izkyOv7pG2TarF7g6vQPE15Azcvm0+QA/lM0hvNgY478o1o+H657zAd9UOG+RUFufVv0LSnDZbSzhy7otxh3Qx/mYMCQnyz2blQinwh9jlHzxc4Q5/166DPqD+IQ1p23RZSfm/7e3DklQgQgddGYFjgIJD5p0ytblegqCcnPa+0JUDpZCHBx/LAPAR6G9i2ePonVtwjeJuEiS8pgx++h9KfFNViSOvQKxr0WB0sHomvH/f3nqRP4jjF0achfk26j+hK34f8WXjFSK03drqRt6FRaFcfq3hG8nm5R3Mg7458IxpB/0Run/whAa5hIQNfrDpjtiTqrh/j6bozR89X7YkepUCxumfbbPrCbQXOyGetHE0D3a/bwASFuYxVHGUcunxdjrMrxlngNJTZIgLvhEBc4CAY4uMJc1WFQK4F0qlBO762T6Ut+Og5tZ2CTg34jYYNmDqYFeiROEDH8mzmaQkUwQ9jN9KErAiWILe8IuhqHUu7JEkvz3h+0bXgahMs1vindC0c5kRyFJoxlrBjon0r71Y4wm7li7aJHmT2OEB23a/bGNfXHflGNAb9sHv1c7sHNPeu3a3VH/Go2Zg3862dOYpk18R66JF5AX+te8Fw1xeqPQ1dTS9JsmOXNM+vgxa6X7cL3fSQ1Pa7s4/W+3Q5Pi/2pJMFDjDmlQi8FwIpNqX/PtB4L/WoDREgAu+NQCtw3ltPakcEiMC1CKCuYYFzLXJ1vgRYPL26a/wUXBez8dII0Pa/bz4WOL9vA0pABJ4TARY4z2kXSkUEiMAWAixwtmDiJCLwByLAAucPNDpVJgJEgAgQASLw7giYAifd8B8xoA/QB+gD9AH6AH3gHXwgFXHlq8bvXs5RPyJABIgAESACROCPQuD/AZ7YbtykwJd5AAAAAElFTkSuQmCC;" vertex="1" parent="A6Ks-Vfohcc06DCEBgYB-1">
          <mxGeometry x="45.06" y="32.00000000000003" width="374.94" height="148.52" as="geometry" />
        </mxCell>
      </root>
    </mxGraphModel>
  </diagram>
  <diagram id="Wp4yuptwY3wIeYe733zw" name="BC27土地契約覚書">
    
    <mxGraphModel dx="710" dy="554" grid="1" gridSize="10" guides="1" tooltips="1" connect="1" arrows="1" fold="1" page="1" pageScale="1" pageWidth="1169" pageHeight="827" math="0" shadow="0">
      
      <root>
        
        <mxCell id="0" />
        
        <mxCell id="1" parent="0" />
        
        <mxCell id="1uz2SZg0JmeLjbYXai6C-1" value="連帯保証" style="shape=ext;double=1;rounded=0;whiteSpace=wrap;html=1;fontSize=23;verticalAlign=top;" parent="1" vertex="1">
          
          <mxGeometry x="40" y="220" width="410" height="290" as="geometry" />
          
        </mxCell>
        
        <mxCell id="1uz2SZg0JmeLjbYXai6C-2" value="" style="shape=ext;double=1;rounded=1;whiteSpace=wrap;html=1;fontSize=12;" parent="1" vertex="1">
          
          <mxGeometry x="100" y="380" width="250" height="110" as="geometry" />
          
        </mxCell>
        
        <mxCell id="1uz2SZg0JmeLjbYXai6C-3" value="BenA1&lt;br style=&quot;font-size: 12px&quot;&gt;ONG(Mr.) PHAM MING TIEN" style="rounded=1;whiteSpace=wrap;html=1;fontSize=12;" parent="1" vertex="1">
          
          <mxGeometry x="120" y="390" width="100" height="90" as="geometry" />
          
        </mxCell>
        
        <mxCell id="1uz2SZg0JmeLjbYXai6C-4" value="BenA2&lt;br style=&quot;font-size: 12px&quot;&gt;ONG(Mr.) DUONG VAN HONG" style="rounded=1;whiteSpace=wrap;html=1;fontSize=12;" parent="1" vertex="1">
          
          <mxGeometry x="230" y="390" width="100" height="90" as="geometry" />
          
        </mxCell>
        
        <mxCell id="1uz2SZg0JmeLjbYXai6C-5" value="&lt;span style=&quot;white-space: normal&quot;&gt;BenC&lt;/span&gt;&lt;br style=&quot;white-space: normal&quot;&gt;&lt;span style=&quot;white-space: normal&quot;&gt;GIA LINH&lt;/span&gt;&lt;br style=&quot;white-space: normal&quot;&gt;&lt;span style=&quot;white-space: normal&quot;&gt;(DUONG VAN HONG)&lt;/span&gt;" style="ellipse;whiteSpace=wrap;html=1;aspect=fixed;fontSize=12;" parent="1" vertex="1">
          
          <mxGeometry x="330" y="260" width="80" height="80" as="geometry" />
          
        </mxCell>
        
        <mxCell id="1uz2SZg0JmeLjbYXai6C-6" value="BenB&lt;br&gt;ANGIA&lt;br&gt;TIN&lt;br&gt;(副社長)" style="ellipse;whiteSpace=wrap;html=1;aspect=fixed;fontSize=12;fillColor=#fff2cc;strokeColor=#d6b656;" parent="1" vertex="1">
          
          <mxGeometry x="175" y="40" width="100" height="100" as="geometry" />
          
        </mxCell>
        
        <mxCell id="1uz2SZg0JmeLjbYXai6C-7" value="同一人物" style="endArrow=none;html=1;fontSize=12;entryX=0;entryY=1;entryDx=0;entryDy=0;" parent="1" source="1uz2SZg0JmeLjbYXai6C-4" target="1uz2SZg0JmeLjbYXai6C-5" edge="1">
          
          <mxGeometry width="50" height="50" relative="1" as="geometry">
            
            <mxPoint x="300" y="360" as="sourcePoint" />
            
            <mxPoint x="350" y="310" as="targetPoint" />
            
          </mxGeometry>
          
        </mxCell>
        
        <mxCell id="1uz2SZg0JmeLjbYXai6C-8" value="BenD&lt;br style=&quot;font-size: 12px&quot;&gt;BA(Miss)&lt;br&gt;NGUYEN THI MAI" style="rounded=1;whiteSpace=wrap;html=1;fontSize=12;" parent="1" vertex="1">
          
          <mxGeometry x="90" y="270" width="100" height="90" as="geometry" />
          
        </mxCell>
        
        <mxCell id="1uz2SZg0JmeLjbYXai6C-9" value="" style="shape=flexArrow;endArrow=classic;html=1;fontSize=23;exitX=0.451;exitY=0;exitDx=0;exitDy=0;exitPerimeter=0;" parent="1" source="1uz2SZg0JmeLjbYXai6C-1" target="1uz2SZg0JmeLjbYXai6C-6" edge="1">
          
          <mxGeometry width="50" height="50" relative="1" as="geometry">
            
            <mxPoint x="40" y="580" as="sourcePoint" />
            
            <mxPoint x="90" y="530" as="targetPoint" />
            
          </mxGeometry>
          
        </mxCell>
        
      </root>
      
    </mxGraphModel>
    
  </diagram>
  <diagram id="GELSztT37-1Q9_rCBL0_" name="ANGIA株一部売却">
    
    <mxGraphModel dx="710" dy="554" grid="1" gridSize="10" guides="1" tooltips="1" connect="1" arrows="1" fold="1" page="1" pageScale="1" pageWidth="1169" pageHeight="827" math="0" shadow="0">
      
      <root>
        
        <mxCell id="ocOZdsiFO2pefSpMSgbL-0" />
        
        <mxCell id="ocOZdsiFO2pefSpMSgbL-1" parent="ocOZdsiFO2pefSpMSgbL-0" />
        
        <mxCell id="ocOZdsiFO2pefSpMSgbL-4" value="（上場日）&lt;br&gt;2020/1/9&lt;br&gt;USD174,808" style="edgeStyle=orthogonalEdgeStyle;rounded=0;orthogonalLoop=1;jettySize=auto;html=1;" parent="ocOZdsiFO2pefSpMSgbL-1" source="ocOZdsiFO2pefSpMSgbL-2" target="ocOZdsiFO2pefSpMSgbL-3" edge="1">
          
          <mxGeometry relative="1" as="geometry">
            
            <Array as="points">
              
              <mxPoint x="320" y="270" />
              
              <mxPoint x="320" y="270" />
              
            </Array>
            
          </mxGeometry>
          
        </mxCell>
        
        <mxCell id="ocOZdsiFO2pefSpMSgbL-2" value="Buyer&lt;br&gt;Mr.Trung" style="rounded=1;whiteSpace=wrap;html=1;" parent="ocOZdsiFO2pefSpMSgbL-1" vertex="1">
          
          <mxGeometry x="160" y="240" width="70" height="60" as="geometry" />
          
        </mxCell>
        
        <mxCell id="oY7sUBX3qmHm-3eBmSkk-9" value="&lt;font color=&quot;#ff0000&quot;&gt;Cash*1：&lt;/font&gt;&amp;nbsp;&lt;br&gt;USD 166,722&amp;nbsp;" style="edgeStyle=orthogonalEdgeStyle;rounded=0;orthogonalLoop=1;jettySize=auto;html=1;" parent="ocOZdsiFO2pefSpMSgbL-1" source="ocOZdsiFO2pefSpMSgbL-3" target="oY7sUBX3qmHm-3eBmSkk-8" edge="1">
          
          <mxGeometry relative="1" as="geometry" />
          
        </mxCell>
        
        <mxCell id="ocOZdsiFO2pefSpMSgbL-3" value="H-VN1" style="rounded=1;whiteSpace=wrap;html=1;" parent="ocOZdsiFO2pefSpMSgbL-1" vertex="1">
          
          <mxGeometry x="400" y="240" width="70" height="60" as="geometry" />
          
        </mxCell>
        
        <mxCell id="oY7sUBX3qmHm-3eBmSkk-8" value="HAP" style="rounded=1;whiteSpace=wrap;html=1;fillColor=#ffe6cc;strokeColor=#d79b00;" parent="ocOZdsiFO2pefSpMSgbL-1" vertex="1">
          
          <mxGeometry x="590" y="240" width="70" height="60" as="geometry" />
          
        </mxCell>
        
        <mxCell id="oY7sUBX3qmHm-3eBmSkk-12" value="Creed" style="rounded=1;whiteSpace=wrap;html=1;" parent="ocOZdsiFO2pefSpMSgbL-1" vertex="1">
          
          <mxGeometry x="590" y="140" width="70" height="60" as="geometry" />
          
        </mxCell>
        
        <mxCell id="oY7sUBX3qmHm-3eBmSkk-0" value="" style="endArrow=classic;html=1;exitX=0.5;exitY=0;exitDx=0;exitDy=0;dashed=1;" parent="ocOZdsiFO2pefSpMSgbL-1" source="ocOZdsiFO2pefSpMSgbL-3" target="oY7sUBX3qmHm-3eBmSkk-1" edge="1">
          
          <mxGeometry width="50" height="50" relative="1" as="geometry">
            
            <mxPoint x="160" y="490" as="sourcePoint" />
            
            <mxPoint x="195" y="100" as="targetPoint" />
            
            <Array as="points">
              
              <mxPoint x="435" y="125" />
              
            </Array>
            
          </mxGeometry>
          
        </mxCell>
        
        <mxCell id="oY7sUBX3qmHm-3eBmSkk-6" value="" style="edgeStyle=orthogonalEdgeStyle;rounded=0;orthogonalLoop=1;jettySize=auto;html=1;dashed=1;entryX=0.5;entryY=0;entryDx=0;entryDy=0;" parent="ocOZdsiFO2pefSpMSgbL-1" source="oY7sUBX3qmHm-3eBmSkk-1" target="ocOZdsiFO2pefSpMSgbL-2" edge="1">
          
          <mxGeometry relative="1" as="geometry">
            
            <mxPoint x="180" y="125" as="targetPoint" />
            
          </mxGeometry>
          
        </mxCell>
        
        <mxCell id="oY7sUBX3qmHm-3eBmSkk-1" value="ANGIA株&lt;br&gt;（150,000株）&lt;br&gt;簿価 USD 134,550" style="shape=tape;whiteSpace=wrap;html=1;size=0.1538459190955529;" parent="ocOZdsiFO2pefSpMSgbL-1" vertex="1">
          
          <mxGeometry x="260" y="80" width="110" height="90" as="geometry" />
          
        </mxCell>
        
        <mxCell id="oY7sUBX3qmHm-3eBmSkk-7" value="想定売却利益：&lt;br&gt;USD 40,433" style="text;html=1;strokeColor=none;fillColor=none;align=left;verticalAlign=top;whiteSpace=wrap;rounded=0;" parent="ocOZdsiFO2pefSpMSgbL-1" vertex="1">
          
          <mxGeometry x="400" y="300" width="110" height="60" as="geometry" />
          
        </mxCell>
        
        <mxCell id="oY7sUBX3qmHm-3eBmSkk-14" value="AM_FEE(20%)&lt;br&gt;USD 8086" style="endArrow=classic;html=1;exitX=1;exitY=0;exitDx=0;exitDy=0;" parent="ocOZdsiFO2pefSpMSgbL-1" source="ocOZdsiFO2pefSpMSgbL-3" target="oY7sUBX3qmHm-3eBmSkk-12" edge="1">
          
          <mxGeometry width="50" height="50" relative="1" as="geometry">
            
            <mxPoint x="160" y="430" as="sourcePoint" />
            
            <mxPoint x="210" y="380" as="targetPoint" />
            
            <Array as="points">
              
              <mxPoint x="470" y="170" />
              
            </Array>
            
          </mxGeometry>
          
        </mxCell>
        
      </root>
      
    </mxGraphModel>
    
  </diagram>
  <diagram id="Flc9ht4McA3WByHtXW_s" name="BC27_investmentStructure">
    
    <mxGraphModel dx="782" dy="508" grid="1" gridSize="10" guides="1" tooltips="1" connect="1" arrows="1" fold="1" page="1" pageScale="1" pageWidth="1169" pageHeight="827" math="0" shadow="0">
      
      <root>
        
        <mxCell id="E9v3gTPZ0oTmIHVyKDjV-0" />
        
        <mxCell id="E9v3gTPZ0oTmIHVyKDjV-1" parent="E9v3gTPZ0oTmIHVyKDjV-0" />
        
        <mxCell id="wRgBbQsnzJH4OWioFnap-14" value="Creed&lt;br&gt;Investments" style="rounded=1;whiteSpace=wrap;html=1;" parent="E9v3gTPZ0oTmIHVyKDjV-1" vertex="1">
          
          <mxGeometry x="130" y="70" width="70" height="60" as="geometry" />
          
        </mxCell>
        
        <mxCell id="wRgBbQsnzJH4OWioFnap-15" value="USD&lt;br&gt;3.94M" style="edgeStyle=orthogonalEdgeStyle;rounded=0;orthogonalLoop=1;jettySize=auto;html=1;" parent="E9v3gTPZ0oTmIHVyKDjV-1" edge="1">
          
          <mxGeometry relative="1" as="geometry">
            
            <mxPoint x="200" y="95" as="sourcePoint" />
            
            <mxPoint x="277" y="95" as="targetPoint" />
            
            <Array as="points">
              
              <mxPoint x="277" y="95" />
              
            </Array>
            
          </mxGeometry>
          
        </mxCell>
        
        <mxCell id="wRgBbQsnzJH4OWioFnap-28" value="USD&lt;br&gt;22.6M&lt;br&gt;w/Share&amp;amp;&lt;font color=&quot;#0000ff&quot;&gt;BF&lt;/font&gt;" style="edgeStyle=orthogonalEdgeStyle;rounded=0;orthogonalLoop=1;jettySize=auto;html=1;fontSize=16;" parent="E9v3gTPZ0oTmIHVyKDjV-1" source="27XG4mFWB6485bcw3NnI-1" target="wRgBbQsnzJH4OWioFnap-27" edge="1">
          
          <mxGeometry relative="1" as="geometry">
            
            <Array as="points">
              
              <mxPoint x="671" y="174" />
              
            </Array>
            
          </mxGeometry>
          
        </mxCell>
        
        <mxCell id="27XG4mFWB6485bcw3NnI-1" value="Creed&lt;br style=&quot;font-size: 16px&quot;&gt;Investment&lt;br style=&quot;font-size: 16px&quot;&gt;VN-2&lt;br&gt;w/total amount&lt;br&gt;23.2M" style="rounded=1;whiteSpace=wrap;html=1;arcSize=0;fontSize=16;" parent="E9v3gTPZ0oTmIHVyKDjV-1" vertex="1">
          
          <mxGeometry x="280" y="69" width="210" height="210" as="geometry" />
          
        </mxCell>
        
        <mxCell id="27XG4mFWB6485bcw3NnI-7" value="USD &lt;br&gt;3.25 M" style="edgeStyle=orthogonalEdgeStyle;rounded=0;orthogonalLoop=1;jettySize=auto;html=1;" parent="E9v3gTPZ0oTmIHVyKDjV-1" source="27XG4mFWB6485bcw3NnI-5" edge="1">
          
          <mxGeometry relative="1" as="geometry">
            
            <mxPoint x="270" y="234" as="targetPoint" />
            
          </mxGeometry>
          
        </mxCell>
        
        <mxCell id="27XG4mFWB6485bcw3NnI-5" value="大原　英生" style="shape=umlActor;verticalLabelPosition=bottom;labelBackgroundColor=#ffffff;verticalAlign=top;html=1;outlineConnect=0;" parent="E9v3gTPZ0oTmIHVyKDjV-1" vertex="1">
          
          <mxGeometry x="150" y="214" width="30" height="40" as="geometry" />
          
        </mxCell>
        
        <mxCell id="wRgBbQsnzJH4OWioFnap-2" value="USD&lt;br&gt;0.93M" style="edgeStyle=orthogonalEdgeStyle;rounded=0;orthogonalLoop=1;jettySize=auto;html=1;exitX=1;exitY=0.5;exitDx=0;exitDy=0;entryX=0;entryY=1;entryDx=0;entryDy=0;" parent="E9v3gTPZ0oTmIHVyKDjV-1" source="wRgBbQsnzJH4OWioFnap-0" target="27XG4mFWB6485bcw3NnI-1" edge="1">
          
          <mxGeometry relative="1" as="geometry">
            
            <mxPoint x="190" y="375" as="sourcePoint" />
            
            <mxPoint x="267" y="375" as="targetPoint" />
            
            <Array as="points">
              
              <mxPoint x="200" y="310" />
              
              <mxPoint x="280" y="310" />
              
            </Array>
            
          </mxGeometry>
          
        </mxCell>
        
        <mxCell id="wRgBbQsnzJH4OWioFnap-0" value="Koterasu&lt;br&gt;Properties&lt;br&gt;(山口)" style="rounded=1;whiteSpace=wrap;html=1;" parent="E9v3gTPZ0oTmIHVyKDjV-1" vertex="1">
          
          <mxGeometry x="130" y="279" width="70" height="60" as="geometry" />
          
        </mxCell>
        
        <mxCell id="wRgBbQsnzJH4OWioFnap-9" value="USD&lt;br&gt;3.48M" style="edgeStyle=orthogonalEdgeStyle;rounded=0;orthogonalLoop=1;jettySize=auto;html=1;" parent="E9v3gTPZ0oTmIHVyKDjV-1" source="wRgBbQsnzJH4OWioFnap-3" target="27XG4mFWB6485bcw3NnI-1" edge="1">
          
          <mxGeometry relative="1" as="geometry" />
          
        </mxCell>
        
        <mxCell id="wRgBbQsnzJH4OWioFnap-3" value="&lt;font style=&quot;font-size: 11px&quot;&gt;グローバル&lt;br&gt;エルシード&lt;/font&gt;" style="rounded=1;whiteSpace=wrap;html=1;" parent="E9v3gTPZ0oTmIHVyKDjV-1" vertex="1">
          
          <mxGeometry x="130" y="144" width="70" height="60" as="geometry" />
          
        </mxCell>
        
        <mxCell id="wRgBbQsnzJH4OWioFnap-7" value="USD&lt;br&gt;11.6M" style="edgeStyle=orthogonalEdgeStyle;rounded=0;orthogonalLoop=1;jettySize=auto;html=1;entryX=0;entryY=0;entryDx=0;entryDy=0;" parent="E9v3gTPZ0oTmIHVyKDjV-1" source="wRgBbQsnzJH4OWioFnap-8" target="27XG4mFWB6485bcw3NnI-1" edge="1">
          
          <mxGeometry relative="1" as="geometry">
            
            <mxPoint x="280" y="24" as="targetPoint" />
            
            <Array as="points">
              
              <mxPoint x="280" y="24" />
              
            </Array>
            
          </mxGeometry>
          
        </mxCell>
        
        <mxCell id="wRgBbQsnzJH4OWioFnap-8" value="HAP" style="rounded=1;whiteSpace=wrap;html=1;fillColor=#ffe6cc;strokeColor=#d79b00;" parent="E9v3gTPZ0oTmIHVyKDjV-1" vertex="1">
          
          <mxGeometry x="130" width="70" height="60" as="geometry" />
          
        </mxCell>
        
        <mxCell id="yreB7QAmXo7YwXASIIE4-4" value="" style="group" parent="E9v3gTPZ0oTmIHVyKDjV-1" vertex="1" connectable="0">
          
          <mxGeometry x="530" y="330" width="281" height="130" as="geometry" />
          
        </mxCell>
        
        <mxCell id="yreB7QAmXo7YwXASIIE4-16" value="" style="edgeStyle=orthogonalEdgeStyle;rounded=0;orthogonalLoop=1;jettySize=auto;html=1;fontSize=16;" parent="yreB7QAmXo7YwXASIIE4-4" source="wRgBbQsnzJH4OWioFnap-27" edge="1">
          
          <mxGeometry relative="1" as="geometry">
            
            <mxPoint x="140.5" y="210" as="targetPoint" />
            
          </mxGeometry>
          
        </mxCell>
        
        <mxCell id="wRgBbQsnzJH4OWioFnap-27" value="Hold Co" style="shape=ext;double=1;rounded=0;whiteSpace=wrap;html=1;fillColor=none;fontSize=16;align=center;verticalAlign=top;labelBackgroundColor=#ffffff;fontStyle=1" parent="yreB7QAmXo7YwXASIIE4-4" vertex="1">
          
          <mxGeometry width="281" height="130" as="geometry" />
          
        </mxCell>
        
        <mxCell id="yreB7QAmXo7YwXASIIE4-1" value="AGI&amp;amp;HVC consultant joint stock company" style="rounded=1;whiteSpace=wrap;html=1;" parent="yreB7QAmXo7YwXASIIE4-4" vertex="1">
          
          <mxGeometry x="180" y="40" width="70" height="60" as="geometry" />
          
        </mxCell>
        
        <mxCell id="yreB7QAmXo7YwXASIIE4-2" value="AGI&amp;amp;DDC consultant joint stock company" style="rounded=1;whiteSpace=wrap;html=1;" parent="yreB7QAmXo7YwXASIIE4-4" vertex="1">
          
          <mxGeometry x="21" y="40" width="70" height="60" as="geometry" />
          
        </mxCell>
        
        <mxCell id="yreB7QAmXo7YwXASIIE4-3" value="AGI&amp;amp;GLC consultant joint stock company" style="rounded=1;whiteSpace=wrap;html=1;" parent="yreB7QAmXo7YwXASIIE4-4" vertex="1">
          
          <mxGeometry x="101" y="40" width="70" height="60" as="geometry" />
          
        </mxCell>
        
        <mxCell id="yreB7QAmXo7YwXASIIE4-7" value="Project Co" style="shape=ext;double=1;rounded=0;whiteSpace=wrap;html=1;fillColor=none;fontSize=16;align=center;verticalAlign=top;labelBackgroundColor=#ffffff;fontStyle=1" parent="E9v3gTPZ0oTmIHVyKDjV-1" vertex="1">
          
          <mxGeometry x="530" y="540" width="281" height="130" as="geometry" />
          
        </mxCell>
        
        <mxCell id="yreB7QAmXo7YwXASIIE4-8" value="Koterasu&lt;br&gt;Properties&lt;br&gt;(山口)" style="rounded=1;whiteSpace=wrap;html=1;" parent="E9v3gTPZ0oTmIHVyKDjV-1" vertex="1">
          
          <mxGeometry x="710" y="580" width="70" height="60" as="geometry" />
          
        </mxCell>
        
        <mxCell id="yreB7QAmXo7YwXASIIE4-9" value="Koterasu&lt;br&gt;Properties&lt;br&gt;(山口)" style="rounded=1;whiteSpace=wrap;html=1;" parent="E9v3gTPZ0oTmIHVyKDjV-1" vertex="1">
          
          <mxGeometry x="551" y="580" width="70" height="60" as="geometry" />
          
        </mxCell>
        
        <mxCell id="yreB7QAmXo7YwXASIIE4-10" value="Koterasu&lt;br&gt;Properties&lt;br&gt;(山口)" style="rounded=1;whiteSpace=wrap;html=1;" parent="E9v3gTPZ0oTmIHVyKDjV-1" vertex="1">
          
          <mxGeometry x="631" y="580" width="70" height="60" as="geometry" />
          
        </mxCell>
        
        <mxCell id="yreB7QAmXo7YwXASIIE4-20" value="" style="group" parent="E9v3gTPZ0oTmIHVyKDjV-1" vertex="1" connectable="0">
          
          <mxGeometry x="718" y="20" width="450" height="270" as="geometry" />
          
        </mxCell>
        
        <mxCell id="yreB7QAmXo7YwXASIIE4-18" value="" style="shape=image;verticalLabelPosition=bottom;labelBackgroundColor=#ffffff;verticalAlign=top;aspect=fixed;imageAspect=0;image=data:image/png,iVBORw0KGgoAAAANSUhEUgAAAaUAAAFeCAYAAAAlhwB0AAAgAElEQVR4AeydzZUcTW5Fxy3ZISdkg1yQBbJADsgAGaC9Vlxor63W1Lk9usNHDCJ/uquqM1mIc2oiMwI/Dw8IRJFzvuJffs4YBoaBYWAYGAYuwsBfLoJjYAwDw8AwMAwMAz/nUpoiGAaGgWFgGLgMA3MpXSYVA2QYGAaGgWFgLqWpgWFgGBgGhoHLMDCX0mVSMUCGgWFgGBgG5lKaGhgGhoFhYBi4DANzKV0mFQNkGBgGhoFhYC6lqYFhYBgYBoaByzAwl9JlUjFAhoFhYBgYBuZSmhoYBoaBYWAYuAwDcyldJhUDZBgYBoaBYWAupamBYWAYGAaGgcswMJfSZVIxQIaBYWAYGAbmUpoaGAaGgWFgGLgMA3MpXSYVA2QYGAaGgWFgLqWpgWFgGBgGhoHLMDCX0mVSMUCGgWFgGBgG5lKaGhgGhoFhYBi4DANzKV0mFQNkGBgGhoFhYC6lqYFhYBgYBoaByzBwqUvpn//5n3/+5S9/+fj867/+628k/cd//Mff9n7bmJenMPBP//RPf+O75uIpDsfoMDAMDAM/f/687KXE5fTf//3ff0vSXEp/o+JTD14yR5T/53/+528XEnn4h3/4hyNqD5X5z//8zw8M//7v//5Qu2NsGBgGrs3ApS8l/uTkmEtJJs7Peckc0eYi4DLiIuNC4plL4pWDP53hdy6lV7I+voaB72fgkpdS/jWezbC7lP73f//3p82LBsYHXZqwQ1s0N/+0gBzP+Scx5euM39TLRqltZkeHU2z405Z/Jba1h7w+lMsm7eXxb//2bz//5V/+5SN+5LhIwMH4r//6r5//+I//+Lc97bC+GmLEvvyKVx19aw+fYss43ScO+d6LK2NJfXwTV40HbNTCjGFgGLg/A5e8lGhuNkYaEKNr9srYuJxpkDap2tSVYdb2Ko3+FVLq8Gzz1Tazo8NZ9dPGag/8/imFOL0ckOcSYtSLodricubySZ6wwycvbrEzc2Foh2c5SE5dQ44LRPvi8h1+EzcxHYkLO2IwdmJFN9e9vJCZMQwMA38GA5e9lGimNiAaUm32uc8eI/+aql4c2LIRZ9OzUdqsnVn30qG58s5g1o77Zy4lcX0Y4//U+/8/4THnHs+s5WUgB6wxlEFODvLC4LnKfSxs/I82s9F7OXb2ErNmlceGXLmn/a24kJWXtJ8XJhfSjGFgGPjzGLjspQTVfhOmgWWzZc/mRvPKxscFwppNy4sjm6zNXV30bYLOrNlcuai6oe2jl5J/kkhb+qt7xu5+ncGXHHhpZixeVCmXvrtneKq+fJdTfMgze/CU+NMf+/DjXxceiQtc+sRWDjl3n9yAZ8YwMAz8GQxc+lLKBpvNEuqz8WVTslnaQG1iq4sDXRq6f0JyZu0zl1LiskRsoLXBsr/as3mDQUw5g6/zlZydvZTyTyLiyhksXn5g5yKSb+SSYy4hY9BGrm3FtcULe8Sd9VBxITNjGBgG7snApS8lKKXx2dScWc+/vrPZZ0P2m/uRS2mVOhsfjddmzGyz1zb7DnXA6hC3OF1nXu3lhZOXLjpcHoyU+Vgof4UpzpQzDuVzVo4mnwMdcWLTP/Uow2XpPmu5nznBvj6QX8WFDe2ZR9aQTx2wKJc+xTXzMDAM3I+BX53zAtht8jQuBw2RJmnzYXbUb+LKIG/z0iazI5uZcu7lnHLaZqYJM7LB5r7P2vI949rbI+78Uwg+jbfzrz3i0R/4GflXn3VPPWb94acOL1v2jJs1sJgf3hn6YE/+WQPHkbiwoT9tgc0vIvjDdspgd8YwMAzcn4FfHf4CsdjAavO2CdqgEirNyXVmbPgnCeS0yezIy2brUkIe3zZd7PNss2ffi4I9Gmdi1Z/4alzsb+2BLe3rQ/+dr+5SqjixU/9kkX911+HMP7FyuXiBiR9+5bJihrO0uRcXeMGXPrSfFxG+ea+xyPvMw8AwcD8GLnUp3Y++QTwMDAPDwDDwSAbmUnokm2NrGBgGhoFh4EsMzKX0JfpGeRgYBoaBYeCRDJy+lH78+PFzPsPB1MDUwNTA1MAzauD0pfTIG3FsDQPDwDAwDAwDycBcSsnGPA8Dw8AwMAx8KwNzKX0r/eN8GBgGhoFhIBmYSynZmOdhYBgYBoaBb2VgLqVvpX+cDwPDwDAwDCQDcyklG/N8SQb4ZYf8RY5LghxQT2XAXyrJXwbpHE6tdKzca+32l5I/M5Q/LVRTQCF3P09jgTP7cznM2FyNKquNlbzrad9nMPmTQcr5+27KOPPTPasY0aFpK8vc2dYHM4dc7tSrPweU8t/5fLVGA9dgylG57PinVmodYmuV17S/9fyZ/G/Zu8JevYTq+wrjV2uFPNbcrnzN+nMYuPWllD/Wmr8mnVTZrGnqXgA0B4rPd+S9DHIt7fDs78Ohy7ARcWD2Bo1fPWTBILbE3uFg32bG787lAK+XkBckM/FiqxvEwQXEB0zwiB2etdHpfddabTTwkVw+EtcR2/VSAgs5MI9wyFpeNsqgC9dwzhrvX/kx2c/k/5F8PcpWvcTlxxqeS+lRTF/fzq0vJQ8kzYAGWw83zYFmcaTRdpdBTZ+/tu1Bqe9VPt/rpeQe2NnT5hYODm7GSby8s35m0AjRO3KZnrH7LNl6KYGdhv6MccR2vZTIH18CVsOcemmt5M6ufzb/Z/08W94ve5zn1ZhLacXMn7d+60uJ5sDHgq1FfaZh2ziqjUy5TcCGyGVAw6yXYer4vLqU0M2mtoXDS9BL1ku3/ulJn91sAzjSILEPh+DjI9fahQc4EIdy4kOO3CDjHrO+V7HWpu+lJP9piz39cDHkXl4UfoEBGzrKKbNl23idKz44Ym01xHWkTlY2unV5P5J/cmXMzNawduGENbEiwxo5YrBOnHUgk1+K0g/yWQvswZO5wIc1XbF5ptX3HRtZT9hLXsGTuUCPd+2ja0w1Ft6xj42tkTFil/cc2E+MyBgHcsZg/sSWMmnv3Z5veylZpB5ICq8WI8m2Ae4ldtUgq14eKIo3/4qmyuZ7V7zuU8AehC0cHL604+HIQ6nN1Sx+eduTs2kTpzj1p3/W5cEGkO/sq8PBAwNjFSs25AM5njO3yYH4sQ8e/RqnvnzHlms2hWwGnW19OFd82iFObSvLjE/2Hj3kX25X9pUzTjByYZhbMRI7a9jjfIHZi8jLI+sGrtHRLn6QJ68Mzh77ciIOLyv08dPVgedb276nv1UcWStyjz5xsYcN3rsBRnRWwxjE1WEgLuTMizr69B1+rVdx+b7y/w7rt72UKAoPDImiOLLYLHSLx2Qikx/XlfcAuZ4zRUUhqV9tp2x9Rodi7EY2uT0cacdC7myu1sCMDfxsDeLkk4MDg65xe7jyICkjj9rxgKa9VazJB/I0CdYcyYFr3YycX0qsD7ErTw1lXo7YrviwhX1rw6arD2wmfte3Zi8Gas5mVuWxie2tgZ3kQVnrwNzBcZ4n5JTRP/t5kXnp4EM/lV/sqmO91Nrr6gCf4Nae79oyjsTAWtaKF6kxsq8d7WrHGYzY6IYxWlPKyFP6cY/Z+LzQ5SHleSZez03qv9vzdkVfmA0OCEmsH4vNJPteQ6kH2sLZKgqKlQ+FbSFq3wNQD5x+wZnNz3VmGzfPWzjqobC409bes815hVN98NbDx17G0fn30MsjeYAz9Ggo6XcVa2366GdTTwzixa942Pcj56u4sa1MjU/bda74cp94rS1ro+JP+dVzjYX46lCmrue7HNsQ3XPdPHUY5Uzf9QLgDMqd9uQ9Z7/crPCqKxYwWkdyWN+NQ4zYYGQcntHE4nNX2+iDERvdEOcel8hR6/pyNr6OB+NTpvP/Lmu3vJS8AGgAOWpBcWiymaWsjcM1C25VFPrMgrTombcaFT4oTPDV4UXj3hYOMYhR/+gcHXuXtXbA2x3cjOPM4QKznO/FWrnMRgO+xCBeZPhkTaQc/nmvXKEjnpVtfThXfK7nTCPGNoMGRS2S66ODOMDsp9M7kn/rKesWW65jnwFW4sohZ15KWTvWonxqr/pJe129sK+uWFizSRNj9/6xGH9DIo6MQ37O8A5G86YPZ3HWGF0Hv7jJv35zH1sdD+olB/p9t/mWlxKH3G9fmbB6UEx+LSJ0bJDq18Jx3Vnb1ZaFT8PLhqieczZI15j9RoV/xgoHBc5hyeZmIXdcpI/6rB30VwOb1W42JfTkN22IaXW45Au5ak87xJiNgedsmJXLzo44wMgAzysvpby49N1d8sb8mdkYa57SFnVD3NW3ebBmK8fJGX4c+CI26jZzpB/5Vj7nrl7Y72re2MDJ8B2/OYiL+LwAMg7P7KoW047PYMy4XGc2xi0u5dXzjJ75F0fHg/Epk37f7fl2l5KFYbHWhNHQPBjIcohsYhYKiafwWHd0B8M9ZmzZLC0cilP72FphQl8M2kRW3dSrOPDrQcGGMaQd1rGlHfChk81EeWabOBx4wFhDR/vYwK5NgH18oAMmBvLI5KiHC0zyhRwNzYtVTrErVi/pbAw856VkHsTBDA5lsCW3YGQYj/GJGdvKsFZtK5czfsSHLzBjAxy8y4v5QNe4mMXAvvyn/TPP2NjLf8UDF8QJFkflmHU5Mzes6Q/9jI89/TAz4INn43X/YzP+x3pMPPgkLn34nmtH4iCuxGqdZ0wB5QOvuc11n41BXBWDF6H7xI49cCPL0IY2mY1Pmdx7t+ffO8oNoifZJJji6gYJpwhtWMhw8FlDzw+FYkPQpnvY6IaNWTlmZCkobeTBShup4zPNzQOrLO/u56wf5XKmkG3C6mSjT1mfiQX/yjPDUeLBrgeKfeTzMIOJ9Rz1cCmjH3ClD56rD3RYc/CMbwc6mU/WwaoPZnKLL2zlfvpmHdvK8N7Z/jAQ/wMW8VFnHY82pVD7qJHEDc6MK2XPPB/Jv/UpRxkzvirHrMlp5px4tZHr4q1+sCvn+ES3G6kHJ9aRPOZ71jrnLc96jYM9ZMTMvHU2xJjyPCdfibXuEVvaIN/Kw2fuJw/Gp0zuvdtzXyHvxsLEOwycYICmxmfGMDAMPJ6BuZQez+lY/AMZ4JssH7/1+g3+Dwx1QhoGvpWBuZS+lf5xfhcG+Cso/0qHv17KvzK6SwyDcxi4AwNzKd0hS4NxGBgGhoE3YWAupTdJ9IQ5DAwDw8AdGJhL6Q5ZGozDwDAwDLwJA6cvpR8/fvycz3AwNTA1MDUwNfCMGjh9Kb3JZT1hDgPDwDAwDHwDA3MpfQPp43IYGAaGgWGgZ2AupZ6XWR0GhoFhYBj4BgbmUvoG0sflMDAMDAPDQM/AXEo9L7M6DAwDw8DlGOC38R79ayLYu9Jv7s2ldLmyG0CVgfojm3V/3v98BvzB0r2G/CfXChz4A6+PzDgXEnaxf4Vx+0vJX+Rd/Wo4JFPI+cvC/FwM7xY4sz8h0/3qbyaqymojZbrntO8zGOo3lPw5G+WY+aXjVYzo1F+q7mwnLgpQ7vTzjIJPn599vlqjgWsw5ahcdvxTK6zLNzO2VnlN+1vPn8n/lr0r7NVLqL6vMH61Vshjze3K16vX/dcO8ieuspZ8psaoCceqpyAPr9jj7PuvJqj3XfOtLyXJhNwVoTZrmroXAM2B4vMd8k1crtWk0DzwhS7DRkRi90bqIQsGsSX2Dgf7NrP6jwyCF9vse0EyE28WZuIjDoqQDzHAI3Z41kbKf/dzbTTwYQ4eje2I7XopWQfmEQ5Zy8tGGXThGs5Z453nz47P5P+zvp6pR/0Si0N+rOG5lP76z4twrnN0fcVeYV+yp2ydbWqXfvCVWkxcX3m+9aXkgVwRShJI2lYyJM/E5cFwz9l/wMuDUt+V6+ZaPMqAnT1tbuGg2LJwKCDeWT8zaIToWbRndL9Dtl5KYKehP2McsV0vJfJXm0ViM6deWrn3lefP5v8rPp+h65e9rbP37pfSiqOur9iX5NP62+qD6tiHnpHnozZvfSnRHPhYsCbB4M80bBNXbWiL2SZgQ+QyoGEe+XbRFY82s6lt4bBwLC4vXdaPDov7SIPEPhyCj49c6wse4EAcyokPOXKDjHvM+l7FWpu+l5L8py329MPFkHt5UZBX9sCGjnLKbNk2XueKD45YWw1xHamTlY1uXd6P5J9cGTOzNaxdOGFNrMiwZpNinTjrQCa/FKUf5LMW2IMnc4EPa7pi80yr7zs2sp6wl7yCJ3OBHu/aR9eYaiy8Yx8bWyNjxC7vObCfGJExDuSMwfyJLWXSHs9yRjw5Vv5Zt5d5zrbsy++WTPp95vNtLyVJ9EBSeLUYSYwNcI9EE2ciV/IWB7Yp3vwrmpUO613xKE8BexC2cHD40o6HIw+lNlez+OVtT86mTZzi1J/+WZcHG0C+s68ORS/Hq1ixIR/g4zlzmxyIH/vg0a9x6st3bLkGFmzlQexs68O54tMOcWpbWWZ8svfoIf9yu7KvnHGCkQvD3IqR2FnDHucLzF5EXh5ZN3Cd/OEHefLK4OyxLyfi8LJCHz9dHXi+xex7+lvFkbUi9+gTF3vY4L0bYERnNYxBXB0G4kLOvKijT9/h13oVl+/VP1zCmzbdJxbsOdjHLjEoK79iVrbO6KStuv+q99teShDsgYEsiiOLbZUIZPIj0cp7gFzPmaIi4ervJTl10VklPJvcHo60YyGnn71nMGMDP1uDOPnk4MCga9werjxIysijdjwgaW8Va/KBPIeFNUdy4Fo3I+eXEutD7MpTQ5mXI7YrPmxh39qw6eoDm4nf9a0Zvqg3P50sNrG9NbCTPChrHZg7OM7zhJwyNlP28yLz0sGHfiq/2FXHeqm119UBPsGtPd+1ZRyJgbWsFS9SY2RfO9rVjjMYsdENY7SmlJGn9OMes/F5octDyvNMvJ6b1Od5hQud7pO29V/lak0SN36+e2xX9Hej2/DPAakk826xmWTfq6l6oE3cqijQJ2l8KGwLUfseAOx0A2yrhNu40dvCUQ+Fxd35W63ZnFc41QNvPXzsZRydfw+9PJIHOEOPhpJ+V7GSG3QcPOcBSgzK4Fc87PuR81Xc2FamxqftOld8uU+81pa1UfGn/Oq5xkJ8dShT1/Ndjm2I7rlunjqMcqbvegFwBuVOe/Kes19uVnjVFQsYrSM5rO/GIUZsMDIOz2hi8bmrbfTBiI1uiHOPS+SodX05G1/Hg/EpU/2vcGGbPQd2rD9xilsula0zcaetuv+q91teSl4A+W0AwmriODTZzJJUE+eaiVsVhT5NNHoWPTP2VsWMbC0e/XrRWAxbOMQgRv2jc3TsXdbaAW93cDMOMPOeY3W4wCzne7FWLrPR4Csx6BsZPlkTKYd/3itX6IhnZVsfzhWf6znTiLHNoEFRi+T66CAOMPvp9I7k33rKusWW69hngJW4csgZOWVk7ViL8qm96iftdfXCvrpiYc06Isbu/WMx/oZEHBmH/JzhHYzmTR/O4qwxug5+cZN//eY+tjoe1EsO9MvMWexqKGs85bP36V8uUy6fiTvPQu698vn3jvJKz1/wxSH321eaqQfF5NciQscGqb6JWxWFtqstC5/iyIaoXedV8fiNCv+MFQ4KnKLJwrSQOy70283aQX81sFntZlNCT37ThphWPMoXctWedogxGwPP2TArl50dcXjIwIOePOsL28qwVm0rl/ORSyll9N1d8mn37LMx1jylHeqGmKpv82DNVo6xIW78OPBFbNRt5kg/yaU6zl29sNfVvLHZSH3Hbw7iIj4vgIzDM7uqxbTjMxgzLteZjXGLS3nNOpNHcXQ8GJ8y6ZdnbWQuWF/V69lLSf/yXf2/8v12l5KFsSKPZHgwkOUQmTgLhQRTeKw7uoPhHjO2bJYWDsWpfWytMKEvBm0iq27qVRz49aBgwxjSDuvY0g740KkFrI5NHA48YKyho30PgU2AfXygAyYG8vjOYXHLEZh8Ro6GBo/YkFPsitVLOhsDz+g5zIM4mMGhDLbkFowM4zE+bWFbGdaqbeVyxo/48AVmbICDd3kxH+gaF7MY2Jf/tH/mGRt7+a944II4weKoHLMuZ+aGNf2hn/Gxpx9mBnzwbLzuf2zG/1iPiQefxKUP33PtSBzElVit84wpoHzgNbe57rMxiKti8CJ0n9ixB25kGdrQJrPxKZN7PMtR3ccu9hzIUZ/JExjyXdmcxW2ucu/Vz793lFd7/4Q/kg3BkN8NEkQR2rCQ4eCzhp4fCsWGoE33MsnpA582u5SloLSRByt1lc+Z4qlFYAGlHM9gWh0kCrXiykafOHzO4tUXHCUe7HqgkAFvYgAT6znq4VJGH+BKHzxXH+iw5uAZ3w50Mp+sg1UfzOQWX9jK/fTNOraV4b2z/WEg/gcs4qPOeE/fYLMphdrHWuJGJ+NK2TPPR/JvfYozY8ZX5Zg1Oc2cE682cl281Q925Ryf6HYj9eDEOpLHfM9a57zlWa9xsIeMmJm3zoYYU57n5Cux1j1iSxvWAnLwmfvJg/Epk3s+E1vtLxUn7/pUD/5Zl0vXc7ZHJpe5/8rnvkJeiWB8DQM3Y4CmxmfGMPBKBrhUuHAefXFgD7t58b4yruprLqXKyLwPAw0DfJPl47fkrW+djfosDQNfZoD6q38K+rLR//8TMXaxf4Uxl9IVsjAYLs+AfwXCX4Pw10uP/rZ6eQIG4CUY4K/3Hv2FCHtbf2346sDnUno14+NvGBgGhoFhYMnAXEpLamZjGBgGhoFh4NUMzKX0asbH3zAwDAwDw8CSgdOX0o8fP37OZziYGpgamBqYGnhGDZy+lJbX22wMA8PAMDAMDANfZGAupS8SOOrDwDAwDAwDj2NgLqXHcTmWhoFhYBgYBr7IwFxKXyRw1IeBYWAYGAYex8BcSo/jciwNA8PAMPBUBp7xH8+eBczvZvKTREf/A3LkkF/9Xmn1P5dSZWTeL8dA/ZHNywEcQE9ngJ/A2ftRUUD8ybXyrJ8ZOps8frwVns8MLqWjvxd5+0uJYCnWrVuYn9GAEOT88O7PdTC7zozN1aiy2ljJu572fQZD/XmP/Dkb5Zj5deBVjOjUX6rubIuFmQKXO/0843e10udnn6/WaOC6HsrKZcc/tcK6fDNja5XXo3x9Jv9HbX+XXL2E6vsK11drhTzW3K58vXq9+yVvcl9rihj8kdX6q+JiZp3z7jjTD/CXduEra5pn9rHpsK/Vf4/O/ZxvfSlJPCSQsG7YrCHJC4DmQOJ8R0/Scq3ao3ngC10GM+9JftXxPfVYA4PYEnuHg30LryYVvNhm3wuSmXix1Q3ioCD5WMDY4Vkbnd53rdVGAx/m4NGYjtiul5J1YB7hkLW8bJRBF679Kw3eef7s+Ez+P+vrmXrUL7E45Mcankvpr38KzMtATuAOnninzjzD1lytL96zH53pB+jSNzJXnE98OTgHyNTLHZzU+9649aXkgZSESj7JgXyTtEVGdxlU+foPYdX3Kp/vWQS5Dnb2PHxbOEgqyTZOC4T1M4PCwM6Ry/SM3WfJ1ksJ7HkIHun3iG34ywNH/rJZVDzm1Eur7n/2/bP5/6y/Z+n5ZS8bXfVlA947y7VWqp29d+oqc7sn/6r9jiP7W375STzWXeVVPXvOmX5gz8veAV/1PNrXUm7VpxMzz7e+lCCTjwVbyafBHG3YqwQmYTYBE4BtEuIlkbL1eXUpoZtNbQuHBeHBtLhYPzos7iMNEvtwCD4+cq0veIADcSgnPuTIDTLuMet7FSt+sjHwzJr8py3l8MPFkHt5UfgFBmzoKKfMlm3jda744Ii11RDXkTpZ2ejW5f1I/smVMTNbw9qFE9bEigxrNi7WibMOZPKMpR/ksxbYgydzgQ9rumLzTKvvOzaynqwLcYEnc4Ee79pH15jUyRn72NgaGSN2ec+B/cSIjHEgZwzmT2wpk/Z4ljPicai/FU9Xm/BhLs/0A/x2/MBX5UBsidcYVpeocd32UrJIPZAQXYuRZNsADXg1k1jkIW5rSCyyJGOPYG0hXxPnHgXsQdjC4QWmHWbsnml24pc3MdRZOZs2cYpTf/pnXR5sAPnOvjoUqxyvYsWGfICL58xtxyX2waNf8evLd2y55sFhdnS23XOu+LRDnNpWlhmf7D16yL/cruwrZ5xgpCmZWzESO2vY43yB2ebl5ZF1A9foaBc/yNskOXvsy4k4kEEHffx0deD51rbv6W8VR9aK3KNPXOxhg/dugBGd1TAGcXUYiAs586KOPn2HX+tVXL5X/3AJb9pkn2ewEk/6S11zoB4z8vZF8POeeU39+ow/fOWoa+STtcwD8sSGL+shbeTzbS8lisIDQ0CSa+ItdIvHoCElP64rv0UYtikk9attbXUzOjWZypE8ksjYw5F2LGTtHJnBjA38bA3i5JPDojJuD1ceJGXkUTseirS3ijX5QL4WeHKQ9uozcvXwiV1ZaijzcsR2xYct4rU2bLr6wCY6ZwZ8UW9+Ot0j+a9NSDvWgbmD4zxPyCnjmWI/L7JsePqp/GJXHeul1l5XB/iEN+35ri3jSAysZa14kRoj+9rRrnacwYiNbhijNaWMPKUf95iNz8YvDynPM/F6blKf5xUuMGnPOjNf6GnXeCtW32tOqn/e5c44lIEvfOcHTGDLof4qRmVveylxQJIEnyW/JsOAneuBtnC2CIN8PpBrMvXnAVglF3wkqhs2bva2cNRDYTF2NldrxAeWFU71kKmHj72Mo/NfC488WLQ0lPS7irU2ffSzqScG8eJXPOz7kfNV3NhWpsan7TpXfLlPvNaWtVHxp/zqucZCfHUoU9fzXY5rI3Hdeu8wypm+6wXAGZQ77cl7zn65WeFVVyzgt47ksL4boxixwcg4PKOJxeeuttEHIza6Ic49LpGj1vXlbHwdD8anTPW/hUtZ4iUn4M8LITmptVv501Y3az9tI4d98DHkyLylnb0Ylb3lpeQFQAPIURNHgrKZpayNwzXJXBWFPrMgLXrmmmztOlOYJs41Zi8a97ZwiEGM+kfn6Ni7rLUD3u7gZhxg5j3HqvDALJmOwUsAACAASURBVOd7sVYu81DhKzHoGxk+WRMptzp8eaBWtvXhXPG5njONGNsMGhS1WA9zytdn4gCzn7rP+5H8W09Zt+i6jn0GWIkrh5yRU0bWjrVo7Wmv+kl7Xb2wr65YWLOOiLF7/1iMvyERR8YhP2d4B6N504ezOGuMroNf3ORfv7mPrY4H9ZID/TJzFo/UkHlJO/KQ+dN2t+Zenaljv2DkHnx5plmnjjqsezFq8/eO4urF5xU5JsQCNfm1iCQuG2otnEqBtqstE44tErwa2SBTxm9UYl7hoMBJfibbJHeFkj7qs3bQXw1sVru1gOU3bYgpD0Xuyxdy1Z5yxJiNgedsmJXLzo44PCzgQU+e9YVtZVirtpXL+cillDL67i75tHv22RhrntIOdUNM1bd5sGYrx9gQN34c+CI26jZzpJ/kUh3nrl7Y62re2MDJ8B2/OYiL+LwAMg7P7KoW047PYMy4XGc2xi0u5TXrTB7F0fFgfMqkX561kbmoMrx3XHo+iAuuzLn6rHPm9mwjV2PHBuuZd2OpssZQ/YvD+XaXkoVhsRqIM+RKELIcIhuNhQI5Jki9LpnuMWPLZmnhQLr28bHChL4YtImsuqlXceDXg4INY0g7rGNLO+BDZ1VkWaQWDmvoaN8Csgmwjw94AxMDeXznsCDlCEw+I0dDg0dsyCl2xeoljR8Hz+g5zIM4mMGhDLbkFowM4zE+bWFbGdaqbeVyxo/48AVmbICDd3kxH+gaF7MY2Jf/tH/mGRt7+a944II4weKoHLMuZ+aGNf2hn/Gxpx9mBnzwbLzuf2zG/1iPiQefxKUP33PtSBzElVit84wpoHzgNbe57rMxiKti8CJ0n9ixB25kGdrQJrPxKZN7PMtR7uMDW67xTt0Tr2dDO54H5jq0DU7rUZ7MnTL1Szm20ANHDmNMnrHdYUs9nn/vKHX3gu8QT4IhqRuQUQOXDPT8ZAK06V4lWD/4NLkpC/HayIOlHrPyOdPcTLqyvKeMz2DKBCvPTFFWXLyv5NEhFvxrnxneEg92PVDsI582LbzEwj6yHhRl9AOu9MFz9YEOaw6e8e1AB6zaZB1/vjOTc3xhK/fTN+vYVob3zvaHgfgfsIiPw9/xSD3UwVriBmfGVeWPvh/Jv/UpRxkzfirHrMlp5px4tZHrYq1+sCvn+ES3G6kHJ9YR64x8z1rnvGUDrnGwh4yYmbfOhhhTnufkK7HWPbCmDfKtfD0TyYPxKZN7PhNb9hdku3rqeqMY5FObznv9AD18Jdfqgiv5Yd14Ei+8H6n3vkL0NvMwMAz8HQMcLj4zhoFXMrB1MTwbB5fJkQtlhYMvJlzgW5euunMpycTMw8AGA3zz47P3jXPDxGwNA19igPrzT15fMnRSmT8dfdUvf5I6+kVuLqWTCRrx92TAb3p82+MbY/fXGO/JzET9Sgb4k8bqr+CehYNa51Lp/lrwiM+z+nMpHWF1ZIaBYWAYGAZewsBcSi+heZwMA8PAMDAMHGFgLqUjLI3MMDAMDAPDwEsYOH0p/fjx4+d8hoOpgamBqYGpgWfUwOlL6SVX5TgZBoaBYWAYeEsG5lJ6y7RP0MPAMDAMXJOBuZSumZdBNQwMA8PAWzIwl9Jbpn2CHgaGgWHgmgzMpXTNvAyqYWAYGAbekoG5lN4y7RP0MDAMDAPXZGAupWvmZVAFA/WXn2NrHp/IQPcL2E9091TTU0NPpfehxm9/Kfkz8Vu/y8RvRfFjgBwyP7z7G1L+yKZ79WfYk/Eqq42U6Z61nTMY6q/m5m+spSw/Ab+KER1+jy3lO9uJix93lDv1vvqji2n/kc9XayhwDaYclcuOf2qFdflmxtYqr2l/65kaqnapF3L8lQE+zwK2eD9a71/x+xldzkDlAOz+RuHVaugzMb6Lzq0vJQqORsph8R+nqomzWXNIvQA4WBSs7+h4GeRatUXzyINqIzpy+FMPu2AQW2LvcPhvA2Gj/iNb4GWdA2nDYCZebHWDOOCNjwcXOzxro9P7rrXaUOADrM8YR2zXS8k6MI9wyFpeNsqgC9f+SCXvNs7PxIOvmn9wwBn5TQxn7WfNindVU2dtP1LeC5MzAD7e4TtrudbQI/2PrccycOtLyYbMIeQA1sPtgc3iXNHXXQZV1n9V0oNZ36t8vucBz3Wws6fNLRwcuoyTeHln/cygEaJ35DI9Y/dZsrWhgJ2m84xxxHa9lMgfXwJWw5x6aa3kzq7bjDvf1gZYPztWNftZe8/S85xvXcC1hp6FZex+nYFbX0ocOD4eTi6pHGcato2j2kh7HnQbIpcBxV4vw9TxeXXA0c2mtoXDS9BL1sNY//Skz27m4OLvSIPEPhwiz0eutQsPcCAO5cSHHLlBxj1mfa9ixQ+8Omwo8p+2lMMPzTn3sln7BQZs6CinzJZtcThXfHDE2mqI60idrGx06/K+asZ+4XGffIFTLuDA2mEtc62ute4ZM7faWPEp3roP9+TdwTsy+DEnYARL5Ys64lMH+uim3SqDH3SxrZ+K5WgNwSe62LGW0U3b+Eo8PKuDHvHB4Yy/Z+C2l5KHxENFQfBxuG/RuL6aKRqKZa9QPIzIUmQe+JVd15H3gLvmTAFji7GFg0OadjzI9fBqt5vFL2+dDGvK2bSJU5z60z/r8uDBzHf21aGByPEqVmzIB1h4ztwmB+LHPnj0K359+Y4t12xmzI7OtnvOFZ92iFPbyjLjk71HDy+7lV1yTDxiMl80RDDDFefEPJgn1nhOLjxPcnWUT+TUIUfYrbnFD+vIglk84iY+sCKnrYwZu9gUr7WWMu5bz8YIF46jNaQfuUPfHLOGHc+B7/iBfwd9yVp1bea/MnDbS4nizILykFAEDAu7FjEFlR8LQfk8CO45Y9vDio1qW7lutpC7vWxyezjSjoXf2VytgRkb+NkaxMknR20MNrk8XMrIo3a6RrGKNfnAPweeNUdy4Fo3I+eXEuuj5qw2iyO2Kz58Y9/awGb6wWbi77DWNfii3vzUfd6xie3VqPyar5p7OMJO5sg82kjBgYxxHeWzYrP+9EVu4ct35WvOxQiObqBvfPKdsvpJXbGkXO7zjK29GvLyz3OQfIENO3JZfcz77wysK/p3ucu9Ucgkun48NB4q32sA9UDXA1zleaew+VBwFrT2Lcx64LWzVZQ2bmS3cFjcHhIPoT6OzDaTFU5tgFc/rjFnHJ1/DyN+GOQBztDjW2r6XcVamz762dQTg9jwKx72/dgIVnFjW5kan7brXPHlPvFaW9ZGxZ/yq+caC/HV8dk/KVU74K1fQJBJns2rMR3lE3kva3PCbDwrbtBLOc571kCNId/RRR7bXnadnxrDZ2tIrBmfz54hfbFObo0/cc/zXxm45aXkBZDfTAiHZFN8jq1CtnEou2qQ7uuT2WExMmMvfSvjbDH67uxFY2PcwiEGCpyh/2z02l3Ne5e1euD1QLnGnHHYOHPf5iVG93iX871YK5e1oSQG7SPDJ2si5WwKlSt0xFPj03adK766zzuNGNsMLg9q0QbZydc14gCzn7rPu/nPmFOO/MGB+12+kCeeZ1xKcp78itmmDEf4r8NzgXyt+yrbvVedzo/4rAlk+MgXdo/UkDEdyS+yXtL4n/H3DNzyUuKQd4fIQrTIPISs18FBoOAc6PC+KhRtV1sWZB5+beacxZ3rftsV8woHBc+ByebmBdBxkT7qs3ZsDHWfd2xWuxxW4iBmhvymvphWPMoXctWedvyW6zt4s3FVLjs74rAh1gaUtpVhrdpWLmewgGlrpIy+u0t+y8benjFSQ3VQL/VLWZcv9LpLU07lRl/m3pisW/3DizrWtnvMYsAeo+a2ymov6z5lVs/1HHV+MgbjNT7sGrPxpHz6tTewf3RkfRzVeRe5X135JhHnN6gOMsVrESFLY7XReIAoHoqUdUctYtedPeToWXw0Ge1jKwtaPWcx+I6suqlXceCXeMRrDGkH29jSDvjQ8eAr6+wBxKaNkjV0tI8N7Nrw2McHOmBiII9MDg+yHIHJZ+Q4jDYYOcWuWG1k+HHwjJ4D/cSBHXAogy25BSPDeIxPW9hRhrVqW7mcs6HgC8zYAAfv8mI+0DUuZjGwL/9p/8wzNoxdnlkjLmIhbw5x+e4MHm0YQ+WPuJAxpiN8Ehs6GS/vfLDHqLkVE7O4kM8cpQzPYGI/4we/dYZM5ydj+EoNaR9/8uN5Ik5sg89csNbhqXG96/vvHeUGLJB0itQEV8gkP4uRfQ4Hax4IZorChqBN91cHAJ8e1pSlyLRB0+mG8jnT3Dyw6uRBTFkweZCVdeZwVVy8r+TRIxb8pw84SjzYhSdlkE+bYGIvB/us2SCU0Qa40gfP1Qc6rDl4xrcDncwn6zYY/ZBbfGEr99M369hWhvfO9oeB+B+wiI+G0/Focwq1jxpJ3GDNuFL2zHOXf+owc4U9c9HZxkZiq/yZV+OS7y0+4SbrkmfPidhqbis29auflKvY5TV7ROenxuD72RoCC7H6xUN9sBNn5UF8cpCxzPPPn793lGFkGBgGdhmg2fCZ8XwG4NkvAM/3Nh6uwMBcSlfIwmC4PAN8q+XjN33/xHB54DcGCN/8qWK4vnESPwF9LqVPkDYq78cAf33kX8vwV278lcyM5zHgX3nxV4rz11zP4/mKludSumJWBtMw8MYM+P/RcSFt/X9Jb0zRHx36XEp/dHonuGFgGBgG7sXA6Uvpx48fP+czHEwNTA1MDUwNPKMGTl9K97pzB+0wMAwMA8PAnRiYS+lO2Rqsw8AwMAz84QzMpfSHJ3jCGwaGgWHgTgzMpXSnbA3WYWAYGAb+cAbmUvrDEzzhDQPDwDBwJwbmUrpTtgbrMDAMDAN/OANzKf3hCb5jePPzMnfM2uMx+wOpW/8B7dTK43n/bou3v5T85eP8ReBKKr+dxQ87+jMxzLz7m1rMuZe/Gt3ZSlltVLnVe/eL5fwX7B48DxkHcmsg73/5Lh5i2tLDtnypw381fzaGLVyP2JODK+GC6/xhUDBW/nmvdUgMtfY6ubO8fSb/Z328Wr7m/VWXEmcic/vquMff7wzc+lLi97H8uX3/GYrfw/vrv99DA+Zn5W3YNAoK0Xd0OOTI5Vq1RcNBxkvLBs9h2hvIUPjqYwv82KBJacODuYWDPezUi5UYvdwqHvzBFR984hs7PF+p+YNbDhIX+QXrM8YR2+QoGxfPfMSoDXh1gJc8oQvXme+UU/7o/Jn8H7X9Srn6JUp+rGHj9L3D1tVKJ7e1Rp4yt1uys/d8Bm59KVm0NASabT3oNAyago1ji84jl5L/wqSHpL5v2acxgaV+k646HjJi6wYxEisH+szAP3rYv/qQg8ybl+kzsB+xnZeStZL4Ki5lqM1Hjs/m/5EYHmHLL3irOseH59vz1vntaqWT21qbS2mLndfv3fpSolHwsTBrgZ9p3jaRaiNTYkPwGzsXA9+w6mWYOjx7AI80qFUs2vSirf8su/vdfMY/9uGNC9Rv+WByELt/QlOGORs08sjkvrGLP21iG1l5lQNk5Txt+a2WnFU/icOmxho62uBPlIwt28brnJeSfKYv5Zz9B9/2akP5ozM+ieNI/uHTmJnlV19wwppYkWHNS4B1aqEOZOCdQa7gRj+sq88+9tk3F8j5ZU4dZuQy7+iq45dO5a0l/bOeudjDhF4OfBPTalR7cJL+0OMdG2JMHtnHB9yYP+WqnRWGd1q/7aVkAXs4KXw+DvezgN3r5iOXEnoeFIqKwqNB7Q11xLolL250ukFx4/tMszvqXzmbNrFxkIhTf/pn3dhtSvnOvjocPOPxUBJnDmLCNkMO8sDmvnr4Q0c/YtO28YC/+t+zrQ9nYsSOw0bObNzuMSMLB48exmjMK/vKGSfx00zNrRjhlTXswRuYvYi8PLJuiRUd7RonutiwFsyBOGzk6LPXnTfW03bmz4uO85wyVce4iIO9DlPlDIyZ27rPHp8VBuTBKif4xH/alAfWrRe58r36fdf3215KFICHx6KgWClEhkVvoZhgZPLjuvI2L9dzxjZFpX61nbL5jBw6FjV7+tMWBcrwkK1wWMhpf++589/pEBufHLUJebjyICkjZu1wOOsQi3lyHx6wzZCD5Df31amznNpEwYNe2kGHutEX70dsw3s2GfSwiy30iTnzy5o5rThX7/BF7Hw67tA7kn908V+/kMm9uSOePEPGhK75YT8vMi8FfHhpaQ/9mjvrJblBzlxZM53uKn/WV6dzBBN6OcBYc+u+9qwp1+Gkcuces1ybR3lIruq5Sf13fr7tpWQz4ADlxwZkwn2vSa6HuzskVYfC5cPBs+i0b/HWw4cNZbs99sFvA/NQ52FNHBZ3ru09e7hX/tUHR21k7LGOX0bnv2KGe3hCj8ObfuUCnRzpQ3tyi1zuq4dd7LOXH7lbxQ0241nZ1ocz+UGvG/ihUYLBpoOsOe10ujU5w87KV8d/tQUv2KiN1HX56TDKmfnJSwg/nDu5M5fJvc/W0QpvxYLtmnexIJsjbVadI5jSFs/YW/GtPS8XdV2XJ96tATlgdj8xa0Ps5sP1d59veSl5AdgATGItLg7QqjGwTtE4ukPiHrM+86BbmMxbTWvvggSHOPcKVZ/1oCbW+rznX3lw2ExcY2YdbhlnDheHTZ7VF7+HVT/pQw6QdeQ+a8rQCGwYNYerpkYDEg+2qm195ryVX+TAkHb8Ji22tLV6prbAzCfrLOXlbyv/8lBtuI59xpFLKWsHe8Sob7FsxdjVC74rFtbMqXlf5S9tVp0jmD6Cj//B3lcuJXFmTYkDfIzErGuxmw/X333+1ZVvxAQHnmZURz00FkI9nOjZLLXRHRL3mLVdbVl8HNZ6SaY+Rc8laZHmHrpHLyULuYs/bdbnLf/KYrPazaaEnJyqwyym1eGSI+R8Tq704aHWHrKObPisaccGyZrNQRy+pwxycKEv3qtt1urYu5SQTzv67i75avvMu9zUPKUNL8jqW87kHh6sO/XFjR8HvpDj3KHj8EzIt+s5d/XCfnfejM28i8V37WadVp0jmLTjDMaMy3Vm7dVz75cOZHgm9zmMWx59Txmxb/GX8u/y/DuTN4jaA1cLVej51wvIUsA2C5sTRUARZiF1h0SbzNjCNnoWEYde+9haYUKfRoC++CxWdNC1ORwpVHXwrU8wUfjaTez6xw/4bVZgQid5QYZDpg4+0CF+xpHDBSY5QofYiBsb8pzxyiG2GXJgbKzJvThsFspg15zqm5l4jO/DeHMpVdvK5Qxe7DPkOn2zX33ZrJjFgI78p/0zz9jA11b+zZMYwUyc5hZ/xGMe9C9nWUf6Q197ymMj160p9cWhvDNyWWus17yLBR/yB3foiaPqYGcPkxicwYjOarC3hUFMYpQvcG7xIHbinPGLgdtdSiacou4GBcYhsXkhQ9GwRpH4ochsDtp0DxvdwKcNNGUpLm3koa82kPOQqs+czcVCzX2f2XNQyBUL7ymjrDP4bZ7ahBcPE3LYhRv3kU+b4tcms5g9XMpoA1zpQ67cJw/IyLv2kHOgnzlkPf2wp11xMOMjfaNHfPrivbOtX2d4QI/R1QH49asOM5gSN3jqRZDyR5/xhU85ZOY9cyUfymTM+CGeikXO0g5nSRu5jg32vHyVSRzmqIsr8Vln2GCdARbzmhy6j0xXK3uYKhYxit9Zvqo9MWmH/cwFz8YmX/pQJ7F3dZNy7/Z8u0vp3RI08V6DARoNnxnDwDDwXAbmUnouv2P9xgzwLZeP33rzG/qNwxrow8ClGZhL6dLpGXDfyQB/redf5fDXS/w1zYxhYBh4LgNzKT2X37E+DAwDw8AwcIKBuZROkDWiw8AwMAwMA89lYC6l5/I71oeBYWAYGAZOMHD6Uvrx48fP+QwHUwNTA1MDUwPPqIHTl9KJC29Eh4FhYBgYBoaBUwzMpXSKrhEeBoaBYWAYeCYDcyk9k92xPQwMA8PAMHCKgbmUTtE1wsPAMDAMDAPPZGAupWeyO7aHgWFgGPgiA/ySyCN/H4//CJzf4lv9fugX4X5ZfS6lL1M4Bh7NQPcjm4/2Mfauz4A/Dlt/UDeR/+m14q/hb3GQfBx95lK66m853v5S8td3t259vmmQAH8yhpl3f8uMOfewuRpVVhsr+bre/WI5P2Fj0XnI9r4ZIY9e4iamLT1sy5d69RePK97veJeDs9w+Eytc+yvh+AFj5Z/3WofEUGuvkzuL/TP5P+vj1fI176+6lDgTmdtXx73lj9qhXhzk3bObM7/UDn+O2qeUNU7t1H8nSv3vnG99KfHHUH/S3n+GopJp4yBpNmwSRiH6jo5JyrVqi4ZDcr20bPBZDFXHd2QoCPWx5R+jwagNZmS2cLCHTL1YiZE4uoE/uOIDbnxjh+crNX+wy0HiIr/y3sX3lbUjtsmRBxpfPPMRozbg1WF9oAvXme+UU/7o/Jn8H7X9Srn6JUp+rGHj9L3D1tVKJ7e1Rp4yt1uyr9yz31hj+O76FLXHuc4Y0KFHbHFXL7xXxrbl69aXkkVrUupBNzGZ1BUZXbKrbP2jdH2v8vnu5UihbQ0PGbF1gxgpQArqzMA/eti/+pCDzJuX6TOwH7Gdl5K1kvgqLmWozUeOz+b/kRgeYcuGu6pzfHi+txprVytn8V31UrJ/5Zm1ripv1BmXkLLqbnG36ptn+Xu0/K0vJRoFHwuzJupM814lOwm3IfiNnYuBbyf1Mkwdnj2ARxrUKhZtWmxn/th9xj/24Y0C5yO/+id24haHcrw7iAEZ95iNXT0PjzrIyKscICvnactvhOSs+kkcNjXW0NEGf6JkbNkWl3NeSvKZvpRzxgf+9mpD+aMzPrF7JP/waczM8qsvOGFNrMiwZiNjnVqoAxl4Z5AruNEP6+qzj332zQVyfplThxm5zDu66tg8lbeW9M965mIPE3o58E1Mq1HtwUn6Q493bIgxeWQfH3Bj/pSrdhJDh2vVp7QLVvHgI3ORtnmWX+r5SuO2l5IF7OGk8Pk43M8Cdq+bV8musiaShFN4RxKqjlirzXwXNzrdoFDxfabZHfWvnE2b2DhIxKk//bNu7DalfGdfHQ6M8dTDY4zEhG2GHOSBzX118IeOfsSGPsN4wF/979nWhzMxYsdhI2c2bveYkYWDRw9jNOaVfeWMk/hppuZWjPDKGvbgDcxeRF4eWbfEio52jRNdbFgL5kAcNnL02evOG+tpO/Nnc+U8p0zVMS7iYK/DVDkDY+a27rPHZ4UBebDKCT7xnzblgXXrRa58r36RRSZHxxv6+MrcggWexJw2fEYPGc+G69893/ZSgnQPDyRawBQiw+RZKBJNEvLjuvJbCcI2haJ+ta2tOncFoj9tWXweshUOC7n62Hrv/HfyxMYnh4VrrB6uPEjKiFk7HM46xGKe3IcHbDPkQJ+s5b46dZZTm6g1kXbQoW70ddQ2vGeTQQ+72AIbMePfwZo5dW1vhi9i59Nxh/6R/KOL//qFTO7NHfHkGcK+MuaH/Wx2Xgr48NLSHvo1d9ZLcoOcubJmOt1V/qyvTucIJvRygLHm1n3tWVOuw0nlzj1meTSP8pBc1XOT+jyDKeuUNXkjv/mpWPSfMjyz7jBXmQP3vnO+7aVEEirhSboJzyQk0fVwm+ytBFEkfEimSde+xVsPHz6V7fbYB7cNbK9QLO6MZe/Zw73yrz44aiMTn4ej818xwz08YY/Dm37lAp0cyOpDe3JbMaiHXeyjmx9zuIq7Hvb0re06kx/0uoEfGiV2bDrImtNOp1uTM+ysfHX8V1vwgo3aSF2Xnw6jnJmfvITww7kzT+YSX/VjHa3wVizYrnkXC7I50mbVOYIpbfGMvRXf2vNyUdd1eeLdGkgu3E/M2hC7+XDdGUzo5eh4Yw3f5EZ/4qvcpa09/yn7yudbXkpeADYACavFRZJWjYF1isfRJds9Zn3mQTfxzFtNa++CBIc49wpFn1vFlrh53vOvPDhsJq4xs+7hOHO4OGzyrL74PTz6SR9ygKwj91lThsNow6g5XDW1etirbX3mvJVf5MCQdvwmLba0tXqmtsDMJ+ss5eVvK//yUG24jn3GkUspawd7xKhvsWzF2NULvisW1sypeV/lL21WnSOYPoKP/8HeVy4lcVrjmBYH+BiJWddiNx+uO1Pb9gXXOt7Yyzzxrn9zpX7Oe/5T9pXPv7ryK71+0RcHnoTVUQ+NhVAPJ3o2S22sku2+tqstk89hpTBWg6LPbzIph67Ft1co7nfxp836vOVfWWxWu7XY5VQdZjGtDpccIedzcqUPD7X2kHVkw2dNO3nobA7i8D1l0IULffFebesz571LqdrRd3fJp92zz3JT85R2vCCrbzmTe3iw7tQXN34c+EKOc4eOwzMh367n3NUL+915MzbzLhbftZt1WnWOYNKOMxgzLteZtVfPvV86kOGZGsph3PLoe8qIfcVfh6vjDZueIbky17X207/8Wg+5953PvzP5nUgO+vbASX5Vy79eQJYCtumYIJJBEWYhrZKtfWxhGz2LiEOvfWytMGGDxKMvPovV4rE57BUqttTBtz7BRBFrV9zOFi34bVasoZO8EAeHjME+PtAhfsaRwwUmOUKH2IgbG/Kc8cohthlyYGysyb04bBbKYNec6puZeIzvw3hzKVXbyuUMXuwz5Dp9s1992ayYxYCO/Kf9M8/YwNdW/s2TGMFMnOYWf8RjHvQvZ1lH+kNfe8pjI9etKfXFobyz9Zh4at7Fgg/5gztiF0fVwf4eJjE4gxGd1WBvC4OYxChf4NziQezE2Q3taAMZfGA3dXj2DMErQ10xdfbBTe48U53Md6zd7lKSbMmvpFFglWjJJ5l+KDLWGdp0DxvdwKfJT1mKRht5yKoN5Dyk6jNnc7FQc9/nLM4sRPexkzLVP/htnurAVRYuduHGfeTTpvjTtpg9KMpoA1zpQ67cJw/IyLv2kHOgD1Z1WE8/7GlXHMzIp2/0iE9fvHe29esMD+gxujoAyBJezAAAIABJREFUv37VYQZT4gZPvQhS/ugzvvApH8y8Z67kQ5mMGT/EU7HIWdqhaWkj17HBHjXvfsVhjrq4Ep91hj7rDLCY1+TQfWS6WtnDVLGIMWPgWb6qPTFph/3MBc/GJl/6UCexd3XDPnWWfLBGrVacvOMz61z/uZa+eUan5r/KfMf77S6l7yBpfA4DHGA+M4aBVzLApfGMi8PLbXUhvjLG6msupcrIvA8D/88A33L5+K0zv6EPScPAKxjwr6m3/sTzGRz8ye2qX7LmUvpMRkfnLRjw2yR/PcK3Vf6aZsYw8GoG+DL0yD/RUMdcSvz14BXHXEpXzMpgGgaGgWHgTRmYS+lNEz9hDwPDwDBwRQbmUrpiVgbTMDAMDANvysDpS+nHjx8/5zMcTA1MDUwNTA08owZOX0pvenlP2MPAMDAMDAMvYGAupReQPC6GgWFgGBgGjjEwl9IxnkZqGBgGhoFh4AUMzKX0ApLHxTAwDAwDw8AxBuZSOsbTSA0Dw8Aw8C0MPPo/nv1MEPyHtvwHt0f/A/Kv/Ae6cyl9JkOj81QGuh/ZfKrDMX5JBvgVA35NY+sndv70WnnWzwydTTg/muwPEh/V/exPGd3+UiJwCnfrJzP4psHvPCHnh3d/y4zZdWZsrkaV1cZKvq53v1jOT9h48Dxkez8rgjx6iZuYtvSwLV/q1V88rni/410OznL7TKxwnYcSjJV/3msdEkOtvU7uLPbP5P+sj1fL17y/6lLiTGRuXx33lj9qh3rJQU3lr6Z7hqk9zvXq3CCX/4rBmX4AjtSFL3uIM/vYdFCj7NV/i8r91XzrS4k/Ipoc/xmKGqiNA8Js2CSNQvQdHQnMtWrLpHtp2eAzEVXHd2RMJHrY8o+4YNQGM4ncwsEeMhSKBchMjMTRDfzBFR/84xs7PGuj0/uONTlIXOQXrM8YR2yTo2xcPPMRozbg1QFe8oQuXGe+U075o/Nn8n/U9ivlqF9icciPNWycviuXc1cruX/kmTxlbo/ovELGfmON4VNOvADgBvzySBzwWod/4lLuTD8gL/QNdbGNnzyP1D8ylUewUP9nxq0vJRMkIfWgk0yaQiZ1RQ7J3bsMTKyHpL6vbLNOYrBPMWwND1kWQMpbIF3hpVx9xj9Fg/2rDznIvHmZPgP7Edvw54GzVhJfxaUMtfnI8dn8PxLDI2zZcFd1jg/Pt+et89vVSie3tXbVS8n+lWfWc7yKp9NBlkuMOrdHaidtr2za51K2XkroUuv0uJRb9eaVL9ZvfSlBLB9I6C4UknC0edtEtg6JDcFvCNgmOSZ6RbQH8EiDWsWibYuOQjk6zvjHPrzBJx/51RexE7c4lOPdQQzIuMds7Opl4aKHjLzKAbJynrbycqh+EodNjTV0tMEBZWzZNhZneNCvfKYv5Zzxgb+92lD+6IxP7B7JP3waM7P86ot4WBMrMqx5CdjIlHdGBt4Z5Apu9MO6+uxjn31zgZxNTh1m5DLv6KpjY1PeWtI/65mLPUzo5cC3uc11n6s9zkf6Q453bIgxeWQfH3Bj/pSrdvSpTsVlTlZ11dWmdY4uQ5nkMf3W544fcLGew9jgy2EO8Xl03PZSsoA9nBQ+H4f7R4k/cilhW5IpKhJzhGx1xCrGbhY3Ot2gEPC9KspO56h/5bJ4OUjEqT/9s27sNqV8Z18ditV4usIFMzFZ5HKQBzb3jRF/6OhHbOgzjAf81f+ebX04EyN2HHAEJmbjdo8ZWTh49DBGY17ZV844iZ9mam7FaAzYgzcwI8fw8si6JVZ0tGuc6GLDWjAH4rCRo89ed95YT9uZPy86znPKVB3jIg72OkwfwcX/gDFzG1sfj+zxWWFACKxygk/8p015YN16kSvfq19kkckh/9jWX+7zjB4fR82jvGZele1mfIE/R12DG9ZWePF5dNz2UiIhHh6ClWgKkWHR18RR0PmRKOW3yMM2yVa/2tZWnZFDx6JOfNoymR6yFQ4LufrYeu/8d/K1mJHxEBirhysPkjJi1g6Hsw6xmCf34cHClwN9IpP76tTZHHrYrIm0gw51o6+jtuGdQ5cDu9gCGzFnflkzp6mz9QxfxM6n4w7dI/lHF//1C5ncmzviyTOEfWXMD/t5kXkp4MNmpz30a+6sl+QGOXNlzXS6q/xZX53OEUzo5QBjza372rOmXIeTyp17zPJoHuUhuarnJvV5BlPWqfvoWQfdudC3vipW92tOtJ+z+azxgw3f+QGr8WpD/cyze6v5tpeSzSBJ4RnCGSbc90qASXW9OyTuOZMIPhBtYrVv8XaJVrbbwza4bWB7SbS4xXRk9nCv/GsDHLWRic/D0fmvmOHeouVApF+5QCcHvvWhPbmtGNTDLvbRzY8HYBU32PS1sq0PZ/KDXjfwQ6MEg40AWXPa6XRrcoadla+O/2oLXrBRG4nr8tNhlDPzk5cQfjh3cmcuk3ufraMV3ooF2zXvYkE2R9qsOkcwpS2esbfiW3u12bouT7xbA3LA7H5i1r/YzYfrzmBCbzXApF3OgUO7YEImc4bMilf1c8YG+jX+xGYuka1DLKsYqzzvt7yUvABsAAZWiwsyV42BdYrGIbEr8vSZB50kYIN5q2ntXZDYEOdeEvVZD6pxdPOef3XAYTNxjZl1D4eHIPdXmOFSntUXPzo50of2kHXkPmvK0Ag8MDWHq8OXBwpb1bY+c97KL3JgSDt+OxVb2lo9U1tg5pN1lvLyt5V/eag2XMc+Ax6sO33ImfnJ2sEeMepbLFsxdvWCr4qFNXNq3sWiPzGmzapzBJN2nLEHF91Y2XMd/+K0xrGT+7wnZv2I3Xy47kxt1/y4l7NfHLDnQA99sSWHmVPlVzN1jJ066hnCX3d57cVY7fL+qyt3uxddWxFVD42FUA8nYUEiB8zRHRL3mLVdbVl82CLZq0ESSVoWjrLoWnx7SXS/KxTtdfOWf+WxWe3WApZTdZjFtDpccoScz8mVPjzU2kPWAUfus6adPGweQHH4njLo1gNVbeszZ/KD3tZIO/ruLvktG3t7clPzlHpekNW3nMk98Vh36osbPw58Ice5Sw48E/KtfM5dvbDfnTdjM+9i8V27WadV5wgm7TiDMeNynVl79dz7pQMZnsl9DuOWR99TRuwr/rZwpR3zqi/2XCMu+k4drqdOleEduVpHroPPYSxV1hxac8pvzb8zuSV5kT0PXC1U4ZEAyUKWArZZ2JwgCrKzkLpDok1mbGEbPYuIBGgfWytM6JMU9MVnMVg8NgeTq4/E4LM6+NYn8sStXWWdbfxZZKyhk7wQB4eMwT4+0CF+BvLJG2sVM5gSP7ERNzbkOeOVQ/OmPWPDh9yLw2ahDHbNqb6ZwWp8HwE0l1K1rVzO4MU+Q67TN/vVl82KWQzo1IObfo48YwNfW/k3T2IEM3GaW/wQj3nQr5xlHekPfe0pj41ct6bUF4fyztZj4ql5Fws+5A/uiF0cVQf7e5jE4AxGdFaDvS0MYhKjfIFziwexE2c3tKMNZOALvPDHwDf81zxyTvDPp6s3+Scu982dcShTL2T8ogeOHOY68YrPc5vyq+fbXUomyqTUwCCGJCUJEmOSmDMZ2nS/kq0PfNpAU5YkaCMPmXrOyJk49ZmzuSCTe/mcyaaQKxbeU0a/zuC3eWoXrixC5LALN+4jnzbFr01mMXu4lNEGuNKHXLlPfpCRd+0h50AfrOqwnn7Y0644mJFP3+jVA9XZ1q8zPKDH6OoA/PpVhxlMiRs8tYGk/NFnfOFTPph5z1zJhzLyqw/iqVjkLO1kg8t17LBHzeuj4jBH+sw58Vln6LPOAIt5TQ7dR6arlT1MiYFnMWYMPMtXtScm7bCfueDZ2ORLH+owi72rG/aps+SDNc5KhxMMdZgX7HRjrx8QA7F2tusZwr7xZA+Ei1pjHZZcu92llODneRh4FQMcLj4zhoFXMkBDP9vUH4Xvq775sscFurp0VzjnUloxM+tvzwDf/Pj4rTe/ob89OUPASxjwr6nrn/af7Zw/HdU/EZ71yZ8OP/NFbi6ls0yP/Nsw4Dc9vu3xrbH7a4y3IWMC/TYG+DJ09k8bXwVLrXOprP7qb8/+V/TnUtpjd/aHgWFgGBgGXsbAXEovo3ocDQPDwDAwDOwxMJfSHkOzPwwMA8PAMPAyBk5fSj9+/Pg5n+FgamBqYGpgauAZNXD6UnrZdTmOhoFhYBgYBt6OgbmU3i7lE/AwMAwMA9dlYC6l6+ZmkA0Dw8Aw8HYMzKX0dimfgIeBYWAYuC4DcyldNzeDbBgYBoaBt2NgLqW3S/n1A/aHHednfV6bK3/B4tW/HvCsKLsfnH2Wr7H7OAZufyn567tbP4dBc+M3mPLXdXm36THnHjZXo8pqYyVf17tfLOcnbPxtKxvyXmNAHr3ETUxbetiWL/W++vtWNb5HvMvBWW4f4XtlA679lXBkwFj5573WITHU2uvkVn5X6+S52uXXmcH12VEvJXxQJ9bmZ+0+Sw9clQPq25+DmkvpWcw/1+6tLyWKj6bKwaHZd8PGwYG1YdMoKF7f0asHsrNFw8GXl5YN/kgjQIZDoj62/H0oMGqDGZnEVrHYLDiQNm5mYlw1EPzBFR8PLnZ41kb1813vcpC4yK+8PxrXEdvkKC8lnvmIURs2RDBaH+jCdeY75c7Gg09qJPOPf/CQ33oxHrVfzwB2iMHaPGrnFXLWCByAm/day/AB9zPuxcCtLyWbMweSw1gPuofXxrGVmnogO9n6i731vdNxjcNBI9lrGB42YusGMRIrh/HMwD96V2wwNQ45yLyB/VmX0hHb8EeTY1gria/GoAy1+cghN/lv1mjf2vhsIxbzqvb0c4XZs711nuZSukKmzmO49aXE4ePjQa2H6UzzPnIgPfQ2Ry4GCr9ehjUNHBwupCMNahWLNj2M3b8GqUydz/jHPryBl4/8apPY/YauDHM2aGJAJveNXfzI5EBWXuUAWTlPW3k5VD+Jwy8trKGjDRv6lu3ExjM86Fc+01eVxwf+9mqj6u294xO7q2YMz7kPp2CXC/asHWVZ82Lm2XOkDmeD4fuKT7GnXeyRo8w3PGIDbOzzASMYKl/o8qlDHsRW93nHD7rY1g9rqcMzMu4zY9thzPCNLvvWMjGlbeykbTFqm/1V3vQ388+ft72UbFweMIqDj8N9C8j11UwxUTweyJWcRYosRXqkyNQR68o26+Je4fAg18O7ZfOof+Vs2sTGQSJO/ek/D5gHUy54Z18dDqfxeFCJMwd8YpshB9kccl89/KGjH7Fp23jAX/3v2daHMzFhx+Glw2zc7jEjCwePHvpd2aXGso7lhIZPzGCFH/Mg59Q/mFNX/my0vu/xiW35xp8Xnpj1Az/Igbk7f+iCJ3OlDXKunawB95ndt56JG5/gceAj9eWr1pD1x7p8YB97rIHHc6BMcsla+tH/zH/PwG0vJQo1i8sDQ/IZFnktaAolP1KivIfJ9ZyxTRGqX22nbD4jh47FzJ7+tEVBM/DB2gqHhZ/29547/50OsfHJURuDh5Z1hzJi1o6XhXLMYjFP7hEzthlykPzmvjp1llMvf2si7aBTm+QR2/VSwg52sYU+MWd+WTOnFefqHb6InU/HHXp7+ZcDc2G+Eht2zFFiMTfqyp+6vu/xmTbFnHVFM4e3GiPryZl/4qq1on30jU++U1Y/yjMbY8rlvvzt1ZCXf54DbIIDH+7LZfqY520Gbnsp2Qwogvx4YGyUvlca6uG2GLeKiCLnQ/FZ3Nq3CD3A6U/Zbg85DxTPFvYKh4cw7e8920xW/tUHR/cnS9a9MDr/FTPcwxN6fEtNv3KBTo70oT25RS731cOuf3Jg34/creIGm/GsbOvDmXpBrxv4oeni3yaFbDbYTq+uyRl2Vr6Mt+r6bh3KQZcvZPFRcw2frKtb+avv+gRr8ondjKXGw17HTa0Nzngnp9+c0UUe2152nZ8aw2drSKzEVj/yKvfgcC0xz3PPwC0vJQ+eDcDQKAIKwLFV1BQ7xeSoB9J1Z30yOyxMZuylb2WY9y5IcHj4bMg2hrTDsz7Be3Ts+dcOOLrDw7pNx4OmDvMKMzHIs/ri/+qlpE8uA5tQzWFtQGImT+JhLeNTps5b+UUWDGmHy4P6E1u1171TW2Dmk3WWsvJXa18Z8gcO97t8IYtMzfUef0f41B+yjsod/FvvyjDLITF63tJOynbPVafzkzF8pYbMw15+2YcTaoGPeenwz9pfGfjVlW/ECAc+/zpA6BalDdsD0h1wm6W69UC67qztasvizEagTs4cEIqyNmNk0PWQelBWh9H9Lv70V5+3/CuLzWq3Xmhyqg6zmFaY5Qg5n/Nw6gPbaQ9ZBxy5z5p2zDVrNhxx+J4yyMFF2qq29Zlzbay553Pa0Xdt/Mp+dpZrzkAdNEBqzFpiv8sX61WONTld8WdMW3x2duGbj4PnxOg6M3jND7b2mn7q1jPc+ckYjDfjcX/Fgf7sB8q5vprNTdbdSvbd1293KZFcDn82rEwihWzikaXJ2iwsPgqJgmXdUQvadWeLCj0LkYaj/S1M2KDxgk18NBeGB8NDatPRh/5zVgff8oA8cWs35Xm28YPfRskaOskLcdjw2McHOsTPQD55Y61iBlPiJzYbjDxnvHJo3rRnbPhAP3HYFJTBLvtg0zcz78b3EUBzKVXbyuUMXuwz5Dp9s199wSNrzGJAR/7T/plnbGAXn8bKGviIhbw5unyxpw2xHOHvCJ/Wi3UoB3KHb57NvzidwUFsfKwH93IGP/sZP76tM2Q7PxnDV2pI+/gDC8PzROw+e26MS9kPhfmfloFfXbndvt6ihykPXqKkULMw2ePgsWaxM1OwHkhtur86DPi0gaYsRagNG3pi8hk5bKvrjE2LFRnX68yeg8NVsfCeMso6g9/mqW14sWEih124cR/5tCl+bTKL2QahjDbAlT7kyn3ygIy8a09O8IF+5pC19MOedsXBjI/0jR7x6Wtlm/Uc8IAeo6sD8Os39cCUuMGzasipt/eML3zKITO1l7nChhx19uBd/SP8HeETbmr9gEHuwMHzFgfGVfOWMYCl4xX/js5PjUF+4OEIB9pm5sLx0pVHsJODygP7WXNpZ55/Z+B2l9Lv8OdtGHgNAzQbPjOezwA85yX2fI/j4UoMzKV0pWwMlksxwDdePv4JLP/kdimgfxAY+OZPFcP1H5TUk6HMpXSSsBF/Hwb46yP/Woa/bvL/H3gfBl4bKfzypyT+Go3LacZ7MjCX0nvmfaIeBi7FAJc+XwC4kLb+v6RLgR4wT2FgLqWn0DpGh4FhYBgYBj7DwFxKn2FtdIaBYWAYGAaewsDpS+nHjx8/5zMcTA1MDUwNTA08owZOX0pPuRrH6DAwDAwDw8AwwC/cDAvDwDAwDAwDw8BVGJhL6SqZGBzDwDAwDAwD8yelqYFhYBgYBoaB6zAwf1K6Ti4GyTAwDAwDb8/AXEpvXwLXJcAfy7wuwkH2Cga6H1atfqdWKiP3fb/9pWQx5q8D13TwO1r8fIk/GcPMu7+vxZx7W7/mW2W1UX3W99XByt/6IgZwrGzyX7vnr5Cja/zi95eOq/987341HTtX+xkdY0vs3/ls7vMncFiD8y3++YUCf7FAOeqPX6z+yvhs/r/i8xW69azU9w7DV2vFXw/P3HZ+Zu35DNz6UqKJ2hD8ZygqZTYDmrlNgEZCEfuOjr9zlmvVlpcGugwPwpFCXh0sdPMiQo6GVYf/9ov4wELsfMABF+zxvLrU/G0x/CGHDT4887naABNYHXAAP88YR2zXSwm+wec/GUENgdkcgVOZ+iUIna/8nM5n8v8M3r5qk3Nbaw+es4ZXZyd911rJvSPP5unIWT5ib2Q+z8CvE/95G9+maSH5zb9+07eJZIGvwB65lLwYbCb1fWWb9dXBqpeSmOvhoIlxARkjly3vVW4Lg7bBfYdRGw0cPOtSOmJb/uTcHKy4JFfkqPuSsdI5uq5vsRzVu5qcX6q2cK3OTurUWsm9I8/2krvzeSTWq8vc+lLiYPKhkPjGSmHlONMQjlxKNhm/2dFsODBeFOm7Pq8Olti9OPkGTCy+Y0e/NE6GMqs/HVbfvh/lAy6IDRx8ePYixpYHGIzEpZz49Me7e8zkSq54l0fla9PPRoNu2uLZBgIPuQde95LfGpMyW7bFxlzxER+cGlPKpvyjvwScyT+YwSg/nhexwjG8GJtyvGcM+Mxhboy9+sncWi/YsF7YT1z4ZY9Rz4rvmScwJybxdBixjS9jShmfxWhNuJ5zjbFyiW6t+TwT+sCOPIAtZdLfuz7f9lKy2XjgKRA+DvePNu4jlxK2LSwPUR4MfXezB6vuiTMPDAeOj8M/kRmrGHxXbmvWzx4fyuGfZ5qOzcBY9U9MPDPADyfGwUwjUAd+3UMe2WxcaQO/jNpowIHPOrArDvzhV9vGk9jAgkw2g5Xt9IUf7IgPX7yDKWNTR/w2bte/Osv/Xv6VM07wklfwikmMrJurzDdyxFjrJvnTjxzwnjlwHzv4gz+/5LiWnIAPDA7ekTsShzr4AYN+/OIClm6I0dxWGfe3MMAVfuVRHX36TjyuWVNyV/2+4/ttLyWSSNE5TLhFRTFSyDXZrOVHfeUtFtdzxjaHV/1qO2XrswdL3TqnLZ7Zt7g5CBmr+x646qt7N77008l5eG1ayuDfAynX1RYyHEoGdng3Bu04E5+yrhmXOWQfOceRiwNZ5MgTA1vYELu2eCcnjiO2Kz50iQ9dfNSYXNfH0RnMfjodcezlHw7kQTvgBae5k+PMkzKehVp/9UsSPiq/2LVmV/UCpsoZa+QF7hy8a8u1isE42PciNUZ1sFNxuidGa8915yNcKpsz8Xmh66PiynOTuu/6/OvE34wBEknC68eEe7B8r+HVhmHT9iBWed4paj4ULnbxrX0PyapRoJcHTfvYSjus5xoHrBatxb3ype2c02au12cw1kaGDOvEwFj5Z5/mwAA3doiNWZ4+NhfNSE7ByshGw3ti0A4zhx7fWQtiXcWNbWW2bKefii/3iFe8Nj7fU27vWW6NpatHZfbyjw0bYvplHWyMDqOc6dvaZmYQX3In1m6Gly28ieXD+OJSqmdHjNZVxuFZ7vB0tY1fMVp7YnHG1h6X6Iojfcu1Pmre4FIZ/b3zfMtLyUOS3+5IIonNw0Izr8VsslmncBwWsgfRdWd9ejBZt0kxrxqm+uDqsNTDpTyyHKCukPcuXG3UeYsPZfXru3PG12FCrjtcYPWgEg9NigH39SDKp41BvQ6Da8pk3hLril/0slZSR9t1rvjqPu80LmLDr/K1CXV6rqFHLH7kwn3mo/kHx14jlb+0L2fJKbXDZUT+sEtsjpUf97GDTMcD62DIUc9KfUdWjOLIODzLeVbTfvcsxo5v5FcxJn5w8sm+lPv6qDygUznoML7L2q+ufKOIORzdNx4vDpNuoXbFSROiYBwWch5E95i1XW3ZeLCVxZi6PHcHi/V6uNTTLno0hDpcXx2iKs/7Fh/K21S9PFy3KfH+mcNV+U17+iCv8GhM4nW/uziww3oOuOHDWPGLbWWQ62ynTZ7NifjqfpXRd1erne6ZtSP5x2/1XS+0yjEYxJ1ngbqA644DfCSXNY5VvSCXTVs9bGVOjdV95noeMw4vTtaODjGucrvHZeUVv/IoDn3Yn8RGfMq49s7zr658ExYsOA5HNzg4JhhZisnCtxgoDgqBdUdtmq47Ywvb6KHP4KBqH1srTMiilwdNuxZu1TVO7Hbfdj0E2HWfNWI3Tn04Y9O4kcM3azzrXzzE5T64wYF9xpHDhYw20eEZG2LDJnz67j4y+GWAi3eHl5Y4WAcnMamjDGsM40ksrGNbGd7VS9sfBuJ/xJi+sKOOjTvzrA44xQA36GknXBx+xCfcEMMq/+aJ2BjoyBd5Z1SOWZMz9B36I2cZH/v6Yd2YiDXjzdxrk9kzJR7WiCl98I7+mTiMi5lhnVtvH4vxP8Yg/tj6eHR/hQH7YBQ3duCaNTFoo2IgPmWq33d8/3XibxK9h9xGUGGTXAo9i9xmQYH4ycOsTfdWBeKhVo4ZWQpQGxZtxVUPmvvoYscD7Doztthbxco6hyDxZKNPWz57OFOn+q9xcrjyIB05XMroB1wZYx5aZGzaPLPHgFveHVUHTGC1aSELH+ixxljxmzLK2USwk/Hq3xyLj7pCNj/YzdpDFy7SNvK8a0f7Z+cj+cd35Sf9Vo7BIGfo5jCGuo5M9UOM5ps93jtOWaM25BBb9azwDtdZ62AhfkcXh/nSNnY6DOJXLmd0HDVG8CSXxqk+mMEJtvRRMeBDGX298/zrxL8zCxP7MHCAAS+heukcUB2RYWAYOMjAXEoHiRqx92WAb7Z8+EbLt+MZw8Aw8DwG5lJ6Hrdj+Q9hwL+OqX9l9IeEN2EMA5diYC6lS6VjwAwDw8Aw8N4MzKX03vmf6IeBYWAYuBQDcyldKh0DZhgYBoaB92bg9KX048ePn/MZDqYGpgamBqYGnlEDpy+l977DJ/phYBgYBoaBZzIwl9Iz2R3bw8AwMAwMA6cYmEvpFF0jPAwMA8PAMPBMBuZSeia7Y3sYGAaGgWHgFANzKZ2ia4SHgWFgGBgGnsnAXErPZHdsDwPDwDDwAAb48Vl+tPWRv7vID8j6o7kPgPgwE3MpPYzKMfRoBrpffn60j7F3fQaO/Obgn14r/Obio393kV845xfauZyuNG5/KVmM+TP2lWC+Dfiz+/k7Zn5LqD9xj83VqLLaWMm7vjpY/jMB2CEG8K1sUkD5T2Oga/zGVf+JCP3nzK9d5z8XgC52HvktLP199tnYPqv/aD1zn/9cAWvJZcc/P+ZKQzFHzNTjV5vBZ/P/aF4eba+elfre+ftqrfjPTmRuOz/fseY/aJj/5EWtJ2oKnmrvyJrLZ2sPO9TilcatLyWaqA2BRtsNk0czNxEkjiL2HT0STtJyrdrz0kCX4UE4Usirg4Uufi0m5LoisTBuKUUkAAAgAElEQVTFBxZi5wMOuGCPZ21V/Mh4OSOHDT4887naABPcOOAAfp4xjtiGV/CYb/jmndpijRoCszkCpzLwbl6Y0ckmczamz+T/rI9XyHNua+3Bj1yBYXV2El+tldw78myezO0RnVfJUCu17ulruUYt2euy/qhP1lfDvvKVWlzZ/uz6rxP/WQvfqGch+c2/ftOnsElKFvgKLklBNhNaZWsC63uVz/fVwaqXkpjr4aAwuYCMkULjvcqlz/qsbXDfYdRG0x3OR8VxxLb8ybk5WGEgV+So+5Kx0jm6rm+xHNW7mpxfqrZwrc5O6tRayb0jz/aSK/JJ/PXiJv95KREj9UYPS9m9S8kaPdIjj/D4CJlbX0okhg+F1F0oZxrCkUvJBJp0mg2FwfreWB0ssVsUfAMmFt+xq18aJ0OZ1Z8OV1iO8gEX/okKLDznNykPMBiJCxk+4tM/7+4xkyu54l0elcce6zYG9nlnoMtzfpSDh1wHr3vJb41JmS3bYmOu+IgPTo0pZVP+0V8CzuQfzGCUH8+LWOEYXoxNOd4zBnzmMDfGXv1kbq0XbFgv7Ccu/LLHqGfF98wTmBOTeDqM2MaXMaWMz2K0JlzPucZYuUS31nyeCX1gRx7AljLpj2frF90c+JavXMdecs87slsDO1sYtnSfsXfbS8lkeeAhPsl3/2jjPnIpkQALi2STzDwYWwlCNvEpK848MBw4Pg7/RGasYvBdua1ZP3t8KId/nmk64CZeY9U/MXlYwI+McTDTCNSBX/fAiWweHta0gV9GbTTgwGcd6IkDf/jVtvEkNrAgkwdxZTt9VXz4wi6YMjZ1xG/jdv2rs/zv5V854wQveQWvmMTIurnKfCNHjLVukj/9yAHvmQP3zTk58UuOa8kJ+MDg4B25I3GoQ1xg0I9fXMDSDTFae1XG/S0McIVfeVRHn74Tj2vWlNxVv55943C/q1dzqX9k4S25VD9nYgLTVcZtLyWSSNE5TLhFRRJJSE02a/lRX3mLxfWcsc3hVb/aTtn67MFSt85pi2f2LS6KJmN1vxZq9Znvxpd+ct9nD69Ny3X8eyDlutpChoPBwA7vxqAdZ+JT1jXjMoceMve7g+hezsiRJwa28CV25epBPGK74sMW8aFrPjMm1/V5dAazn05HHHv5hwN50A54wWru5DjzpIxnodafjdJLER+VX+xas6t6AVNXB5wVuHPwri3XKgbjYN+L1BjVwU7F6Z4YrT3XnY9wqWzOxOeFro+KK89N6vKsTsVlbVl3ztW263VOP3AHN1cZt72USGQlmneT4sHyvRJuUl23aVMEq0Hi+FAg2E1/HpJVo0AvD5o+sJV2WM81DlgtWgt15UvbOafNXK/PYKyNDBnWLdyVf/YpcAa4sUNszDUPrCsrBjkFKyMbDe+JQR1mDj2+selHrKu460Fc2U4/FV/uEa94bXy+p9zes9waR1ePyuzlHxs2xPTLOtgYHUY507e17SVEfPKLDbF2M7xs4U0sYsQ2+XDUd9bFaF1lHJ7lDk9X29gTo7Wnb2ds7XGJrjjSt1zro+aN+JTRn7M6FVdXr/pOnOBILrWbM3qZz9z7judbXkoekvx2B3mVXJr5KiGskzCHhUwRdEOfHkxkbFLMXZGkne5gsV8PlzrY4wBZlFnIexeuNuq8xYey+vXdOePrMCHXHS6weliIhybFgHvWc8inB1A9ZRKDa8pk3lJuxS96eRBTR9t1rvjqPu80BGLDr/KZu04n19AjFj9ykTJH8w+ObFDaSO7lzz1mOUtOqR0uI/KHPrE5Vn7cxw4yHQ+JRfl6Vuo7cmIUR8bhWc6zqu3VLMaOb3RWMSZ+cPLJvpT7+qg8oAP+bth3qs6qXskRPh08I7s16lnYkn3F3i/0r/D2IB8Q333jqQm0ULviJFGZPAs5D2LC1Xa1ZePBVhZj6vLcHSzW6+FST7vo0RDqcH11iKo871t8KG9T9fJw3abE+2cOV+U37enDA2VM4nW/O4jYqYcObvgwVvzWg9jZ1q+zORGf6zmnjL67Wk2dzzwfyT9+q+96oVWOwSLuPAvUBVxnfOLGh3y7lvOqXpDh3IAhB7Yyp8aaMvU8ZhxenNVu6tdnMa5yu8dl5RX78igOfdQLhviUqbi0kblAZlWvniHtHLmU8I/eVcbtLiULjsPRDQ6OCUaWYrLwLQYSTCJYd9Sm6boztrCNngXCQdU+tlaYsIFeHjTtWnRV1zix233b9RBg133WiN049eGMTeNGDt+s8ax/8RCX++AGB/YZRw4XMtpEh2dsiA2b8Om7+8jglwEu3h0eOHGwDk5iUkcZ1hjGk1hYx7YyvKuXtj8MxP+IMX1hRx0bd+ZZHXCKAW7Q0064OPyIT7ghhlX+zZMNBx35Iu+MyjFrcoa+Q3/kLONjXz+sGxOxZryZe20ye6bEwxoxpQ/e0T8Th3ExM6xz6+1jMf7HGMQfWx+P7q8wYB+M4sYOXLMmBm1UDMSnTPXLe7ePH9Ydxpc8sZeYlM0ZPXJgrnLvu55/nfjvQnDSL+RBtI2gqpNcSIZsh80CPT8k1MOsTfdWBeKhVo4ZWQpQGxatvp3xZ8G6xowudrqiwBZ7q1hZx2biIfZa9Okvizf10n+Nk8OVNo8cLmX0UQs/Dy0yNm2e2WPALe+OqgMmsMKtfuADPQ/sit+UwX5nW7/O5lh81I9+nbGbtYcuXNiglONdO9o/Ox/JP74rP+m3cgwG9sGJbg5jqOvIVD/oW1Ps8Z41pF3WqA15Yb2eFd7hOmsdLMTv6OIwX9rGTocBG2JU1hkdR40RPMlltQFmcIItfVQM+FBGXznTBxIHe8mFWJmrHdaQXQ3/xFkxreRfsf7rxL/C2/gYBm7MgJdQvXRuHNJAvwEDXBhcLs+4OLiwuDivNOZSulI2BsslGaAZ8OHb6ta3zkuCH1B/BAPU3aNrjz/l8adU/oR3pTGX0pWyMVguyYB/PVL/yuiSYAfUH8kAf1XJX8098k/pXEb+FeuVSJtL6UrZGCzDwDAwDLw5A3MpvXkBTPjDwDAwDFyJgdOX0o8fP37OZziYGpgamBqYGnhGDZy+lK50ow6WYWAYGAaGgT+LgbmU/qx8TjTDwDAwDNyagbmUbp2+AT8MDAPDwJ/FwFxKf1Y+J5phYBgYBm7NwFxKt07fgB8GhoFh4M9iYC6lPyufE80wMAz8gQw84z+ePUuTv5uZvzm4Z4P/OPfsL0bMpbTH6ux/GwP8F+z8msKM92bgyM87/em18oyfGTpbVf5465lLiQuJnzLKH67d83v7E28xbhHFbc1PxPhzMcy8+xMbzLmHzdWostpYybu+Olj+IjN2iAEcK5skN3+FHF3jFz8yK32x8MOiyKnDjJ1H/oSJvr4yG9tXbDxSF17hKg8Ya8llxz+/m0dTSb6pv7PfIGssn81/tXO193pW6nuH96u1Qi5qbjs/37HmZZA/yErua03xTg+hR1CH3bCGs18e7QfIkQuHnNe6Tpz0FLCge3Tc+lIyYEhZBW3iSJRNgMRAqO+QBZHYybVKopcGugyTkk2q6vi+Oljo4hdMDORoWHVYmOIDC8nmAw64YI9nbVUbyHg5I4cNPjzzudoAE9w44CAPheuPmI/Y9kCbb/gGH7XFGjUEZnMELmXqlyB08vCejeEz+T/r4xXynNtae/CcNbw6O4mv1kruHXk2T+b2iM6rZKiVWve885EnebQPUJfUdB3UobbO9gN0M1c8aws/YLG/JI9go0/h78j4deKPSF9MxkJaBQ1J2fC34B+5lLwYbCb1fcs+yeOCrIPkJUYxZ1LRoTAzsdjivcpV+/mu7a5YU+4qz7XRdIfzUViP2JY/OTcHKwwcQnLEQX300LdYHm3/VfbgJxtd53d1dlK21kruHXm2l1yRT+JPjuxV1GM3rLvUQY4vMl2vOdIPtAlPDuznpcS6PTHlXLNvqr+ab30pcTD5UEiQnUQQ8JmGYKKrjSTOxJhsv3WwvjdWB0vsFlgtHOzql8bJUIbL+Mw4ygdc+I0HXnnOgoIji5u4eOYjPjHx7h4zuZIr3uVR+dr02UeOgW7a4tkGAg+5B173kt8akzJbtsXGXPERH5waU8qm/JFDX3W33v+vvXNBciPHgej9DzLHmrPMxuud587JIEsltdXukoAImUUS3wQISt6d8j35x2d8FB/Pi/rBGFyMTT7mkOvYTDI3xt52MrfWCzqsF/bTL+za4PqsOM884XP6pD8rH9GNLWNKHp/10ZpwPceOsbFEtms+z4Q20CMO+JY8aY9n6xdZyfwfxbOqTfixJ25gAo5nSN8THzA3Z+pY9VFjOPJXecbLXkoG6oGnQPhI7p9t3Csw1ZWjyfEQmeDkWT17sHpPPzNhFEoWi980jFUfnLfO1Vw7t/CQD/s803RsBsaqfWLiGbLgjYORolcGfN2DH/yycaUO7ELdaPCjD4Fy+oE97KrbeLCnfXyBJ5vBTveHI//+gTx69A9b1oG6k1//bdy595Vn8b+Vf/mME3/JKxjqkz6ybq4y3/ARY9dN4qcdMWCeOXAfPdgDP3IAuZZ49FlhDt+ZONSDHXzQjl9c8GVF+mhum8f9Ix/ACrviqIw2nROPa9aU2LVdz75xuI8fYqI99xiVyxohx3wgz0XnNXXkM3Hhd1KvoRP94G59yY8s/GfospcSSSR4yYRbVCSRpHWyWcuP8vJbLK7nKOjKt+7k7WcPlrI9pi6e2bfYKMCM1f0u1LaZc+NLO7nvs4e3iwr7Hkixbl3wWHjoYW4M6nckPnldMy5zyD580pmLA174+vDpu7qY5yE7o7v9Qxfx2cQ7Jte1eXYkfj8rGf24lf9sQurBX/w0d2KceZLHs9D11w0PO40veq3ZXb3gU2PGGnkBO4m5ulxrH4yDfS9SY1QGPe2ne/po7bnueAZLeXMkPhu/NtqvPDcpy7MyK7/Qgyw28K/rgT3jNafaPtsP9AfsjMM1Mce+H/KWtSQv8vCfoc8Tf4b7B/GYDMFwFPROQrveDcMkUQQ7Alg+FAh2sKk9D0kXhrqQy4PmOrpSD+u5xgHrorVQd7bUnWPqzPV+xkcKvIl1YoB29tm38PAbPcTGKE7qZV1e18QUXyGL3v30wTVGDgu20elHX3dxo1sedOx0p532L/eIV39tBM6T79az2BrHqh7luZV/dHQjwT7r+AatfBQzbVvbjBDxJXb6uhrB5cjf9OVD+eZSIj9J+mhdZRye5ZU/q9pGrz5ae2mLZ3TdwhJZ/UjbYq2NzhtYytN2ldn5pe+etbwQ0EnvIAddu41f2825vdT8u4d+6wAb2Oo8yXsUozyOl7yUPCSZAAJKkJgfgQR4FI5kIVMEK9JmJsZEM95qaiRllbBdccBLoVmUWcgWiQdy5e9q7QgP+bXr3DHjW/kE36rw8JW8gDXxULwQc9aTxNMDqJw86YNr8mTekm+HL3IeKHSljLp7bP96nzmNi9iwK3/mbiWTa8gRix+xSJ6z+cePW41U/FK/mCWm1A6XEflDb9bezo460QPPCgfW8SGpz0rP4dVH/cg4PMt5VlP/6lkfV3jDv4sx/cdPPtmXcl8bjQMyjYE+2ndaxn1H85J6EocVhmf6AfrBGF7PrjaxhV7pqN6PYlTe8bMru3KBkcOx+sbTCbRQV8VJE6JgJBOYB9E9RnW3LhOBrizGlOV5VRSs9+FSTr3IURBNru8OUfMzP8JDfptqF6BNCb5HDlfjm/q0TV7B0Zj01/3VxYEe1pPAhg+0w7cP1Ep36uTZnOhf7zePtle1upK9Z+1M/rHbtvtCa4zxQb/zLFAXYL3CABvivYphVy/wZtNWFl2ZU2N1n7HPY8axatApu3rWx11ub2HZuGJDHPEN0kZfMMQnT/umjsxF8zhfYUnO0M8euUsSs+5pycPzrt8ij+4k5l1zxtD2Uy6fP7tyrv7gZwtuFyBJMMHwApDJshhIsIky1G6arjuiywRbIBxU9a+Sriwj9vKgubdLmHGid/Vt10OAXvdZI3bj1IYjOo0bPmyzxrN46g9xuY/f+IF+6MzhgkedyPCMDn1DJ3g6dx8e7EL4xVzy0tIP1vGTmJSRhzXIeNIX1tEtD3PlUveHgvhDH9MWepSxcWeelcFPfQAb5NQTJk4/YhNsiGGXf/NEbBAy4kXeocaYNTFDXtIeOcv42NcO68ZErBlv5l6djJ4p/WGNmNIGc+TvicO4GCHr3Hr7WIw/jEH/Y+vj0f2dD+jHR/1GD1izpg/qaB+IT562y7z30QO/+KIPuyuMqQ3W+STG6GUutujDZ3FSt/atsfQPGeSTjJFR8gtEx+1+j58nvnd+6BywANhG0G4CFIWeCbBZmBxGwBRodbqPjhV5qOVjNJnqsGhbHnsWbO5RCOjJInAfXeztYmXdYtSnbPTqydGik98x7XecHK4sKAsv17BBjGInj/rxK23koYXHps0zexC6mEstg318xa52wAM51qAdvskjn00EXR0bPOZY//LAax+9WXvIgUXqhpe5euB5hM7kH9uNT9ptjPFDzJBNMoZeh6ftEKP5Zm+HKThTG+KHLvzNs8IcrLPW8YX4pVUc5kvd6FnlVf/lyxEZqWPEn8TSOJXHZ/zEt7TRPmBDHm3lSB9IP/p8Yg872G+Cl/1dX7rVD5Rf/ZrC5/RL26zx8RyAQ/dkeVfj54lf7c7aIDAI/ELAS8jD9mtjHgaBJyLAJcbF0pfZE03+Us3Ffs+F8kvw3wfOCvJHl27LzKXUiMx8ECgEaAZ8+PaX3+CLbaaDwNMQoO7+RO191S6/3riU8hflLZDmUrqF0Oy/PQL+dUz/ldHbAzMAfBsC/DUavza++1c6v5RWfy14NvBH5OdSOovu8A0Cg8AgMAg8HYG5lJ4O8RgYBAaBQWAQOIvAXEpnkRq+QWAQGAQGgacjcPel9Pfff/8zn8FgamBqYGpgauAZNXD3pfT0a3IMDAKDwCAwCLwtAnMpvW3qJ/BBYBAYBH4eAnMp/bycjEeDwCAwCLwtAnMpvW3qJ/BBYBAYBH4eAnMp/bycjEeDwCAwCLwtAnMpvW3qf37g/BfsvE1h6HsR4NUyqxdtfq8Xv8fa1NDvwfE7tVz+xFt0vIZjR7zqglfE+LoYRuasQ4y5h84dNa86dvyu796b5huZ0eMbeXc6eYdUvu0XWePXf3h28vriW3uVYUTPd7/CRH92o7Ht9r97HVzBKt/jxRqYi+UKf96bR6OXh3H3Vud7YqJefJO8utH71Rd39qW0q917fH0WL7lobJnbD35aDT0Lh1fSe+lLyTfQciBptCuyYDm8vsOJRkKxOkeOg4yeXGt9XhrIQhZ8NqmWcb472Mhi14sEPhpLk/8mif7hCw2QD36ABXs8q6t1wINu7MGHDj488/lphE/4KoEB+DyDzugGV/wx3+DNnNpijRrCZ3OEn/KAu3lhROYrl4e1CB7WPnrNb/pwL159KaFX3+/V9Wx+4uejf2BBDvyC1TX0bH9G/9cR+DzxX9f17Ro88H7ztxB1hEKlaViwrq/GM5eSF4PNpOcrva5xcDjsTX0p6bONT36aGBeQMaKLefPJvxrVjd9XoG4oYACOz6AzusVPzM3Bzh9yRY5WXzJ2MmfXbcbWQ8rp12ov+XbPyD8L553NR9Y9s0fnu2voETsj870IXPpS4vDwsbH3t8N7GoIF3joyHTYZCh2i2XB4zxx++PC1Sd89WH4Ddg6/dmmckDx+Q26du/lZPMDCb9xc6jx7EaPbLwP4SFzw+IshbeOve4zEL1bMxVEZ9LFu08+GgmzqSj5wyD38VUfi2zHJc6Rb3xjbP+IDU2NK3uT/3V8CzH/WSNr2y5L75gs582XtsJa4gAVz+KSs3TN4Itc1RH70h31yiy19c58xaw1e89s438JBO+hUB8/aYl/q/VUNgatYMUrWKXqph4wTvJTRttgrP+N/EbjspeTh8MBT4Hwk988WAAeBojm6lNCdh4jDysE4Q3mwk18/s5Ap4ix6m4yx6oPz1Ld71s4tPOTDPs80AnAFG2PVPjGJF/7DYxyMHFBlwNc9fIT3nksJGfzAZhN69QN72FW38aRv+AKPl/yR7rSFHfSgE8IWc3zK2JSxWXUzdf/RUT+6easPe4mv+XIN/5GFDxzw3zz5RSJx5tmzdRZP9BG/sYuF2DnHPvHAzydzZzydK9cZ9ZfRGHJfO9Yze13PrOHDmRpCFjuePfTjn7nwclMX/NgWh7STfs7zJwKXvZRILsUgefAseoqEQwhfEmv5cU9+i8n1HNFNgSnfupO3nznYyq3G1MUzPB4yDlzG6r4HoW2t5saXdlZ8HioPkTzZGMS6dcHDIYXQw9wY1ONIfPK6Zlzm0IbiPgc8m6XrPdoIWEcXtsAwiXnqOqO7/UMf8SFrTjMm19PumWd89rPi14+j/Ce+u3z1lx1tkbfEhmdigc7iqS5H6y+bOT52DOCHfetPH4/OJXgggz7OZ+q0hrIOeYb3SCfxoitjFgNjwkf0YD8JvKw3dPAxnuSb5zUCl72ULEKKIj8WiIXnvMPvhuGhOSpUio0PBxO9WZAenjwQaTMPdq57yNPPXKOYiTWbnU1mZyv1+5w6XVuNeRhzn3VigHb22ddP/OYwghFjxocO1uXVjpjiK2RDcT99cI2RCxDbWQf6uosb3fKgY6c77bR/uUe8+mtDcp58t57F1lhW9agfu/zjS+KrzuZXD/xJjQU4sQadxRNb4GAcjsazw8ZzKx868pJKP/sZGWvOS2hlZxXDIzVEjMbVI35A+GFtEkvnoGOY+T//XPJS8gKw8EwkBZiNhmL2MMnjyDqFJFlgHgbXHbXJKHmoGfsgy+OYB9s1xtUBYR19FDb+4GcWswcXu/fQER7q0a5zx4xv5RN8xEgOkvDVxkA8NkBial7xBBNIOfWlD67Jk3lLvh2+yGWtpIy6e2z/ep+5vzSxK3/mbiWTa8gRix+xSJ5b+bdWrY9dvvTPnGijscjaPYOnPJnvPl/mTZs5IocPfbkmz+65ZVZ29E985Lm3howpe8LOL3QT06rudzLvuv7ZlS+EAN84KNwmD6NNwGJbFY0Fog4LLAvTPUZ1ty4PNsXWl2TK58HO9T4g7qkXOS6TJteRP0tHeKjDptqNCh/AHdo1OXzCxooa39QnP/rB0Zj01/1ulqyvLlr84APt8EW3PPCtdH8oiD/Mif7F1q/H5NH2qlZ/CTz4YIydJ9QRC7i4t8uXvnpedAXZxIZndELGhGxS4rnSqw+er85t6pJ3pSf5ds/Z+Fd2OoZHa6gvwJ0/uW5MRzWU/O/4fLlLyULoQ2HyKDAKEYKXhmCRevgoeg4a61I3Tdcd0eVh9WDRwNWPrp1P6MiDrU7GPiDuGSd6sdPkt2X0uu+vEuNsGXQaNxhhmzWe9V1/iMt9GhJ+eOnaNNoOusUeHnXiB8/oUMbG6dx9eLALoYu55KWlH6zjJ3aVkYc1yHjSF9bRLQ9z5VL3h4L4Qx/TFnqUIQ/d4JTBT30AG+TUEyZOP2ITbFovc9atURTu8mVNI2MM4pDY8HzPpeQXOOMlx+hIvzq3Gbh+wZ9+JI9xoSftWKvW1cpO1wTxY8d8NAbNn36onxHyPGkf3zIX1j18Q2sEPk/8ev/HrZJkitVD1A5SHDSGTLrNAjk/FKHNXJ3uWWCtG5se+uSlaNVBQa8Iex7s3D8qeA/HLlbWPYT6Q+weiLTjs4dGfkf8lzpOYk6duyZHjGInj/rxK20Qd2LJsxiyB6ELeall8Alfsasd8ECONWiHb/LIl/5kvNpv/6gf7TqiN2sPWbBI3fAyN0713zsSuzWiffS27+ai17HXuW784MnaPYunucMvc88zvkDuf0wWf4ht1kyzte/iqo2dnY7h0RrSH+vCHICXWBune6v8qGfG/yPweeIHkUFgEDhEwEbZl86h0Gw+hIBYf/Xifsj4CP1RBOZS+qPwj/ErIMC3Xj75i+EKfl/Zx8H6ytn7mu9zKX0Nv5F+AwTyr174q56h5yLgX3n1/6nouVZH+09BYC6ln5KJ8WMQeHME8n+bOfrfkt4cppcPfy6ll0/xBDgIDAKDwHUQmEvpOrkaTweBQWAQeHkE7r6U/vrrr3/mMxhMDUwNTA1MDTyjBuZSmkt2vmRMDUwNTA38mBq4+1J6+d+OE+AgMAgMAoPAH0NgLqU/Bv0YHgQGgUFgEGgE5lJqRO6Y+9+vzP999Q7QhnUQGAQGgQMELncp+R4vL4TVeBDvb93S9u5S4i0A8jD2K1P4r9ZZ38n/VmffXJkvCTUfnYs3h2fCHwR+DAJvfyn5ji1foHhPZmxwu0ulL6V+WetcSveg/V9eL5kd9v/l/nwB6K2ctdzvnPtS1t+pc3QNAq+GwOUupUxA/mp69JuvF8N3XEo0xLSj7bONNWN/92dfRXMWO95UDf6+VZ0L4juJ+vRC/E67Y2sQuBoCL30p0bBsRjSEfG08TcJvrjYLRpscY+/T0PLyU06ZTr6/lLh8vICyGbqW8ly0adfX/qtbnfAgpw+M/Oq7Rat/ugJdxKVudB1dntrFns/IoMOmzy8Z/1kF4pTg75zk++SMB3nxYQ29vp1bvfK6r40e/VWFXWwpl7lkPXFXp75lnOx1Xo7iAsuMRfusE1PHgx/5zy90PDMfBF4ZgZe9lPxrORtAjjQDGlI2A5759m0z9lcYzcRv5eigOUrqpCGtCF3w0MBsjMxtODYq5ZNH3Y7yqNP1HtW98oe1brzI4x/NMXWLAzLtJ760XeaQl1Lui1nKgam+YN8LIuX6GRkoc4sO1sXng6H+MM+MkHZTxrXON7hkXtAhr18CbsUFlsoQE/7yIeaMhTWxxubQIPCOCLzkpUQjodHZAEysB94muWvC8ueYjcd1m2Y2N/cYUz9zGzZ+4KP+KJ/76qFRYWd1cbAHoUtfslGy74dv/OmPNpH310Du8yy1n4kFzdYLBX5jwB8vAfWYk7Tduo2DdSTMP+AAAANhSURBVMmGzijJl7rcyzFrwUav/6lP3zoedMmPzZU9ZXOv40od6Z8XJvyJefLM8yDwTgi85KVEk7Vp5S+HbPAkedeE2UPOZqguRwvEeTYj91o/8/QLGRu48jY3Lxtk8EM7fbHYZOGzCSrrXFn0ZGPMiwR5aIeHuvQz9dD0k4wpGz77Gbs+5ajfrnm5Imve8EOST59c7zF/5SiTI35BGRP7xOElAVZiwB550r+zcaX+9DExRze43Yop5ed5EHg1BOZS+vefSLcBkeBsFDQnmqLNlsYh8cxn10RSjzI2WBqbjU75ey+l9FldNnd08uyH5smaPt9zKSmjn6nHuBzFiTEpm7eY6hujXx7aFjrYZ/2RS8lfIurt0ZiwA57NnxhzEYkzeojjbFxHmJELY9S/9CtxnOdB4NUR+OywF4w0f0Vkk82/ssm/QrKh+C0+L4381bFqIDQkG4ZQOd81kNSvDH56+bS8DR0//QWSzYq11JkN09jg31H+akifwbF1e0msZFb4aNMYGJMyJ+0jmBhvY4IOMSBGST5/sbieY9rMeOExn+pMLPFH/cjlHrL6A0/aOIorMTNWdLVu89j4ZVzzPAi8MgIveSmRsGwCNhhHLyCag2uONJZsxFxgNlp5LAjn3fDcp+HI49rKN+XzW7dyjjbf1JkNzWbWjTHt8iyfeh29GPrCdJ9RPxPb1i9Wq6aacuCKr/qDfUh72mINPtbhlZCXt/fkyS8tYJuUOU7csWUM6IVPv/VZjJhD7sMvT8eV9vQb/7TFaJzsm+/0eZ4HgXdA4GUvJZJHs7CB2DD8BWBys6HAwxzKBoEO5NSlrM1FGdcd8wJxjZHL0KaVNtlDJhsuNlN/6nzkUqL52wj1n7nf3tGZvvFLUyz0g1HZjItndTOuCNnUjx5saF+92kKH9pGT2s+VPf8qDgyb8gsJF4C82k/c2xY82PMiRfetuOBpG+hNLLVNvEODwLsicOlL6V2TNnEPAoPAIPCqCMyl9KqZnbgGgUFgELggAnMpXTBp4/IgMAgMAq+KwFxKr5rZiWsQGAQGgQsiMJfSBZM2Lg8Cg8Ag8KoIzKX0qpmduAaBQWAQuCACcyldMGnj8iAwCAwCr4rAXEqvmtmJaxAYBAaBCyIwl9IFkzYuDwKDwCDwqgj8Dw6Hbgo7T5RHAAAAAElFTkSuQmCC;" parent="yreB7QAmXo7YwXASIIE4-20" vertex="1">
          
          <mxGeometry width="323.56857142857143" height="269" as="geometry" />
          
        </mxCell>
        
        <mxCell id="yreB7QAmXo7YwXASIIE4-19" value="" style="shape=image;verticalLabelPosition=bottom;labelBackgroundColor=#ffffff;verticalAlign=top;aspect=fixed;imageAspect=0;image=data:image/png,iVBORw0KGgoAAAANSUhEUgAAAI8AAAFGCAYAAABT88xbAAAgAElEQVR4Ae2bzbHkuNFF2y3ZISfGBrkgC2SAYhwYA8YA7bXSQvvZat2K0/GdF/dLASx2FX+KrMwINkAgMwHmvUzwNVDfvrd0BJ6MwLcn7dqsI/C9ydMkeDoCTZ6nQ9eGTZ7mwNMRaPI8Hbo2bPI0B56OQJPn6dC1YZOnOfB0BJo8T4euDZs8zYGnI9DkeTp0bfjtX//61/e+OgbPcKAzTyeQpyPQ5Hk6dG3Y5GkOPB2BJs/ToWvDJk9z4OkINHmeDl0bXp48//nPf77/+c9//p/rH//4xxTdf/7zn99/+eWXL5vff/99qPvrr7/+0GGMlD/++OP7X/7yly979JYkdZ3rb7/99mXy73//+//5+9vf/vbVlxVstKes80rdI+qXJw9Afvv27UfwCboXgIwE/T/96U8/9CEN+tgn2dD561//+kOPPu5TJANgcuFviUAADVmdG6WErfPRH+OnOB/GwVb71Dm6fhvyJPhLQRScJATAQgjFrIRuJQ9Zi7YEDzJAoFkmgDxL5Mq5MIfqj7EqwZ3rmeXlyWNgKwCzoJo1sr+CRdaCCCPfI0KpB7GqMK9KtqpT7+t8RnOuNmfc34Y8BJyLN3y2ZBFgskBdEgS/EnDUzhj4SFkiiH0QwDk+ypI1EzIethCXOr6Y29lyefJAFL8n/C5gCRllAYItEBn4EUnoH7X/LHnIYIDN3LQlE0GEkdDO/H0BsOeeCz/04+tns9lorFfbLk+eGgCCDZm4RnI0eUZzgESQgbmmkJEqsTJzpS5Emj1j6u1Zvx15CBbgAEJdhugj4BAohaVupD/KPCNdQV+7lOg39cmUEGqUkUaEN4vlcxxdvyV5SOuVIAYW8Otbz1s80hfkJKFEyWURwEfkc8xaqu/SJHGY20iYH1fK0jOm3p71y5MHgLkAmIs65ODNRGiDGL7R3Nuf+vZnsEfkoZ/sBZiAD/D4T3ATbHTwTcl46rvkOB98+CyWkst54OfRnHP+e9cvTx4CChl487kkhoEz8PkXTrXhLR6JtgCWIgEcEyKoQ0m7WYRxc370QS71HUNfWfoCMPbaOec8965fnjwEiA9PAOWqH6GzbwP0AFYQZ4Ge9Tum2UF7yZDt6HI/G48xRld9lrVzdi57l7cgz1KQyAq8tUcJGSeXsKPGPWOc25Onvr17B5nxjh5z72ea+b89eWYP3u2vR6DJ83oMP9ZDk+djoX/9wft3W/27tad/t9eZ5/UX8GM9NHk+FvrXH7zJ83oMP9ZDk+djoX/9wZs8r8fwYz00eT4W+tcf/PLkYUPRsy0ca2Avi83JJWEDFT30PQqR+thnf+6NUdeulrlzrz+2KtjvSt30hx6bpuyHqZO76fTjN/up58arYx1dXp48BNLNT0DnnmMNMwJBNo5IoIcOQKEv8JQe68h+AbcNOy/Imz4SROzwB4G0RVeC1Pmo7zERyOd86eOCZLRhe6Zcnjx1E9JgC04NruBk4CEfZFKyjzbAQmcmjIXOTOocGSv163j4gxzaWeqfzLn0gqi3d3l58tQASR4PY9X+Chz9Faxqs0Qex4OUawUiPiJjkqf6JTvOMl3V3fP+NuTh7c1vg/o2G0SI4JJgG8sJYIxsaAPIGTlGmUy/WeKHjCFRqc+kZkL0ICk+GG/0DDNfe7bfgjyCDwEI7AxoAkk/AKZoPyKPH+N16dB+DZD4ZW5cELGOry9KyVg/iLHRB+RaIl/627N+C/IQIAAi4AZ/RqCfIQ9LH2DPgJJ0s/4EjvlxMa8Z4VyORnM38zDWmuyVY+9Vvw15MkBmi2yzzlsLeCmQhLcacBVJuEQMvp+Wvl30VUt81/EYZ2l5rD5GL0HV2fv+48hjNsllqH5ECy6ZYCaADQFGWWJmY7v+JavEmX3ka5dlkyej8UQdApDCCX4uC/ldQTuBFmTu7afO0pNvvEsHhKIvL/QVsht2SUL7sOVCmB8+seWiznzMWLThh7YcizrLMPrMnTq6lGZKdM6US2cegAMEPyQpJYZBJcC0A4ICGOhpl3995Yep/ZaCJeCjTEEf+vaN/EEs9BDn5xhZYgtZcq70c+/L4DOdUV6aPAYMICAHGahmAgDgra6CHjaCaD/ttI0udSirnX2SAdAVdJnbaDx9jcbzWZwTvvFru/7PKm9BnqXgkZmOfEvJOC5ZS/O6Q9/tyXP0W8p4R495FhFvT56zAvsJ4zZ5PgHlnZ6xybNTYD/Bbf9uq3+31b/b+oQ3/d2esZetd0PkQvNp8lwIrHebapPn3RC50HyaPBcC692m2uR5N0QuNJ8mzwQsNiDZo2JTlavuj7nhSh+78rONUtynn5k/p8EG6mg8+pmD9pRnb4M0eUQtSgDk2AOgA5i72aqw+emxCAFd2gwFaDZoIZwXPqtABnTxjV6K54cYG9uRfeofUW/yDKIM0DMyAHAFFyA5ZwPpRgIhPN8z6rcNwjA2+kke/eeZJG3OLJs8JfoQACLM3uxRP0sWNnVpw7V9M38ODzEgJctlJY/LnrrvUjZ5ChL5lgsaWcNvGvvzsBcuKuC6lTz4csmqGcTlynEgYmYefecS+YiMjr9n2eQp0QVAwAMw6gLGcoJIHsmkuQB7bwkxIA7fLBACvZqlaNe/ZJM8LpNkJfwwH3zh42wCNXlE+f9KQAOY/H5xqSJj/Cx5ivsft4wBGSBGLld0VvJ4D3FSuJdw2X5kvclTos2bDXkyswggxAHs+tabHcwWxeX/3EpAyvxAxl7y0k4d36OsRh/tZ0qTp0TfLJOZh+8bCSNRIJmiDWRYIxIUv9QljSVjJXnIMjXzsHQ1edZE+2AdswHgcvl/LBAHAWSWHUgz6k+wJQglGQwbQGeMkZjlGEMxU0E0+rln/CSwukeWnXkG0QYgwCUDcEkUVemHIKN+wedjG/GbRl1KbNEbifZJHvQgCvPQD4Q+W5o8CwiQLcgUZpyqOuo3S9CnYM89RJqRRl1KdEZj0rbWR/rbq97k2TiyZJz6fbLxEG/jrsmzMRRkh1HW2HiYt3DX5HkLGK45iSbPNXF7i1k3ed4ChmtOon+31b/b6t9tXfPdvfase9m6Nn6nzr7Jc2r4rz14k+fa+J06+ybPqeG/9uBNnmvjd+rsmzynhv/agzd5Cn7sS7G5yZkbr3puhh1yNj/tr8cnissf5288I4RN9Yc+O+n40WfdXMXGPnytPXhW57LlfZOnRNNzMxAIgACUMzQSBJA5VwO49Ks/O1/jeR7s018SCJ8Sg3b0sFNoYw7OycNpeexD3SPLJs8g2nVX3CyjKmCnQAwIVe3UqfoQJU8Sal/1tKcfGwU9yWTbGWWTZ0XUATrBriaCPyNP1U/yYAPx8DETMk6Sk4wDeTJ7zWz3bG/yTKLL280pQolBfSYQq36jzHTxCxEE3izCvRmGZSmXJHQkHHrUZ8vkbNw92ps8g6gKKG/3o6wAmOgk2AOXX02ADvhmKb5tGEdC4A8i4pN5KLSjp+4SmbXZu2zyTCIMcFxLb7rAo7NGXH4SeD6OIUT6cClDH6HPbAVJJddawq6Z2zM6TZ4VUQM8AM5MAAEEdIWLLwIkcbCDAPiGRClkIpYxiVS/iX5mqUy/W9abPCuiWckjccwMj1xon39+ayM50EmRPBC2Zib0XP7S5uh6k6dEnDcckF22qAOkf23RTsahjWyRl8sIy4of0C5t3KcudTMZY+LTcSElhDFLMTbj4R8bbNFfS97yiJvdNnlKKAES4PICeIEGuOzLOrbo0SawI3/a4Eshk9hel0N8QiD7KfuvLSP3ZiVg8dabCer06B9dLEGSyyxE20iXtiq0MSY2I7F/ZDvS37utM8/GESbjuGRt7Prt3DV5NoaErDHLHBsPdbq7Js/pEFx3Ak2e62J3+sz7d1v9u63+3dbpr+EHTqCXrQ8EfatHbvJsFckP9NPk+UDQt3rkJs9WkfxAP02eDwR9q0du8mwVyQ/0czvyeM5laYuATU+POVB69EH82Xhkf4pjEFzuls/661kc9WrJvhf+RnNjDMfjGUabn2y2Mt+149Xxt76/FXkIKscZOLIwCj7BAwB0AIgdcEDjXgIBrCDSr0+PQNgPiNm/BChzwX42N0hFHz64GL9urjIWOlzM+R3kNuQBIAILSEvkoR9wUgBKsPCDPWApEgziAC79HrlAhzbGHmUU+s1y2iaxsamEYGzGkNAeKJNYTR6R2agEfIhh4BOgHALi1OAn+IJJm5KEw7aSDyIBNiCPhH78juYGQSpZJXDOQSKN5j8a84i2W2QewSfogAsYM/KQBbhSsE8b/bGc4I/MIHguMZllRgRI/9ZH5LEtMxn6M5LM2h3jyPLy5IEkgAsIyCPySBRKbCVKkod2CEYbFz4VQHaZoU62Udc5qFtLiZLEHrVhNyPJrL2OdcT95cnjcmWwHpEHPbMJxAD4/E4iowAQfiGH5EJHsQ17iEQ2ot7kMUIXKP2QBFgIwWUWoL4EJiQxA+Q3jcSwjzCYHVy6aNOeEhvIkzaj8Okn9XyGnCs+zW7VT2eeGpEn78kMksZyLXkcUqDIHgh+ACiFcZYyC1mKcR/JiDyODwGVpW+oJo9R2qEE/MwCvOUEPMGhjQuQAJ633GxgJkCfNohDZkIHoBFK+xwPOwWfXFVG5EEHH/hnPqPx0k+TJ6OxcV0wJYOACS7tkMuLjAFgKRAHMNURWHUA0D7queTo30ymDaVzcW72cQ/Z9FnHU4+yyZPR2LhuVtAtZCLgKZAFMlUQUwc/ZgIzjv3cQ4SRvQSphNR2ZGMfNoxZx7Ofkr6l/tTdu375v7YeBYjMkkvWI/1X+8k4oyXrVb/vaH978hz9lr5TZtibcLcnz94B/GT/TZ5PRv/FZ2/yvBjATzbvH/31j/76R3+fnAHOevZets6K/A3GbfLcAMSzHqHJc1bkbzBuk+cGIJ71CE2esyJ/g3EvTx42Gj3MxQYoe1m5yz3CiM1H9NDnmumzT0X/0hYH+2bouGs/Gi/bZvo8h5u4+Bvtj7FxevReXc691i9PHoJsQCGBRxtmhAAkjjygh45HOBJ8CemxDO5HApjqzMZLu5k+/iEMF+TCV84HH7QxFhdzfge5PHlqVuB+KcCAQ38SAvLlm25WQpczNqmboKFH1kNnDXlm+pChzinHgUiMYdZq8mR0NqxLntFhLIaBJLzhKYInEckQ1CHEjDwuaeiuIc9M3/k+IgRLLcLcH+nms+1Zv3zmMThkB95QyTHLFgSfbJEyI8ms3eWH8dShnMmSPvM0q0AK54fNSJo8o6i80CaAgEBwSe8zGQVf+0q4WTvLj2+/OpQzWdJ3SZI0zJ0XYLaMjeY/G3fv9ltlHt5Wgk/gZwQaBV8CrCGPy49LnLYz8jzS1z7n61KGbZXR/KvOUfe3IU8GzD/ds806WQAAUgBp9G0jsJJKUM0kZB+yBLaUSQD8r9GH8NhX8s1IMmvP5zmq/nHkgShkJjMHgfY7qQZ9RB4Ik9cj8qTuiGwSrBJvRpJZe537EfeXJg+BBxD+EiE7cAEC5KAdoY2ACw739lOHILNlrpJnBIg6lAqE4hrJSJ+5Mge+f5iTmdC/sNJPkyej8UId8rCEkPa9JIZuBQtgFAmmTf3rSz1tAXQm6lAi6OJ39L1Cf9XXr/9fhO2MzOg2eYzYRiWAQQ7e1FyOcM9bTcCroOebXvvyfok46qWO5Jj9qY1N6uvDduZUnyF16FvqT92965dettYEh8zkkrVG/1UdMs5syXrV97vZ3548R7+l75QZ9ibb7cmzdwA/2X+T55PRf/HZmzwvBvCTzft3W/27rf7d1idngLOevZetsyJ/g3GbPDcA8axHaPKcFfkbjNvkuQGIZz1Ck+esyN9g3CbPBEQ2NtmjYlOVq+6PueFKHzvis81O3LNZ6iG0kS900h/j1o1Vxncu9C+NN3mkzZubPIOQsjvPsQhAAjTATzA9UEafoKI7EnbJPSaCH0jCsQvsFMjnMYwkmvty6NLPuPQzFkQ6m0BNHhGMkiwxIwOASgZNABRCjA5voVNBBnjGULiHVIr+IB5Cf545cg5JQG2PLJs8JdoQACIA4EhG/ZCjZpORrW2VPJWskAJ/ZDt91/lApiSgvo8smzwl2vnWuzywXJg97M9lDBc1exS3X7f4cYmy0WUSQrhEmVXMMswhxbll29H1Jk+JOCDx1kMG6oCYmULySCbN15IHgqDr94z2tDMuF8RI//RBOJYxSMu8uMfPmdLkKdH3gza/X1yqAO8V8gh6+mZ4CYV/LkiRBINIEEpyoc+S1eQp4J196/dGvvnUAQ7iAK515+rSkh+99lm6HFXiSEx8K4xXlzb6aHdeEGdpPH3tWXbmKdEVzASZpULCSBS/STDXJgmQbiUkxKtiJvuZbyjHG/mr/ve8b/IMouuSAKBcfnP4ncIbT2YAxFE/SwwXYqbiHqLkRRaRjIxhZvG7K8lhH/ZkHf0Ppn9YU5NnEGqAgkB+Y0gUVekHvFE/fbRDAMRvKHWzhAgIJGQM++qShV72SbQfxif+0+RZCD5ZBWDNOFV11C/Q9CHYmjVqmf7QG/lTh3kszUW9I8smz8bRJuO8w5Ky8WMN3TV5hmF5vpEMMstUz3t9T8smz3vicolZNXkuAdN7TrLJ8564XGJW/but/t1W/27rEq/qzSbZy9bNAD3ycZo8R0b7ZmM1eW4G6JGP0+Q5Mto3G6vJczNAj3ycJk+JNlsL7E9x7MErz+6gzgYm+1f2PzqUxWapxzywqf7wyaYpfvRZ98ewsQ9f7siX6R962+Qp4QYkjkRAIADySIUEAWT6AZd+9TkmMRLO5KCPffpLAuFTYtCOXp7loY0jGc7J80Xu3I/GPaKtyTOIct3YNMuoCtgpEAOCVDt1qj5EIXso2le97MdGQU8y2XZG2eRZEXWATrCrieDPyFP1kzzYmJmqnvdknCQnGQfyZPZS98iyyTOJNm83h68kBvWZQKz6jTLTxS9EEHizCPeMBbFYlnJJQkfCoafObIyj2ps8g0gLKG/3o6wAmOgk2AOXX00QA/DNUp5xlhD4g4j4ZB4K7cyHC90lMmuzd9nkmUQY4LiW3nSBR2eNuPwk8Hwc1yXIpQx9BP9mK0gqudYSds3cntFp8qyImm99ZgIIIKArXHwRIImDHQSAPJAohezCMiaRqKf8zFKZdlvWmzwrolnJI3HMDI9caJ9/fmsjOdBJkTwQtmYm9Fz+0uboepOnRJw3HJBdtqgDpH9t0U7GoY1skZfLCMuKH9AubdynLnUzGWPi03EhJYQxSzE24+EfG2zRX0ve8oib3TZ5SigBEuDyAniBBrjsyzq26NEmsCN/2uBLIZPYXpdDfEIg+ynRP1uaPAMEAIu33kxQVegfXSxBksssRNtIl7YqtDEmNiOxf2Q70t+7rcmzcYTJOC5ZG7t+O3dNno0hIWvMMsfGQ53urslzOgTXnUCT57rYnT7zJs/pEFx3Av27rf7dVv9u67rv73Vn3svWdbE7feZNntMhuO4EmjzXxe70mTd5TofguhNo8lwXu9NnfnnysEno2RaPTuRu9SjCbHp6zIHSow/q4pP9KfxxuUM+669ncdSzZD6Oh7+qzyZqjsdOvMJWh/Oo5dl7aJcnDwEEGAABJO45sjAjEEBx5AHCoQNQ3CeBBBKfXHl2RjAZE3v7KUfCLjn2jON4zE99iEo/Y6Y/j1wwHrb1gkjM4Uy5PHnqJiT3gjUKrFkq+wCOC4FElXwSDN+ATr9HLrCRQHUujlGPUFTga3+Op48sJZwEzL4j65cnTw2W5KlLjXoABzgpCb7kSEDJCBAGYmGLjxSIRD9ZZo1U8lSbR+Th2XhBZmSt/va6vw15ABvwXHIS/Aweqb6m+yTMiBz4MhuNgBtlqxwz6/gC+KWswfzMhGlL3ZejvgBV74j7W5DHzADAvNVLwEgUSoCkBExsuX9EHr+Z0KMOYQFbcj0CzWVzljWcTy6L6dP5z/pTd+/6LchDkACegBp8ypkAvIQBeABdSx58OgY2+CEbrSGPWSs/znOOEBE/S3Nfykrp64j6bciTwfLtzrZa582HcEjqSwT76BdUMpyiPSVgSz77aynhZsSh/dFy5vLIfN5BPpY8Bh/wzR60SZQE+RE5+D4hI8xE+xnoEgfiLonfc0s6R/ZdmjwAzxJE8MkUXL7htCO01e8gdbEDEMhDm+LSwDKIDvb5AWvWoZ9xyDpJDHTVl4zck7nych6MzxjZRz2/a6g/WtKc/1Hl5ckD0ATVCyAkDkEEhAQXwNSlxD5BwkbCqIdOkgug7RN0AdO/WURyqZ+lZMm2rOdzUOfZIO67yKXJYxABjDcc0GtwCToAp0AW9JMQ2U8dP/irxLIP4Ef2klU7sxS69XLM2u59Pgv1vNf2zPIW5FkKIFmDpewoIeO4ZB015lnj3J48R7+t75gh9iLX7cmzV+Da7/fvTZ5mwdMRaPI8Hbo27N9t9e+2+ndbnQeOj0AvW8fH/DYjNnluA+XxD9LkOT7mtxmxyXMbKI9/kCbP8TG/zYhNnttAefyD3II8bHyyc87FRii74TNhx9qTg+qzE16FXXE2OPVbN1cf9Vd/3LNpir/Rfpu7//TnUYz0w5hHb/Tm+LV+efIACOdcABcSADj3HomoD0y/AKjPGZokEOTDB7r6TX+P+uuYEhafjMV9CmT2GXwRaEthfuhwzciV+kfUL08egpRgUAcgD2PVINa3nvsKCOSCODN51F/t0CejQIxKHkhJG30K5KTNDOppRInV5DFSG5ePyFOHkzySTeAyE6XNo/7UtQ5BGAeflTyjNuwgm3PiXiItLWuOd1R5i8yTwRIMg519WYdkvNFkGAAxe2mffYC4tj/HqHV964t+swqlIqFHGabJY5Q2LgGF4NbvhTqMIJIF0M8lA6LYTt2lgqUHedRfx8p7x03yQBTmAIkhPJffQE2ejN7O9ZpFloYDQJYTyOHHKvoAlt8btAEobWSHR/1LY47Io3/IyRjMBYLW7zD9duYxEhuWvK0ENt/qte61RR8yAWL6oU4b4D/qXxpzRh5tGIdM5Ec0+lWaPDUiL96b5hPwn3GZ5DHLUCoJ5qN+bUblI/JoYzaESFWaPDUiL9z7DcJyAjh54RZCEXAAAQz0IADtXAJFu+Kf1pCGS3IK5qN+lk+uKjPy4LfOh+caSZNnFJUn2wgmS8roAhAB43sFkPy2UH/0bYFd6qGTmWipnz58j8B3Luik+B2Fnd882Z/1Jk9G48V6vrWAkheuAYaAp6ADmSCE2ST7rZN1lnRG/RKEvpFU4qDDHJgPNkvzUfeRzmjcPdpu9/88NUhkEJamo4SMM1qyjhr/yHFuT56j31LGO3rMIwmTY92ePPmwXd82Ak2ebeP5Ud76d1v9u63+3dZHvfJv8rC9bL0JEFecRpPniqi9yZybPG8CxBWn0eS5ImpvMucmz5sAccVpNHmuiNqbzLnJMwDCE4lsqHqN9sfYBKWfTc0leeQP3x7zwB+buXUDFR3ngi5jny1NngECgARAgOhVwWIDlOMTHKOofdXlkj927fHDmSH8QBLuGV+hzWMe6Hi+aLZzr93eZZNnEGHAHp3HUVXiAORa8iz5qxupksXsU4+V0C6ZnNMZZZOnRF1glrIJOl6PyLPGX5nC1wF4SSVZvSfjMC4kO1OaPCX6gs13ikvW7JtG3UdEA+hH/iAGpHDZSmIwjksf7dRZus6WJk9BABABGnBcLmZv+RryrPUHIRiH7x3Gx3cKpKGfC908Fpt6R9abPCuiDYkA1WVDkzXkUTfLkT98448sB3kgiATKbER2op/59AdzRvVN67MP42fJM/Pn4/tNgx6kgigQLoW/xiDRmdKZZ0X0XTLqm/4seWb+nEqSxzGwSWFZJTudKU2eEn2AAyhKgOPbApDy/100Edj6wUxGMCs88sdYXPhyPP8fh3uEsZmDc2I8stHSn//Occ+yyVOiyzcHwPhxSgkRBDLVaaM/yWObwD7yB3HqeJAlP4jxSVvOqf/aSiTeqM53Bm85wI9Ik1Ot/RAJkLFXHvmzH9vqTx+U9K2ZU9rsWe/Ms3F0yTguWRu7fjt3TZ6NISGLcH2CNHk+AeWdnrHJs1NgP8Ftk+cTUN7pGftHf/2jv/7R304vV7tdiEAvWwvB6a7lCDR5luPTvQsRaPIsBKe7liPQ5FmOT/cuRKDJsxCc7lqOQJOnxIetBfanOALhxc53Cpue7F/ZXw9qpS51Njw9VoFN9YcOm5740WfdH8PGPnzlTn4d76j7Jk+JtEckIBAAASi75BIEkDlCAbj0qz87IuGRDOzTXxIInxKDdvSwU2hjDs7J8z65c6/ukWWTZxDturFpllEVsFMgBoSqdupUfYhC9lC0r3rZj42CnmSy7YyyybMi6gCdYFcTwZ+Rp+onebCBePiYCRknyUnGgTyZvWa2e7Y3eSbR5e3mNJ/EyJN91QRi1W+UquM9fiGCwJtFuGcsiMWylEsSOhIOPXX0eVbZ5BlEXkB5ux9lBcBEJ8EeuPxqghiAb5bi24ZxJAT+ICI+mYdCO3rqLpFZm73LJs8kwgDHtfSmCzw6a8TlJ4Hn4xhCpA+XMvQR+sxWkFRyrSXsmrk9o9PkWRE1wAPgzAQQQEBXuPgiQBIHOwiAb0iUQiZiGZNI9ZvoZ5bK9LtlvcmzIpqVPBLHzPDIhfb557c2kgOdFMkDYWtmQs/lL22Orjd5SsR5wwHZZYs6QPrXFu1kHNrIFnm5jLCs+AHt0sZ96lI3kzEmPh0XUkIYsxRjMx7+scEW/bXkLY+42W2Tp4QSIAEuL4AXaIDLvqxjix5tAjvypw2+FDKJ7XU5xCcEsp8S/bOlyTNAALB4680EVYX+0cUSJLnMQrSNdGmrQhtjYjMS+0e2I/2925o8G0eYjOOStbHrt3PX5NkYErLGLHNsPNTp7po8p0Nw3Qk0ea6L3ekzb/KcDsF1J/Dt73//+/e+OgbPcKDJ0y/P00FKu4EAAANPSURBVMmjl63rrhqnz7zJczoE151Ak+e62J0+87cmD//Fz//Wsino5qSbhUSO/6Zn78h+yro7nRHmP+9S13r+jzA+3bGmn74cU3+M44YlemwrzASf+RzMuUo+B7puQeDXeY7KM/9D8m3JQ9DYIMzNQOq0EVgugln7uc8NxwQJm5E+fhDJ5TiOT+leFXq5iam/2ZjpU13K3Ngc+WNO2LpXlrZZl2T5nEfV35Y8BIA3kMACHG+/YLpjTcnbT59ZisDSNpIEgszBPZdZAz8Cg78E3jGxQwdwsZPIo/FoU18C5hwYL8ekj3F9Tmzx7zwt3WGfPedsLlu3vzV5AC/FTDNK++jRLrBpZ13gzDS2W2ZmghiMn0Ci5xwAnf46R31Z8gIwJ0qk+kxy6ava6IuSOdY5Zf+R9bcmTwYi31AzRfYnKGaJ7KcueQg+JOACKABRJKA6AO8SI7mwQw8drupDX5SSLQmfbY5HmzJqs29ENvuOLi9BHohhwH2Da6D8bgDMJEPqGXgIkRe+feuxdVlAB38sJUiSjz7nRH02L3W2IM+aFySfd+/6JcgjMQBiRAxJAdBkqCXJ7xQylCSCGJWkECIJJHloo444Nm2juW1JHsdfekGWnn3rvrcnz5bEqcEDbMkDCSQCgCsSiDKXTokioDPymMVc+vAroSCvBM4xfeb6QayvWZZzzkeVb00eg0hgAQ7AuFxiBJs3ERDtF1iCmPr+BWVwkwzY+62RoDkGc8hlg3bEfubgvHLMSg7mIGHJglzeuzwmuUZzHX3zqXdk+bbkERQDmyXBJdAAlu1ZB0B9oI9ADmy459KeOsAnkLzdkFcdySLB9GO/maWOyTzUGY3JvMwo+uQ5qEsmdMyASewfD3XiP29LHkFKQlgHhFwubM8S0MxcvP0IwAqkuoCBrlJ10GcuKfrVB8Dqwz7HxI4Ml+MyJm0KthIIn+hKVnTo1z7btT+rfFvykAkI2ujK5WHUTxsCyQAjgcKWe7KMejX46qDnWFUH25GP0ZjY6jOzSfVJ32xMn7PanHn/tuR5NSiABZBHflyeMearcXrF/rbkeSUobbsuAk2edXFqrUEEmjyDoHTTugg0edbFqbUGEWjyDILSTesi0ORZF6fWGkTgvzfqKbRT6okTAAAAAElFTkSuQmCC;" parent="yreB7QAmXo7YwXASIIE4-20" vertex="1">
          
          <mxGeometry x="321.90425531914894" y="17.74285714285714" width="109.90571428571428" height="250.55428571428573" as="geometry" />
          
        </mxCell>
        
        <mxCell id="yreB7QAmXo7YwXASIIE4-23" value="ANGIA" style="rounded=1;whiteSpace=wrap;html=1;fontStyle=1;fontSize=18;" parent="E9v3gTPZ0oTmIHVyKDjV-1" vertex="1">
          
          <mxGeometry x="180" y="480" width="160" height="150" as="geometry" />
          
        </mxCell>
        
        <mxCell id="yreB7QAmXo7YwXASIIE4-29" value="Service&amp;nbsp;&lt;br&gt;Agreement&lt;br&gt;(5%)" style="endArrow=classic;html=1;fontSize=16;exitX=0.111;exitY=0;exitDx=0;exitDy=0;exitPerimeter=0;fontColor=#0000FF;" parent="E9v3gTPZ0oTmIHVyKDjV-1" source="yreB7QAmXo7YwXASIIE4-23" edge="1">
          
          <mxGeometry width="50" height="50" relative="1" as="geometry">
            
            <mxPoint x="130" y="740" as="sourcePoint" />
            
            <mxPoint x="318" y="280" as="targetPoint" />
            
          </mxGeometry>
          
        </mxCell>
        
        <mxCell id="yreB7QAmXo7YwXASIIE4-30" value="" style="endArrow=classic;html=1;fontSize=16;exitX=0.986;exitY=0.088;exitDx=0;exitDy=0;exitPerimeter=0;entryX=0;entryY=0.75;entryDx=0;entryDy=0;" parent="E9v3gTPZ0oTmIHVyKDjV-1" source="yreB7QAmXo7YwXASIIE4-23" target="wRgBbQsnzJH4OWioFnap-27" edge="1">
          
          <mxGeometry width="50" height="50" relative="1" as="geometry">
            
            <mxPoint x="130" y="740" as="sourcePoint" />
            
            <mxPoint x="180" y="690" as="targetPoint" />
            
          </mxGeometry>
          
        </mxCell>
        
        <mxCell id="yreB7QAmXo7YwXASIIE4-31" value="" style="endArrow=classic;html=1;fontSize=16;exitX=1;exitY=0.845;exitDx=0;exitDy=0;entryX=0;entryY=0.5;entryDx=0;entryDy=0;exitPerimeter=0;" parent="E9v3gTPZ0oTmIHVyKDjV-1" source="yreB7QAmXo7YwXASIIE4-23" target="yreB7QAmXo7YwXASIIE4-7" edge="1">
          
          <mxGeometry width="50" height="50" relative="1" as="geometry">
            
            <mxPoint x="130" y="740" as="sourcePoint" />
            
            <mxPoint x="180" y="690" as="targetPoint" />
            
          </mxGeometry>
          
        </mxCell>
        
      </root>
      
    </mxGraphModel>
    
  </diagram>
</mxfile>
